<?xml version="1.0" standalone="no"?>
<!DOCTYPE svg PUBLIC "-//W3C//DTD SVG 1.1//EN" "http://www.w3.org/Graphics/SVG/1.1/DTD/svg11.dtd" >
<!--
2013-9-30: Created.
-->
<svg>
<metadata>
Created by iconfont
</metadata>
<defs>

<font id="iconfont" horiz-adv-x="1024" >
  <font-face
    font-family="iconfont"
    font-weight="500"
    font-stretch="normal"
    units-per-em="1024"
    ascent="896"
    descent="-128"
  />
    <missing-glyph />
    
    <glyph glyph-name="filter" unicode="&#59335;" d="M880.1 742H143.9c-24.5 0-39.8-26.7-27.5-48L349 298.6V58c0-17.7 14.2-32 31.8-32h262.4c17.6 0 31.8 14.3 31.8 32V298.6L907.7 694c12.2 21.3-3.1 48-27.6 48zM603.4 98H420.6V254h182.9v-156z m9.6 236.6l-9.5-16.6h-183l-9.5 16.6L212.7 670h598.6L613 334.6z"  horiz-adv-x="1024" />

    
    <glyph glyph-name="right" unicode="&#59371;" d="M765.7 409.2L314.9 761.3c-5.3 4.1-12.9 0.4-12.9-6.3v-77.3c0-4.9 2.3-9.6 6.1-12.6l360-281.1-360-281.1c-3.9-3-6.1-7.7-6.1-12.6V13c0-6.7 7.7-10.4 12.9-6.3l450.8 352.1c16.4 12.8 16.4 37.6 0 50.4z"  horiz-adv-x="1024" />

    
    <glyph glyph-name="left" unicode="&#59372;" d="M724 677.7V755c0 6.7-7.7 10.4-12.9 6.3L260.3 409.2c-16.4-12.8-16.4-37.5 0-50.3l450.8-352.1c5.3-4.1 12.9-0.4 12.9 6.3v77.3c0 4.9-2.3 9.6-6.1 12.6l-360 281 360 281.1c3.8 3 6.1 7.7 6.1 12.6z"  horiz-adv-x="1024" />

    
    <glyph glyph-name="seal" unicode="&#59219;" d="M517.053 830.682A444.337 444.337 0 0 0 960.647 360.71l2.414-6.378-2.91-1.114A444.399 444.399 0 1 0 517.053 830.682z m378.082-501.985l-623.78-235.42a382.48 382.48 0 0 1 623.842 235.42z m-72.694 287.928L135.75 357.242a380.56 380.56 0 0 1 79.381-205.76L898.79 409.628a380.498 380.498 0 0 1-76.348 206.998zM517.053 768.762a382.48 382.48 0 0 1-378.95-331.024l629.416 237.525a380.931 380.931 0 0 1-250.466 93.499zM424.668 394.332l26.13-69.536-188.98-71.084-26.13 69.536 188.98 71.084z m218.515 83.283l26.13-69.536-188.979-71.084-26.13 69.598 188.98 71.022z m129.29 46.935l25.758-69.66-101.115-37.338-25.76 69.66 101.116 37.338z"  horiz-adv-x="1024" />

    
    <glyph glyph-name="administrate" unicode="&#59220;" d="M940.544 832C951.296 832 960 823.296 960 812.544v-857.088A19.456 19.456 0 0 0 940.544-64H83.456A19.456 19.456 0 0 0 64-44.544V812.544C64 823.296 72.704 832 83.456 832h857.088z m-48.704-68.16H132.16v-759.68h759.68V763.84zM687.296 384c41.792 0 77.44-26.368 91.264-63.36h45.12a34.112 34.112 0 0 0 2.752-68.032l-2.752-0.064h-45.12a97.408 97.408 0 0 0-182.528 0H200.32a34.112 34.112 0 0 0-2.752 68.032l2.752 0.128h395.712C609.856 357.632 645.504 384 687.296 384z m0-58.432a38.976 38.976 0 1 1 0-77.888 38.976 38.976 0 0 1 0 77.888zM278.272 539.136a34.112 34.112 0 0 0 2.816-68.096l-2.816-0.064H200.32a34.112 34.112 0 0 0-2.752 68.032l2.752 0.128h77.952z m545.408 0a34.112 34.112 0 0 0 2.752-68.096l-2.752-0.064H434.112a34.112 34.112 0 0 0-2.816 68.032l2.816 0.128H823.68zM356.16 612.16a97.408 97.408 0 1 0 0-194.752 97.408 97.408 0 0 0 0 194.752z m0-58.432a38.976 38.976 0 1 1 0-77.888 38.976 38.976 0 0 1 0 77.888z"  horiz-adv-x="1024" />

    
    <glyph glyph-name="code" unicode="&#59221;" d="M959.87 870.16a68.677 68.677 0 0 0 68.677-68.677v-824.13a68.677 68.677 0 0 0-68.678-68.677H135.74a68.677 68.677 0 0 0-68.677 68.677V801.483A68.677 68.677 0 0 0 135.74 870.16h824.13z m-13.736-82.413H149.475V-8.91h796.659V787.747zM320.139 510.84l38.802-38.872a13.735 13.735 0 0 0 0-19.367l-53.43-53.43a13.735 13.735 0 0 1 0-19.437l53.43-53.5a13.735 13.735 0 0 0 0-19.366l-38.802-38.872a13.735 13.735 0 0 0-19.436 0L188.965 379.734a13.735 13.735 0 0 0 0 19.368L300.703 510.84a13.735 13.735 0 0 0 19.436 0z m424.29-242.844l-38.804 38.872a13.735 13.735 0 0 0 0 19.367l53.431 53.43a13.735 13.735 0 0 1 0 19.437l-53.43 53.5a13.735 13.735 0 0 0 0 19.366l38.802 38.872a13.735 13.735 0 0 0 19.436 0l111.738-111.738a13.735 13.735 0 0 0 0-19.368L763.864 267.996a13.735 13.735 0 0 0-19.436 0zM575.275 519.356l49.105-24.518a13.735 13.735 0 0 0 6.18-18.474L507.629 230.155a13.735 13.735 0 0 0-18.405-6.181l-49.242 24.655a13.735 13.735 0 0 0-6.181 18.406l122.933 246.208a13.735 13.735 0 0 0 18.405 6.181z"  horiz-adv-x="1097" />

    
    <glyph glyph-name="auditing" unicode="&#59222;" d="M680.306 122.169v-64.256h-337.28v64.384h337.28zM521.266 860.089C659.122 853.56 767.09 743.417 767.09 609.337a244.48 244.48 0 0 0-47.232-144.64l-9.6-12.16a592.143 592.143 0 0 1-42.24-60.8c-10.24-17.472-14.336-29.568-14.336-32.064v-0.256l-0.128-5.888c-0.512-8.448 1.024-31.104 26.816-57.6 6.08-6.4 12.928-12.16 20.096-17.216H826.29c83.584 0.128 120.832-32.832 120.704-106.496v-162.56c0-47.808-38.656-86.464-86.464-86.784L162.098-78.6a86.72 86.72 0 0 0-86.72 86.72V172.217c0 73.728 37.376 106.432 121.088 106.432h125.44c7.552 5.248 14.272 11.008 20.032 16.96l1.472 1.472c24.512 26.048 25.92 48.256 25.408 56.64v6.08c0.192 3.008-5.76 18.368-20.416 41.856l-5.12 8.064a666.88 666.88 0 0 1-28.8 39.552l-1.92 2.368a247.04 247.04 0 0 0-57.152 157.568c0 134.08 108.608 244.288 247.04 250.816l18.816 0.064z m-1.6-64h-15.488c-103.424-4.928-184.384-86.848-184.384-186.56 0-42.304 14.848-83.2 41.792-115.84a650.561 650.561 0 0 0 35.328-48.192c26.112-39.808 37.056-66.112 36.224-88.064 1.024-19.84-2.624-57.408-36.48-97.088l-8.448-9.216a218.496 218.496 0 0 0-39.296-31.488l-7.744-4.992H196.466c-26.816 0-40.256-2.304-47.616-8-6.848-5.376-9.344-14.72-9.344-34.56v-163.776c0.128-4.48 1.472-8.96 3.84-12.608l2.688-3.328a22.144 22.144 0 0 1 16-6.592l698.368 1.472a22.592 22.592 0 0 1 22.592 22.528V172.217c0 34.88-4.864 42.24-56.192 42.24h-145.28l-8 5.12a219.648 219.648 0 0 0-39.296 31.68c-41.6 43.008-45.952 84.928-44.8 106.176-0.576 15.616 4.672 32.832 17.28 56.32l5.76 10.432a423.456 423.456 0 0 0 14.208 22.848c7.04 10.688 14.464 21.12 22.144 31.424l11.84 15.232c27.136 32.512 42.048 73.6 42.112 115.968 0 99.648-80.448 181.504-183.104 186.432z"  horiz-adv-x="1024" />

    
    <glyph glyph-name="auditing-color" unicode="&#59201;" d="M680.30577778 122.16888888999995v-64.256h-337.28v64.384h337.28zM521.26577778 860.08888889c137.856-6.528 245.824-116.672 245.824-250.752a244.48 244.48 0 0 0-47.232-144.64l-9.6-12.16c-15.36-19.392-29.44-39.68-42.24-60.8-10.24-17.472-14.336-29.568-14.336-32.064v-0.256l-0.128-5.888c-0.512-8.448 1.024-31.104 26.816-57.6 6.08-6.4 12.928-12.16 20.096-17.216h125.824c83.584 0.128 120.832-32.832 120.704-106.496v-162.56c0-47.808-38.656-86.464-86.464-86.784l-698.432-1.472A86.72 86.72 0 0 0 75.37777778 8.120888889999947v164.096c0 73.728 37.376 106.432 121.088 106.432h125.44c7.552 5.248 14.272 11.008 20.032 16.96l1.472 1.472c24.512 26.048 25.92 48.256 25.408 56.64v6.08c0.192 3.008-5.76 18.368-20.416 41.856l-5.12 8.064a666.88 666.88 0 0 1-28.8 39.552l-1.92 2.368a247.04 247.04 0 0 0-57.152 157.568c0 134.08 108.608 244.288 247.04 250.816L521.26577778 860.08888889z m-1.6-64H504.17777778c-103.424-4.928-184.384-86.848-184.384-186.56 0-42.304 14.848-83.2 41.792-115.84 12.48-15.488 24.32-31.616 35.328-48.192 26.112-39.808 37.056-66.112 36.224-88.064 1.024-19.84-2.624-57.408-36.48-97.088l-8.448-9.216a218.496 218.496 0 0 0-39.296-31.488l-7.744-4.992H196.46577778c-26.816 0-40.256-2.304-47.616-8-6.848-5.376-9.344-14.72-9.344-34.56v-163.776c0.128-4.48 1.472-8.96 3.84-12.608l2.688-3.328a22.144 22.144 0 0 1 16-6.592l698.368 1.472a22.592 22.592 0 0 1 22.592 22.528v162.432c0 34.88-4.864 42.24-56.192 42.24h-145.28l-8 5.12a219.648 219.648 0 0 0-39.296 31.68c-41.6 43.008-45.952 84.928-44.8 106.176-0.576 15.616 4.672 32.832 17.28 56.32l5.76 10.432c4.48 7.744 9.216 15.36 14.208 22.848 7.04 10.688 14.464 21.12 22.144 31.424l11.84 15.232c27.136 32.512 42.048 73.6 42.112 115.968 0 99.648-80.448 181.504-183.104 186.432z"  horiz-adv-x="1024" />

    
    <glyph glyph-name="code-color" unicode="&#59202;" d="M959.86926346 870.16020743a68.67745958 68.67745958 0 0 0 68.67745959-68.67745957v-824.12951689a68.67745958 68.67745958 0 0 0-68.67745959-68.67745956h-824.12951593a68.67745958 68.67745958 0 0 0-68.67746051 68.67745956V801.48274786a68.67745958 68.67745958 0 0 0 68.67746051 68.67745957h824.12951593z m-13.73549154-82.41295205H149.47523907v-796.65853193h796.65853285V787.74725538zM320.13872647 510.83973779l38.80276447-38.87144207a13.73549154 13.73549154 0 0 0 0-19.36704297l-53.43106379-53.43106379a13.73549154 13.73549154 0 0 1 0-19.4357215l53.43106379-53.49974139a13.73549154 13.73549154 0 0 0 0-19.36704296l-38.80276447-38.87144207a13.73549154 13.73549154 0 0 0-19.4357215 0L188.96477854 379.73446746a13.73549154 13.73549154 0 0 0 0 19.36704391l111.73822643 111.73822642a13.73549154 13.73549154 0 0 0 19.4357215 0zM744.4280722 267.99624104l-38.80276448 38.87144207a13.73549154 13.73549154 0 0 0 0 19.36704296l53.4310638 53.4310638a13.73549154 13.73549154 0 0 1 0 19.4357215l-53.4310638 53.49974138a13.73549154 13.73549154 0 0 0 0 19.36704297l38.80276448 38.87144207a13.73549154 13.73549154 0 0 0 19.4357215 0l111.73822735-111.73822642a13.73549154 13.73549154 0 0 0 0-19.36704391l-111.73822735-111.73822642a13.73549154 13.73549154 0 0 0-19.4357215 0zM575.27548904 519.35574347l49.10438384-24.51785311a13.73549154 13.73549154 0 0 0 6.18097123-18.47423708l-122.93265262-246.20869323a13.73549154 13.73549154 0 0 0-18.40555947-6.18097122L439.98089395 248.62919712999997a13.73549154 13.73549154 0 0 0-6.18097126 18.40555946l122.93265264 246.20869231a13.73549154 13.73549154 0 0 0 18.40555946 6.18097216z"  horiz-adv-x="1097" />

    
    <glyph glyph-name="seal-color" unicode="&#59225;" d="M517.05259762 830.68178383a444.33705215 444.33705215 0 0 0 443.59401361-469.97188209l2.41487528-6.37774754-2.91023431-1.11455782A444.39897204 444.39897204 0 1 0 517.05259762 830.68178383z m378.08278156-501.98445957L271.3545175 93.27794406999999a382.47909297 382.47909297 0 0 1 623.84278156 235.41938019z m-72.69393802 287.92743765L135.74998236 357.24238850999996A380.55957672 380.55957672 0 0 1 215.13126732 151.48263039000005L898.78865205 409.62660621a380.49765684 380.49765684 0 0 1-76.34721089 206.9981557zM517.05259762 768.76190477a382.47909297 382.47909297 0 0 1-378.94965985-331.02367347L767.51850844 675.2628873799999A380.93109599 380.93109599 0 0 1 517.05259762 768.76190477zM424.66813806 394.33239607l26.13018896-69.53602419-188.97947089-71.08402116-26.13018896 69.53602419 188.97947089 71.08402116z m218.51525321 83.28223734l26.13018897-69.53602419-188.9794709-71.08402116-26.13018896 69.59794407 188.97947089 71.02210128z m129.28870749 46.93526833l25.75866969-69.65986395-101.11516251-37.33768707-25.75866969 69.65986395 101.11516251 37.33768707z"  horiz-adv-x="1024" />

    
    <glyph glyph-name="administrate-color" unicode="&#58946;" d="M940.544 832c10.752 0 19.456-8.704 19.456-19.456v-857.088a19.456 19.456 0 0 0-19.456-19.456H83.456A19.456 19.456 0 0 0 64-44.54399999999998V812.544C64 823.296 72.704 832 83.456 832h857.088z m-48.704-68.16H132.16v-759.68h759.68V763.84zM687.296 384c41.792 0 77.44-26.368 91.264-63.36h45.12a34.112 34.112 0 0 0 2.752-68.032l-2.752-0.064h-45.12a97.408 97.408 0 0 0-182.528 0H200.32a34.112 34.112 0 0 0-2.752 68.032l2.752 0.128h395.712c13.824 36.928 49.472 63.296 91.264 63.296z m0-58.432a38.976 38.976 0 1 1 0-77.888 38.976 38.976 0 0 1 0 77.888zM278.272 539.136a34.112 34.112 0 0 0 2.816-68.096l-2.816-0.064H200.32a34.112 34.112 0 0 0-2.752 68.032l2.752 0.128h77.952z m545.408 0a34.112 34.112 0 0 0 2.752-68.096l-2.752-0.064H434.112a34.112 34.112 0 0 0-2.816 68.032l2.816 0.128h389.568zM356.16 612.1600000000001a97.408 97.408 0 1 0 0-194.752 97.408 97.408 0 0 0 0 194.752z m0-58.432a38.976 38.976 0 1 1 0-77.888 38.976 38.976 0 0 1 0 77.888z"  horiz-adv-x="1024" />

    
    <glyph glyph-name="unordered-list" unicode="&#59380;" d="M912 704H328c-4.4 0-8-3.6-8-8v-56c0-4.4 3.6-8 8-8h584c4.4 0 8 3.6 8 8v56c0 4.4-3.6 8-8 8zM912 420H328c-4.4 0-8-3.6-8-8v-56c0-4.4 3.6-8 8-8h584c4.4 0 8 3.6 8 8v56c0 4.4-3.6 8-8 8zM912 136H328c-4.4 0-8-3.6-8-8v-56c0-4.4 3.6-8 8-8h584c4.4 0 8 3.6 8 8v56c0 4.4-3.6 8-8 8zM160 668m-56 0a56 56 0 1 1 112 0 56 56 0 1 1-112 0ZM160 384m-56 0a56 56 0 1 1 112 0 56 56 0 1 1-112 0ZM160 100m-56 0a56 56 0 1 1 112 0 56 56 0 1 1-112 0Z"  horiz-adv-x="1024" />

    
    <glyph glyph-name="puzzle" unicode="&#58938;" d="M448 832a128 128 0 0 0 128-128h128a128 128 0 0 0 128-128v-160h32a128 128 0 1 0 0-256h-32v-96a128 128 0 0 0-128-128H526.208v51.392a64 64 0 0 1-56.512 63.552l-7.424 0.448a64 64 0 0 1-63.616-56.576l-0.384-7.424-0.064-51.392H192A128 128 0 0 0 64 64V224h32a64 64 0 0 1 63.552 56.512L160 288a64 64 0 0 1-56.512 63.552L96 352H64V576a128 128 0 0 0 128 128h128A128 128 0 0 0 448 832z m0-64a64 64 0 0 1-63.552-56.512L384 704v-64H192a64 64 0 0 1-63.552-56.512L128 576v-164.096l2.56-0.64c51.136-14.336 88.768-59.584 92.928-116.224l0.384-10.752-0.704-11.136a128 128 0 0 0-87.744-106.944L128 164.15999999999997V64a64 64 0 0 1 56.512-63.552L192 0h142.976l0.128 2.24c7.04 60.864 56.384 107.968 120.064 112.64l10.752 0.384 11.2-0.768a128 128 0 0 0 111.552-107.008l0.768-7.488H704a64 64 0 0 1 63.552 56.512L768 64V224h96a64 64 0 0 1 7.488 127.552L864 352h-96V576a64 64 0 0 1-56.512 63.552L704 640H512v64a64 64 0 0 1-64 64z"  horiz-adv-x="1024" />

    
    <glyph glyph-name="daxiaoxie" unicode="&#58945;" d="M604.869 114.612c-6.694 6.582-12.938 18.675-18.732 36.338L401.694 725.375h-78.019L141.706 150.95a110.081 110.081 0 0 0-18.393-36.337c-10.857-17.663-24.132-26.494-39.882-26.494H63.688v-33.3h171.956v33.3h-18.731a28.8 28.8 0 0 0-15.413 5.962c-5.906 3.994-9.169 8.1-9.9 12.375a59.006 59.006 0 0 0-3.094 10.857c0 1.8 2.419 12.6 7.257 32.287l36.73 108.338h173.363L442.925 137c1.856-7.65 2.756-13.275 2.756-16.65 0-9.112-3.375-16.087-10.068-21.037-8.775-7.482-20.082-11.25-33.975-11.25h-14.175v-33.3H662.75v33.3H641.6c-13.894 0-26.156 8.887-36.731 26.55zM246.725 309.575l72.45 219.769 71.044-219.769H246.725z m698.625-164.7c0-3.431-2.194-8.55-6.638-15.244a20.137 20.137 0 0 0-17.662-10.068c-9.956 0-14.963 10.18-14.963 30.543V324.931c0 34.819-9.056 62.663-27.225 83.419-18.112 20.756-46.237 31.162-84.318 31.162-31.219 0-57.713-5.287-79.538-15.806-21.825-10.519-35.381-33.187-40.781-68.006 0-18.281 2.869-32.456 8.606-42.525s12.881-15.975 21.544-17.719c29.081 0 45.112 11.982 48.038 35.944 0 8.775-0.507 16.988-1.463 24.581s-1.462 13.894-1.462 18.9c2.587 12.6 16.03 18.9 40.162 18.9 13.05-0.844 21.713-7.087 25.875-18.619s6.244-27.168 6.244-46.8v-32.85c-16.144 0-40.219-4.893-72.169-14.737s-56.081-29.306-72.394-58.444a133.256 133.256 0 0 1-12.993-60.525c0-23.962 4.893-45.393 14.68-64.293 9.788-18.9 24.582-30.657 44.326-35.325 43.594 0 76.444 18.787 98.494 56.418 1.8-8.943 8.268-20.193 19.35-33.75s30.712-20.306 58.837-20.306c26.606 3.431 46.744 22.5 60.3 57.15l-14.85 23.175z m-123.469 28.744c0-9.844-3.993-20.25-11.981-31.275s-17.1-16.538-27.225-16.538a27.056 27.056 0 0 0-18.113 7.481c-8.662 7.257-12.993 18.9-12.993 34.932 0 15.693 3.994 31.556 11.981 47.587 8.831 15.525 19.463 26.269 32.006 32.344 12.488 6.019 21.263 9.056 26.325 9.056v-83.587z"  horiz-adv-x="1024" />

    
    <glyph glyph-name="close" unicode="&#58944;" d="M563.8 384l262.5 312.9c4.4 5.2 0.7 13.1-6.1 13.1h-79.8c-4.7 0-9.2-2.1-12.3-5.7L511.6 446.2 295.1 704.3c-3 3.6-7.5 5.7-12.3 5.7H203c-6.8 0-10.5-7.9-6.1-13.1L459.4 384 196.9 71.1A7.95 7.95 0 0 1 203 58h79.8c4.7 0 9.2 2.1 12.3 5.7l216.5 258.1 216.5-258.1c3-3.6 7.5-5.7 12.3-5.7h79.8c6.8 0 10.5 7.9 6.1 13.1L563.8 384z"  horiz-adv-x="1024" />

    
    <glyph glyph-name="fullscreen" unicode="&#58932;" d="M290 659.6l43.9 43.9a8.01 8.01 0 0 1-4.7 13.6L169 736c-5.1 0.6-9.5-3.7-8.9-8.9L179 566.9c0.8-6.6 8.9-9.4 13.6-4.7l43.7 43.7L370 472.3c3.1-3.1 8.2-3.1 11.3 0l42.4 42.3c3.1 3.1 3.1 8.2 0 11.3L290 659.6z m352.7-187.3c3.1-3.1 8.2-3.1 11.3 0l133.7 133.6 43.7-43.7a8.01 8.01 0 0 1 13.6 4.7L863.9 727c0.6 5.1-3.7 9.5-8.9 8.9L694.8 717c-6.6-0.8-9.4-8.9-4.7-13.6l43.9-43.9L600.3 526a8.03 8.03 0 0 1 0-11.3l42.4-42.4zM845 201.1c-0.8 6.6-8.9 9.4-13.6 4.7l-43.7-43.7L654 295.7a8.03 8.03 0 0 1-11.3 0l-42.4-42.3a8.03 8.03 0 0 1 0-11.3L734 108.4l-43.9-43.9a8.01 8.01 0 0 1 4.7-13.6L855 32c5.1-0.6 9.5 3.7 8.9 8.9L845 201.1z m-463.7 94.6a8.03 8.03 0 0 1-11.3 0L236.3 162.1l-43.7 43.7a8.01 8.01 0 0 1-13.6-4.7L160.1 41c-0.6-5.1 3.7-9.5 8.9-8.9L329.2 51c6.6 0.8 9.4 8.9 4.7 13.6L290 108.4 423.7 242c3.1 3.1 3.1 8.2 0 11.3l-42.4 42.4z"  horiz-adv-x="1024" />

    
    <glyph glyph-name="fullscreen-exit" unicode="&#58933;" d="M391 655.1c-0.8 6.6-8.9 9.4-13.6 4.7l-43.7-43.7L200 749.7a8.03 8.03 0 0 1-11.3 0l-42.4-42.3a8.03 8.03 0 0 1 0-11.3L280 562.4l-43.9-43.9a8.01 8.01 0 0 1 4.7-13.6L401 486c5.1-0.6 9.5 3.7 8.9 8.9L391 655.1z m10.1-373.2L240.8 263c-6.6-0.8-9.4-8.9-4.7-13.6l43.9-43.9L146.3 72a8.03 8.03 0 0 1 0-11.3l42.4-42.3c3.1-3.1 8.2-3.1 11.3 0L333.7 152l43.7-43.7A8.01 8.01 0 0 1 391 113l18.9 160.1c0.6 5.1-3.7 9.4-8.8 8.8z m221.8 204.2L783.2 505c6.6 0.8 9.4 8.9 4.7 13.6L744 562.4 877.7 696c3.1 3.1 3.1 8.2 0 11.3l-42.4 42.3a8.03 8.03 0 0 1-11.3 0L690.3 616.1l-43.7 43.7a8.01 8.01 0 0 1-13.6-4.7L614.1 495c-0.6-5.2 3.7-9.5 8.8-8.9zM744 205.6l43.9 43.9a8.01 8.01 0 0 1-4.7 13.6L623 282c-5.1 0.6-9.5-3.7-8.9-8.9L633 112.9c0.8-6.6 8.9-9.4 13.6-4.7l43.7 43.7L824 18.3c3.1-3.1 8.2-3.1 11.3 0l42.4 42.3c3.1 3.1 3.1 8.2 0 11.3L744 205.6z"  horiz-adv-x="1024" />

    
    <glyph glyph-name="menu-unfold" unicode="&#58911;" d="M408 454h480c4.4 0 8 3.6 8 8v56c0 4.4-3.6 8-8 8H408c-4.4 0-8-3.6-8-8v-56c0-4.4 3.6-8 8-8z m-8-204c0-4.4 3.6-8 8-8h480c4.4 0 8 3.6 8 8v56c0 4.4-3.6 8-8 8H408c-4.4 0-8-3.6-8-8v-56z m504 486H120c-4.4 0-8-3.6-8-8v-56c0-4.4 3.6-8 8-8h784c4.4 0 8 3.6 8 8v56c0 4.4-3.6 8-8 8z m0-632H120c-4.4 0-8-3.6-8-8v-56c0-4.4 3.6-8 8-8h784c4.4 0 8 3.6 8 8v56c0 4.4-3.6 8-8 8zM142.4 253.9L298.7 377a8.84 8.84 0 0 1 0 13.9L142.4 514.1c-5.8 4.6-14.4 0.5-14.4-6.9v-246.3a8.9 8.9 0 0 1 14.4-7z"  horiz-adv-x="1024" />

    
    <glyph glyph-name="check1" unicode="&#58912;" d="M912 706h-69.9c-9.8 0-19.1-4.5-25.1-12.2L404.7 171.5 207 422a32 32 0 0 1-25.1 12.2H112c-6.7 0-10.4-7.7-6.3-12.9l273.9-347c12.8-16.2 37.4-16.2 50.3 0l488.4 618.9c4.1 5.1 0.4 12.8-6.3 12.8z"  horiz-adv-x="1024" />

    
    <glyph glyph-name="menu-fold" unicode="&#58913;" d="M408 454h480c4.4 0 8 3.6 8 8v56c0 4.4-3.6 8-8 8H408c-4.4 0-8-3.6-8-8v-56c0-4.4 3.6-8 8-8z m-8-204c0-4.4 3.6-8 8-8h480c4.4 0 8 3.6 8 8v56c0 4.4-3.6 8-8 8H408c-4.4 0-8-3.6-8-8v-56z m504 486H120c-4.4 0-8-3.6-8-8v-56c0-4.4 3.6-8 8-8h784c4.4 0 8 3.6 8 8v56c0 4.4-3.6 8-8 8z m0-632H120c-4.4 0-8-3.6-8-8v-56c0-4.4 3.6-8 8-8h784c4.4 0 8 3.6 8 8v56c0 4.4-3.6 8-8 8zM115.4 377.1L271.7 254c5.8-4.6 14.4-0.5 14.4 6.9V507.1c0 7.4-8.5 11.5-14.4 6.9L115.4 390.9a8.74 8.74 0 0 1 0-13.8z"  horiz-adv-x="1024" />

    
    <glyph glyph-name="more" unicode="&#58925;" d="M456 665a56 56 0 1 1 112 0 56 56 0 1 1-112 0z m0-280a56 56 0 1 1 112 0 56 56 0 1 1-112 0z m0-280a56 56 0 1 1 112 0 56 56 0 1 1-112 0z"  horiz-adv-x="1024" />

    
    <glyph glyph-name="caret-down" unicode="&#58929;" d="M840.4 596H183.6c-19.7 0-30.7-20.8-18.5-35l328.4-380.8c9.4-10.9 27.5-10.9 37 0L858.9 561c12.2 14.2 1.2 35-18.5 35z"  horiz-adv-x="1024" />

    
    <glyph glyph-name="system" unicode="&#58948;" d="M271.958852 831.99842c-115.276539 0-208.874831-93.670541-208.874831-208.950693C63.084021 507.662816 156.628127 414.100647 272.016651 414.100647h144.894925c35.347715 0 63.918494 28.762239 63.918495 64.106342V623.105526c-0.01445 115.36685-93.500757 208.892893-208.871219 208.892894zM416.875452 478.206989v-0.025288a0.932009 0.932009 0 0 0 0.043349-0.144497H272.016651a145.241719 145.241719 0 1 0 144.858801 145.06471v-144.894925zM416.897127 353.772917H272.016651c-115.370462 0-208.896506-93.515206-208.896506-208.885668 0-115.276539 93.562168-208.892893 208.856769-208.892893 115.370462 0 208.856769 93.529656 208.856769 208.900118v144.894925c-0.018062 35.351327-28.592454 63.983518-63.936556 63.983518z m-0.021675-208.874831a144.721528 144.721528 0 0 0-88.483079-133.504905C310.564987 3.854020999999989 291.59607 0.11514599999998154 272.016651 0.11514599999998154c-19.564969 0-38.519436 3.738874-56.354047 11.28526A144.880476 144.880476 0 0 0 272.016651 289.83274800000004h144.920212a0.093923 0.093923 0 0 1-0.043349 0v-144.920212zM751.101914 353.772917h-144.894925A63.965456 63.965456 0 0 1 542.227083 289.793011v-144.894925c0-115.370462 93.515206-208.896506 208.885668-208.896506 115.276539 0 208.892893 93.60913 208.892893 208.885669-0.003612 115.370462-93.533269 208.885668-208.90373 208.885668zM884.686293 88.55126399999995a144.927437 144.927437 0 0 0-278.519041 56.354047V289.83274800000004h144.920212A144.996074 144.996074 0 0 0 884.686293 88.55126399999995zM606.206989 414.100647h144.894925c115.370462 0 208.896506 93.562168 208.896506 208.950693 0 115.276539-93.60913 208.921793-208.885669 208.921792-115.370462 0-208.885668-93.497144-208.885668-208.867606v-144.894925c0-35.347715 28.632191-64.109954 63.979906-64.109954z m-0.039737 209.004879A144.949112 144.949112 0 1 0 751.101914 478.040816H606.167252a0.520191 0.520191 0 0 0 0 0.144498V623.105526z"  horiz-adv-x="1024" />

    
    <glyph glyph-name="entry" unicode="&#59158;" d="M906.979 160.53c8.257-18.198 0.202-39.618-17.834-47.803l-347.13-158.454a68.008 68.008 0 0 0-27.567-6.741l-2.043-0.032a70.507 70.507 0 0 0-30.726 7.079l-363.55 157.738c-18.23 7.884-26.694 29.214-18.734 47.502 7.857 18.288 29.106 26.78 47.34 18.792L511.496 20.36l347.832 158.053c18.032 8.289 39.389 0.306 47.65-17.887zM876.5 379.5l-0.103-74.934c0.026-13.95-8.177-26.564-20.854-32.072L551.564 140.659A85.23 85.23 0 0 0 514.097 132a85.234 85.234 0 0 0-37.467 8.658L172.952 272.085c-12.699 5.499-20.939 18.108-20.952 32.072v74.925l362.101-158.814L876.486 379.5h0.014zM545.345 808.611l375.332-178.569c25.888-12.33 41.706-37.188 41.314-64.881-0.418-27.787-16.938-52.245-43.231-63.868l-375.327-166.23a77.301 77.301 0 0 0-31.23-6.575 77.24 77.24 0 0 0-31.226 6.57l-375.75 166.136c-26.276 11.618-42.899 36.18-43.214 63.967-0.391 27.689 15.526 52.65 41.31 64.876L479.06 808.612c20.745 9.801 45.526 9.9 66.285 0z m-35.361-65.286L137.069 566.079l372.915-164.93c1.305-0.612 3.024-0.612 4.333 0l372.51 164.817L514.52 743.326a5.872 5.872 0 0 1-4.532 0z"  horiz-adv-x="1024" />

    
    <glyph glyph-name="permission" unicode="&#59330;" d="M866.9 726.1L527.1 841.9C523 843.3 517.5 844 512 844s-11-0.7-15.1-2.1L157.1 726.1c-8.3-2.8-15.1-12.4-15.1-21.2v-482.4c0-8.8 5.7-20.4 12.6-25.9L499.3-72c3.5-2.7 8-4.1 12.6-4.1s9.2 1.4 12.6 4.1l344.7 268.6c6.9 5.4 12.6 17 12.6 25.9V704.9c0.2 8.8-6.6 18.3-14.9 21.2zM810 241.70000000000005L512 9.5 214 241.70000000000005V669.3l298 101.6 298-101.6v-427.6zM404.2 442.7c-3 4.1-7.8 6.6-13 6.6H336c-6.5 0-10.3-7.4-6.5-12.7l126.4-174c6.4-8.8 19.6-8.8 26 0l212.6 292.7c3.8 5.3 0 12.7-6.5 12.7h-55.2c-5.1 0-10-2.5-13-6.6L468.9 353.6l-64.7 89.1z"  horiz-adv-x="1024" />

    
    <glyph glyph-name="graph" unicode="&#59157;" d="M902.272 196.94933332999994a115.136 115.136 0 0 1-134.016-13.248l-54.976 31.808V372.88533333a45.632 45.632 0 0 1-22.784 39.488L549.44 493.58933333v69.568a116.16 116.16 0 1 1-74.688 0v-69.568l-140.992-81.28a45.632 45.632 0 0 1-22.848-39.424v-157.248L256 183.82933333000005a115.2 115.2 0 0 1-133.952 13.248 116.352 116.352 0 0 1-42.496-158.592 115.328 115.328 0 0 1 157.824-42.496 116.16 116.16 0 0 1 55.552 123.2l50.56 29.376L489.28 64.53333333a45.888 45.888 0 0 1 45.632 0l145.664 83.904 50.56-29.376c-9.472-47.36 11.52-97.664 55.552-123.2a115.2 115.2 0 0 1 157.824 42.56c32 55.552 13.056 126.528-42.24 158.528zM204.288 53.46133333a49.344 49.344 0 0 0-67.584 18.24 49.792 49.792 0 0 0 18.176 67.904 49.344 49.344 0 0 0 67.584-18.24 49.792 49.792 0 0 0-18.176-67.904z m257.92 619.712a49.792 49.792 0 1 0 99.584 0 49.792 49.792 0 0 0-99.584 0z m176.32-462.72L512 137.49333333000004l-126.528 72.96v145.6L512 429.01333333l126.528-72.96v-145.6z m248.768-138.88A49.472 49.472 0 0 0 819.712 53.33333332999996a49.92 49.92 0 0 0-18.176 67.904 49.472 49.472 0 0 0 67.648 18.304 49.728 49.728 0 0 0 18.112-67.968z"  horiz-adv-x="1024" />

    
    <glyph glyph-name="guanjia" unicode="&#59155;" d="M647.246 768.923a7.668 7.668 0 0 0 5.054-2.169 5.933 5.933 0 0 0 1.898-4.761v-87.637a5.922 5.922 0 0 0-1.876-4.761 7.668 7.668 0 0 0-5.055-2.17 6.378 6.378 0 0 0-3.253 1.02l-65.728 37.961-20.401 11.78 20.39 11.767 65.728 37.962a6.356 6.356 0 0 0 3.254 1.02m-270.286-0.012a6.378 6.378 0 0 0 3.308-1.02l65.728-37.96 20.401-11.78-20.401-11.778-65.728-37.962a6.378 6.378 0 0 0-3.308-1.02 7.69 7.69 0 0 0-5.054 2.17 5.933 5.933 0 0 0-1.876 4.761v87.659a5.922 5.922 0 0 0 1.876 4.761 7.69 7.69 0 0 0 5.054 2.17m135.143-42.409l7.592-8.34-7.592-8.341-7.592 8.34 7.592 8.341M647.246 834a71.28 71.28 0 0 1-35.793-9.762l-65.716-37.96a37.007 37.007 0 0 1-27.397 12.158h-12.408a36.985 36.985 0 0 1-27.387-12.159l-65.727 37.961A71.292 71.292 0 0 1 376.97 834c-37.549 0-72.018-30.033-72.018-72.007v-87.637c0-41.974 34.458-72.007 72.007-72.007a71.292 71.292 0 0 1 35.847 9.761l65.727 37.962a36.985 36.985 0 0 1 27.387-12.159h12.353a37.007 37.007 0 0 1 27.463 12.126l65.727-37.961a71.39 71.39 0 0 1 35.793-9.762c37.56 0 72.007 30.033 72.007 72.007v87.67C719.274 803.967 684.806 834 647.246 834zM837.877 553.845l59.274-34.708v-471.48c0-12.224-5.282-25.283-14.1-34.936-4.664-5.098-14.436-13.633-27.408-13.633H168.617c-13.015 0-22.777 8.535-27.419 13.633-8.84 9.653-14.1 22.712-14.1 34.935v471.46l59.264 34.707 245.122-354.668a98.049 98.049 0 0 1 161.347 0l245.122 354.668m-13.666 80.478a18.688 18.688 0 0 1-15.402-8.08L539.23 236.129a32.972 32.972 0 0 0-54.23 0l-269.58 390.114a18.688 18.688 0 0 1-24.85 5.51L71.264 561.837A18.72 18.72 0 0 1 62 545.7v-498.043C62-11.238 109.723-66 168.617-66H855.61c58.895 0 106.618 54.762 106.618 113.656V545.7a18.72 18.72 0 0 1-9.252 16.14l-119.307 69.913a18.644 18.644 0 0 1-9.436 2.571zM750.219 345.968h86.769q32.538 0 32.538-32.538 0-32.539-32.538-32.539h-86.77q-32.538 0-32.538 32.539 0 32.538 32.539 32.538z"  horiz-adv-x="1024" />

    
    <glyph glyph-name="case" unicode="&#59154;" d="M873.10933332 317.67466665999996a64 64 0 0 0 23.424-87.424l-32-55.424a64 64 0 0 0-87.424-23.424l-277.12 160a64 64 0 0 0-23.488 87.424l32 55.424a64 64 0 0 0 87.424 23.424l277.12-160z m-32-55.424l-277.12 160-32-55.424 277.12-160 32 55.424zM767.06133332-4.501333339999974a32 32 0 0 0 5.76-63.488l-5.76-0.512h-640a32 32 0 0 0-5.76 63.488l5.76 0.512h640zM406.48533332 661.22666666l221.696-128-160-277.12-221.696 128 160 277.12z m23.36-87.488L333.84533332 407.46666666l110.848-64 96 166.272-110.848 64zM415.06133332 804.07466666a64 64 0 0 0 87.424 23.424l221.696-128a64 64 0 0 0 23.424-87.424l-64-110.848a64 64 0 0 0-87.424-23.424l-221.696 128a64 64 0 0 0-23.424 87.424l64 110.848z m-224-387.968A64 64 0 0 0 278.48533332 439.46666666l221.696-128a64 64 0 0 0 23.424-87.424l-64-110.848a64 64 0 0 0-87.424-23.424l-221.696 128a64 64 0 0 0-23.424 87.424l64 110.848z m279.424 355.968l-64-110.848 221.696-128 64 110.848-221.696 128z m-224-387.968l-64-110.848 221.696-128 64 110.848-221.696 128z"  horiz-adv-x="1053" />

    
    <glyph glyph-name="celve1" unicode="&#59153;" d="M276.68431038 272.13390939L111.03243094 367.67843911a84.68719679 84.68719679 0 0 0-31.02095122 115.55304325l41.25786511 71.42574015a84.53209205 84.53209205 0 0 0 67.54812125 42.26604603l284.15191307 17.37173269-197.29324968-341.6182252 1.00818091-0.54286664zM157.87406725 442.20627439l85.61782535-49.47841719 71.42574015 123.77359533-118.65513837-7.7552378-38.38842713-66.53994034z m628.94978577-464.53874435L621.09442117 73.13450737999995l196.67283066 340.68759665 127.0307952-254.7595618c13.18390426-25.43717999 11.47775195-54.82953126-2.7918856-79.56873984l-41.25786512-71.3481878c-21.55956109-39.62926517-74.06252101-53.74379797-114.00199568-30.6331893z m-45.6007983 127.72876661l85.69537773-49.47841718 38.4659795 66.69504509-52.73561707 106.47941503-71.34818777-123.69604294zM590.07346996 414.83028495a125.2470905 125.2470905 0 0 0-45.91100779 171.08054591 125.9450619 125.9450619 0 0 0 171.1580983 45.83345542c58.93980729-34.04549395 80.49936838-111.13255769 45.8334554-171.08054592a125.2470905 125.2470905 0 0 0-171.08054591-45.91100778z m81.27489217 140.83511848a37.7680081 37.7680081 0 0 1-51.02946473-13.72677091 37.07003669 37.07003669 0 0 1 13.64921853-51.02946473 37.07003669 37.07003669 0 0 1 51.10701712 13.64921853 37.07003669 37.07003669 0 0 1-13.72677092 51.10701711z m-365.73701474-631.43146185a44.04975071 44.04975071 0 0 0-16.13089463 60.10309297l87.94439668 152.23531805a44.04975071 44.04975071 0 0 0 60.02554059 16.13089463c20.93914206-12.09817097 28.15151322-39.1639509 16.05334225-60.10309297l-87.8668443-152.23531805a44.04975071 44.04975071 0 0 0-60.02554059-16.13089463zM190.67872316 70.49772654000003a44.04975071 44.04975071 0 0 0-16.13089463 60.02554058l35.67409389 61.88679766a44.04975071 44.04975071 0 0 0 60.10309297 16.05334225c20.93914206-12.09817097 28.15151322-39.08639852 16.05334224-60.02554059l-35.67409389-61.88679766a44.04975071 44.04975071 0 0 0-60.10309296-16.05334224z m379.38623328-35.13122726c20.93914206-12.02061859 28.15151322-39.08639852 16.13089464-60.02554059l-35.67409391-61.88679765a44.04975071 44.04975071 0 0 0-60.10309297-16.05334224 44.04975071 44.04975071 0 0 0-16.13089463 60.02554058l35.67409389 61.88679765a44.04975071 44.04975071 0 0 0 60.10309298 16.05334225z m314.94020714 785.14027508c31.25360834-86.54845387 91.89956795-306.87475984-8.1429997-480.04921994l-179.6113075-311.21769299-496.80053359 286.78869392L380.21673505 627.32380072c100.04256764 173.2520125 321.066845 230.87342937 410.6398416 247.62474302 40.79255084 6.97971402 79.87894935-15.58802799 94.22613931-54.36421699z m-81.19733979-33.03731301c-79.7238446-14.96760895-267.71080894-63.74805473-348.52038681-203.57499232l-135.71666154-235.13881016L666.07480043 148.82562835l135.71666154 234.98370539c80.73202552 139.98204233 29.93521792 326.65061622 2.09391421 403.66012761z"  horiz-adv-x="1030" />

    
    <glyph glyph-name="shoucang" unicode="&#59053;" d="M156.44444434-66h492.44444472a33.33333339 33.33333339 0 0 1 33.3333334 33.33333339V573.38888877a33.33333339 33.33333339 0 0 1-33.3333334 33.3333334H156.44444434a33.33333339 33.33333339 0 0 1-33.3333334-33.3333334V-32.666666599999985a33.33333339 33.33333339 0 0 1 33.33333339-33.3333334m34.83333369 604.55555596l424.27777764 1.49999941V0.66666680000003H191.27777802V538.55555596m537.94444395 115.1666666v-572.77777852a33.33333339 33.33333339 0 0 1 66.6666668 0V687.11111075a33.33333339 33.33333339 0 0 1-33.3333334 33.33333339H270.05555586a33.33333339 33.33333339 0 1 1 0-66.6666668h459.11111045M842.83333349 767.3333332v-572.72222197a33.33333339 33.33333339 0 0 1 66.6666668 0V800.6666666a33.33333339 33.33333339 0 0 1-33.33333339 33.3333334H383.66666651a33.33333339 33.33333339 0 1 1 0-66.6666668h459.11111132"  horiz-adv-x="1024" />

    
    <glyph glyph-name="deal-type" unicode="&#59152;" d="M589.632 619.136l29.504-56.768-237.376-123.392-29.504 56.832zM654.144 437.888l33.216-54.72-417.664-253.312-33.152 54.72zM723.328 241.664a32 32 0 0 0 39.104-50.304l-4.544-3.584-371.584-238.08A32 32 0 0 0 347.2 0l4.48 3.52 371.648 238.144zM64 0m32 0l832 0q32 0 32-32l0 0q0-32-32-32l-832 0q-32 0-32 32l0 0q0 32 32 32ZM535.744 783.104a64 64 0 0 0 35.648-35.648L896-64H128L452.608 747.456a64 64 0 0 0 83.2 35.648zM801.472 0L512 723.648 222.464 0h579.008z"  horiz-adv-x="1024" />

    
    <glyph glyph-name="pm" unicode="&#58890;" d="M943.68281503 219.67786992000003c-2.24861661 1.34917031-14.84087168-2.24861661-28.33257216-1.79889346-12.14253105 0.44972315-27.43312588 7.19557383-30.1314665 11.24308389s-15.74031797 17.53921143-14.8408708 32.82980625c1.34917031 17.53921143 20.23755205 31.48063594 13.94142451 41.82427442-8.99446729 15.74031797-20.23755205 20.23755205-31.48063682 27.43312588-5.39668037 3.14806377-16.19004112 4.04751006-27.88284902-3.14806377-5.84640352-3.59778691-9.44419131-16.63976513-15.74031797-21.13699922-11.24308477-8.54474414-24.73478526-8.99446729-31.48063682-8.09502013-3.59778691 0.44972315-15.29059482-1.34917031-23.38561494 9.44419044-11.24308477 14.84087168-9.89391445 44.07289102-31.48063681 44.9723373-16.63976513 0.89944717-40.4751041-4.94695722-47.22095391-19.33810488-4.04751006-8.09502099 0.89944717-20.68727519 0.44972314-30.58118965-0.89944717-12.5922542-7.64529698-22.0364455-14.84087079-29.23201933-5.39668037-5.84640352-13.49170136-13.49170136-22.93589268-12.14253106-17.53921143 2.24861661-38.22648662 22.9358918-52.61763516 13.04197822-10.79336074-7.19557383-26.98340273-26.53367872-21.13699833-50.36901855 1.79889346-7.64529698 15.29059482-11.69280791 21.13699833-19.78782803 8.09502099-11.24308477 9.89391445-27.43312588 8.095021-36.42759316-0.89944717-4.49723408 0.44972315-14.39114766-8.99446729-22.03644551-14.84087168-12.14253105-25.63423242-4.04751006-36.42759316-17.53921142-9.89391445-12.5922542-4.49723408-25.18450927-4.04751094-38.2264875 0.89944717-10.79336074 10.3436376-22.9358918 16.19004199-24.73478526 7.64529698-2.24861661 21.58672237 3.59778691 33.2795294 2.69833974 14.39114766-1.34917031 26.53367872-9.89391445 29.23201934-15.29059482 3.14806377-6.74585068 11.69280791-16.19004112 11.24308476-23.83533809 0-14.84087168-17.08948828-22.9358918-16.63976514-37.32704032 0.44972315-13.94142451 17.08948828-31.48063594 37.77676348-38.67621065 21.13699834-7.19557383 28.33257305 32.3800831 59.81320899 34.17897656 8.99446729 0.44972315 24.73478526-0.89944717 29.68174247-4.94695722 16.19004112-13.04197822 7.64529698-40.02538008 29.68174336-46.77123077 23.38561582-7.64529698 48.57012422 9.89391445 52.16791114 14.84087169 4.04751006 5.39668037-18.88838174 40.02538008 19.33810488 64.76016533 2.69834062 1.79889346 11.69280791 12.5922542 23.83533896 10.79336162 17.98893457-2.24861661 32.82980625-20.68727519 44.97233819-13.49170137 20.23755205 12.5922542 26.98340273 31.93035996 26.08395556 49.46957139 0 1.79889346-14.84087168 11.24308477-23.38561581 23.38561494-8.09502099 11.69280791-9.89391445 25.18450927-8.54474415 31.0309128 1.79889346 4.94695722 2.24861661 22.48616865 10.79336074 26.98340273 15.29059482 8.09502099 38.67621065 10.79336074 40.02538096 27.88284902 0.44972315 11.24308477 0.89944717 17.53921143-2.69834062 27.43312588-3.59778691 11.24308477-4.49723408 15.74031797-13.04197735 20.68727607z m-196.52911435-168.64626621c-52.16791114 3.14806377-92.19329209 47.67067792-89.04522831 100.28831309 3.14806377 52.16791114 47.67067792 92.19329209 100.28831221 89.04522831 52.16791114-3.14806377 92.19329209-47.67067792 89.04522831-100.28831308-3.14806377-52.16791114-47.67067792-92.19329209-100.28831221-89.04522832zM391.87223369 354.14515869H152.16967461c-49.46957138 0-89.94467461-40.4751041-89.94467461-89.94467461v-239.70255908c0-49.46957138 40.02538008-89.94467461 89.94467461-89.94467549h239.70255908c49.46957138 0 89.94467461 40.4751041 89.94467548 89.94467549v239.70255908c0 49.46957138-40.4751041 89.94467461-89.94467548 89.94467461z m29.68174336-299.51576806c0-35.52814687-24.28506211-59.81320898-59.36348584-59.81320899H181.85141797c-35.52814687 0-59.36348584 23.83533896-59.36348584 58.91376269v180.7887964c0 35.52814687 23.83533896 59.36348584 59.36348584 59.36348583h179.43962607c35.52814687 0 60.26293213-23.83533896 60.26293301-59.36348583v-179.8893501zM391.87223369 834H152.16967461C102.25038008 834 62.225 793.5248959 62.225 744.05532539v-239.70255908c0-49.46957138 40.4751041-89.94467461 89.94467461-89.94467549h239.70255908c49.46957138 0 89.94467461 40.4751041 89.94467548 89.94467549V744.05532539C481.81690917 793.5248959 441.79152823 834 391.87223369 834z m29.68174336-299.51576807c0-35.52814687-24.28506211-59.81320898-59.36348584-59.81320898H181.85141797c-35.52814687 0-59.36348584 23.38561582-59.36348584 58.9137627V714.37358203c0 35.52814687 23.83533896 59.36348584 59.36348584 59.36348584h179.43962607c35.52814687 0 60.26293213-23.83533896 60.26293301-59.36348584v-179.8893501zM871.27735185 834h-239.70255908c-49.46957138 0-89.94467461-40.4751041-89.94467461-89.94467461v-239.70255908c0-49.46957138 40.4751041-89.94467461 89.94467461-89.94467548h239.70255908c49.46957138 0 89.94467461 40.4751041 89.94467549 89.94467548V744.05532539c0 49.46957138-40.4751041 89.94467461-89.94467549 89.94467461z m29.68174248-299.51576807c0-35.52814687-24.28506211-59.81320898-59.36348495-59.81320898h-180.33907325c-35.52814687 0-59.36348584 23.38561582-59.36348584 58.9137627V714.37358203c0 35.52814687 23.83533896 59.36348584 59.36348584 59.36348584h179.43962608c35.52814687 0 60.26293213-23.83533896 60.26293212-59.36348584v-179.8893501z"  horiz-adv-x="1024" />

    
    <glyph glyph-name="shoukuan" unicode="&#59392;" d="M898.94138775 41.905116659999976H638.44858453v-57.13140841c0-4.95359033-4.22706374-8.189936-8.05784027-6.93502646l-2.24562761 1.32095742-103.10072663 91.60839707a7.7276009 7.7276009 0 0 0-1.8493404 8.71831898l1.8493404 2.5098191 103.10072663 91.60839708c3.50053716 3.10424994 8.32203175 1.32095742 9.84113278-2.84005846l0.4623351-2.84005845v-57.06536055h260.42675535c0.06604787 0 0.13209575-22.98465911 0.06604787-68.95397732zM834.41261778 835.66843034a33.68441421 33.68441421 0 0 0 33.68441421-33.68441421v-602.75287075c0-4.62335097-3.76472865-8.45412749-8.38807962-8.45412749h-58.9807488a8.45412749 8.45412749 0 0 0-8.45412749 8.45412749V759.71337869H202.26844444v-741.71759134h244.3771227c4.62335097 0 8.45412749-3.83077651 8.45412748-8.45412748v-58.9807488c0-4.62335097-3.76472865-8.45412749-8.38807961-8.45412749H160.06385487a33.68441421 33.68441421 0 0 0-33.68441422 33.68441421V801.98401613A33.68441421 33.68441421 0 0 0 160.06385487 835.66843034zM390.2406853 637.52481734c3.10424994 0 5.87826052-1.78329252 7.26526581-4.55730309L485.01938019 458.79927841h3.43448929L575.76915494 632.90146637A8.12388813 8.12388813 0 0 0 583.10046863 637.52481734h56.27278609a8.25598388 8.25598388 0 0 0 7.26526581-12.08676039l-106.99755102-197.74732578h59.4430839c4.62335097 0 8.25598388-3.69868078 8.25598388-8.25598387v-27.93824943a8.25598388 8.25598388 0 0 0-8.25598388-8.25598388H520.35499117v-40.28920131h78.72906224c4.62335097 0 8.25598388-3.69868078 8.25598388-8.189936v-28.00429731a8.25598388 8.25598388 0 0 0-8.25598388-8.25598388H520.35499117v-65.51948803a8.25598388 8.25598388 0 0 0-8.25598387-8.25598387h-51.51733938a8.25598388 8.25598388 0 0 0-8.18993601 8.25598387v65.3873923H373.92686117a8.25598388 8.25598388 0 0 0-8.25598388 8.32203174v27.93824943c0 4.5573031 3.69868078 8.25598388 8.25598388 8.25598388h78.46487074v40.28920131H373.92686117a8.25598388 8.25598388 0 0 0-8.25598388 8.189936v28.00429731c0 4.5573031 3.69868078 8.25598388 8.25598388 8.25598387h58.78260519L325.57981959 625.37200908a8.189936 8.189936 0 0 0 3.30239355 11.09604233 7.7276009 7.7276009 0 0 0 3.96287226 1.05676593z"  horiz-adv-x="1024" />

    
    <glyph glyph-name="zhibiao" unicode="&#59353;" d="M802.55472295 338.79760107000004c-30.58470791-49.4752623-71.06446758-89.05547197-121.88905576-118.29085488v-54.42278819c-0.449775-17.9910044-6.74662675-33.28335791-18.4407794-44.97751142-11.69415263-11.69415263-26.53673203-17.9910044-44.97751143-18.44077939H406.75262363c-17.9910044 0.449775-33.28335791 6.74662675-44.97751142 18.44077939-11.69415263 11.69415263-17.9910044 26.53673203-18.4407794 44.97751142v54.42278819c-50.82458731 29.23538203-91.75412286 68.81559258-121.88905576 118.29085488-30.58470791 49.4752623-45.87706143 104.79760137-46.77661143 166.41679131 2.24887588 93.10344785 35.08245879 170.46476719 98.95052461 232.53373389C337.03748106 799.36731622 416.64767627 831.75112412 512 834c95.35232373-2.24887588 174.96251894-34.63268378 238.38080977-96.25187373 63.41829082-61.61919082 96.70164961-139.43028516 98.9505246-232.53373388-0.449775-61.16941494-16.1919044-116.94152901-46.77661142-166.41679132z m-37.33133467 64.7676167C779.1664168 435.94902568 786.36281856 469.68215859 786.36281856 505.66416826c0 35.53223378-7.19640176 69.71514258-21.13943028 102.09895049-13.94302852 32.38380791-33.73313378 60.71963994-58.92053994 85.00749609-25.18740615 24.73763115-53.97301318 43.62818555-86.8065961 57.12143907-34.18290878 13.94302852-69.71514258 21.13943028-107.04647724 21.13943027s-73.31334346-7.19640176-107.04647636-21.13943027c-32.83358291-13.49325352-61.61919082-32.38380791-86.80659698-57.12143907-25.18740615-24.73763115-44.97751143-53.07346318-58.92053994-85.00749609-13.94302852-32.38380791-21.13943028-66.1169417-21.13943028-102.09895049 0-35.53223378 7.19640176-69.71514258 21.13943028-102.09895048 13.94302852-32.38380791 33.73313378-60.71963994 58.92053994-85.00749698 25.18740615-24.73763115 53.97301318-43.62818555 86.80659697-57.12143906l1.7991-0.89955v-94.00299873h210.94452773v94.00299873l1.79910088 0.89955c32.83358291 13.49325352 61.61919082 32.38380791 86.8065961 57.12143906 24.73763115 24.28785615 44.07796143 52.62368818 58.47076494 85.00749698zM646.9325334-11.577211820000002c6.29685176-6.29685176 9.44527763-13.49325352 9.44527764-22.48875527s-3.14842588-16.1919044-9.44527765-22.48875528-13.49325352-9.44527763-22.48875527-9.44527763H399.55622188c-8.99550263 0-16.1919044 3.14842588-22.48875527 9.44527763s-9.44527763 13.49325352-9.44527765 22.48875528 3.14842588 16.1919044 9.44527764 22.48875527 13.49325352 9.44527763 22.48875528 9.44527764h224.88755625c8.99550263 0 16.1919044-3.14842588 22.48875526-9.44527764z"  horiz-adv-x="1024" />

    
    <glyph glyph-name="user-group" unicode="&#58962;" d="M396.2375 433.69715609c90.95625 0 165.37500001 74.41875 165.375 165.37499999S487.19375 764.44715609 396.2375 764.44715609s-165.37500001-74.41875-165.375-165.37500001 74.41875-165.37500001 165.375-165.37499999z m-128.99250001-26.46C204.4025 448.58090608 164.7125 519.69215608 164.7125 599.07215608c0 127.33875 104.18625 231.52500001 231.525 231.52500001s231.52500001-104.18625 231.525-231.52500001c0-79.38-39.69-150.49125-102.5325-191.83499999C644.3 357.62465608 726.9875 240.20840609000004 726.9875 102.94715609000002v-66.15c0-54.57375-44.65125-99.22499999-99.225-99.22500001H164.7125c-54.57375 0-99.22499999 44.65125-99.225 99.22500001v66.15c0 137.26125 82.6875 254.6775 201.75749999 304.29zM627.7625 3.7221560799999907c18.19125 0 33.07500001 14.88375 33.075 33.07500001v66.15c0 145.53-119.07 264.6-264.6 264.6S131.6375 248.47715609 131.6375 102.94715609000002v-66.15c0-18.19125 14.88375-33.07500001 33.075-33.07500001h463.05z m67.80375 744.1875c99.22499999-1.65375 180.25875-82.6875 180.25874999-181.91249999 0-57.88125-26.46-107.49375-67.80374999-142.22250001 89.3025-41.34375 150.49125-132.3 150.49125-238.14v-66.15c0-54.57375-44.65125-99.22499999-99.225-99.225h-49.61249999c-18.19125 0-33.07500001 14.88375-33.07500001 33.075s14.88375 33.07500001 33.07500001 33.075h49.61249999c18.19125 0 33.07500001 14.88375 33.075 33.075v66.15c0 109.1475-87.64875 196.79625-196.79625 198.45H693.9125c-18.19125 0-33.07500001 14.88375-33.075 33.075s14.88375 33.07500001 33.075 33.075h1.65375c62.8425 1.65375 114.10875 52.92 114.10874999 115.76250001s-51.26625 114.10875-114.10874999 115.76249999H693.9125c-18.19125 0-33.07500001 14.88375-33.075 33.075s14.88375 33.07500001 33.075 33.075h1.65375z"  horiz-adv-x="1024" />

    
    <glyph glyph-name="yuce" unicode="&#58906;" d="M928 789.33333333h-832a32 32 0 0 1-32-32v-552.896a32 32 0 0 1 32-32h380.032v-112H304a16 16 0 0 1-16-16v-48c0-4.416 3.584-8 8-8h432a8 8 0 0 1 8 8v48a16 16 0 0 1-16 16H547.968v112H928a32 32 0 0 1 32 32V757.33333333a32 32 0 0 1-32 32z m-40-544.896H136V717.33333333h752v-472.896zM399.936 439.12533333L625.92 638.4213333299999l153.856-113.152 108.032-0.064v-64h-128.96l-129.28 95.104-226.816-200.064L235.52 484.75733333H136.064v64h121.408l142.464-109.632z"  horiz-adv-x="1024" />

    
    <glyph glyph-name="jianmo" unicode="&#58956;" d="M896 832a64 64 0 0 0 64-64v-128a64 64 0 0 0-64-64H128a64 64 0 0 0-64 64V768a64 64 0 0 0 64 64h768z m0-64H128v-128h768V768zM896 192a64 64 0 0 0 64-64v-128a64 64 0 0 0-64-64H128a64 64 0 0 0-64 64v128a64 64 0 0 0 64 64h768z m0-64H128v-128h768v128zM352 599.552v-149.824a32 32 0 0 1 26.24-31.488l5.76-0.512h221.44a96 96 0 0 0 95.552-86.784l0.448-9.216V192h-64V321.72799999999995a32 32 0 0 1-26.24 31.488l-5.76 0.512H384a96 96 0 0 0-95.552 86.72L288 449.728v149.76h64zM736 736v-64h-448v64zM736 96v-64h-448v64z"  horiz-adv-x="1024" />

    
    <glyph glyph-name="zhuanzhang" unicode="&#58880;" d="M522.60266666 54.997333339999955h252.352v55.36c0 4.8 4.16 7.936 7.872 6.72l2.112-1.28 99.968-88.768c2.368-2.112 3.008-5.76 1.792-8.448l-1.792-2.432-99.968-88.768c-3.328-3.072-8-1.28-9.472 2.752l-0.512 2.688v55.36H522.66666666c-0.128 0-0.128 22.272-0.064 66.816zM824.74666666 821.33333334a32.64 32.64 0 0 0 32.64-32.64v-584.064c0-4.48-3.648-8.192-8.128-8.192h-57.152a8.192 8.192 0 0 0-8.192 8.192V747.73333334H212.20266666v-718.72h236.8c4.48 0 8.192-3.712 8.192-8.192v-57.152c0-4.48-3.648-8.192-8.128-8.192H171.30666666a32.64 32.64 0 0 0-32.64 32.64V788.69333334A32.64 32.64 0 0 0 171.30666666 821.33333334zM394.34666666 629.3333333400001c3.008 0 5.696-1.728 7.04-4.416L486.18666666 456.14933334h3.328L574.12266666 624.8533333400001A7.872 7.872 0 0 0 581.22666666 629.3333333400001h54.528a8 8 0 0 0 7.04-11.712l-103.68-191.616h57.6c4.48 0 8-3.584 8-8v-27.072a8 8 0 0 0-8-8H520.42666666v-39.04h76.288c4.48 0 8-3.584 8-7.936v-27.136a8 8 0 0 0-8-8H520.42666666v-63.488a8 8 0 0 0-8-8h-49.92a8 8 0 0 0-7.936 8v63.36H378.53866666a8 8 0 0 0-8 8.064v27.072c0 4.416 3.584 8 8 8h76.032v39.04H378.53866666a8 8 0 0 0-8 7.936v27.136c0 4.416 3.584 8 8 8h56.96L331.69066666 617.55733334a7.936 7.936 0 0 0 3.2 10.752 7.488 7.488 0 0 0 3.84 1.024z"  horiz-adv-x="1024" />

    
    <glyph glyph-name="yunwei" unicode="&#59011;" d="M910.05259525 690.07805338a335.61544203 335.61544203 0 0 0-402.57749943-497.3174043l-209.54158845-209.4744922a134.19249981 134.19249981 0 1 0-189.74819473 189.74819473L317.59270859 382.50884381000003a335.54834577 335.54834577 0 0 0 497.38450055 402.57749943l-137.54731232-137.61440855 94.87409738-94.87409737 137.61440855 137.5473123z m-19.12243122-121.51130858l-1.61031 6.0386625L772.37109044 457.72373995 582.62289571 647.47193469l116.88166734 117.01585983-6.03866249 1.54321374a268.72048087 268.72048087 0 0 1-243.29100216-61.7285499l-9.93024499-9.393475a268.38499962 268.38499962 0 0 1-64.81497741-274.9604321l4.6967375-12.94957624 16.10309997-40.92871244-240.60715216-240.47295966a67.0962499 67.0962499 0 0 1 89.03672363-100.10760485l5.83737373 5.23350748L491.10361085 271.19616522l40.86161619-16.03600373a268.38499962 268.38499962 0 0 1 358.96493699 313.33948706z"  horiz-adv-x="1026" />

    
    <glyph glyph-name="baozhang" unicode="&#59328;" d="M866.9 726.1L527.1 841.9C523 843.3 517.5 844 512 844s-11-0.7-15.1-2.1L157.1 726.1c-8.3-2.8-15.1-12.4-15.1-21.2v-482.4c0-8.8 5.7-20.4 12.6-25.9L499.3-72c3.5-2.7 8-4.1 12.6-4.1s9.2 1.4 12.6 4.1l344.7 268.6c6.9 5.4 12.6 17 12.6 25.9V704.9c0.2 8.8-6.6 18.3-14.9 21.2zM810 241.70000000000005L512 9.5 214 241.70000000000005V669.3l298 101.6 298-101.6v-427.6zM402.9 367.20000000000005l-77.5-77.5c-3.1-3.1-3.1-8.2 0-11.3l34-34c3.1-3.1 8.2-3.1 11.3 0l77.5 77.5c55.7-35.1 130.1-28.4 178.6 20.1 56.3 56.3 56.3 147.5 0 203.8-56.3 56.3-147.5 56.3-203.8 0-48.5-48.5-55.2-123-20.1-178.6z m65.4 133.3c31.3 31.3 82 31.3 113.2 0 31.3-31.3 31.3-82 0-113.2-31.3-31.3-82-31.3-113.2 0s-31.3 81.9 0 113.2z"  horiz-adv-x="1024" />

    
    <glyph glyph-name="jizhang" unicode="&#59329;" d="M861.3546875 720.7546875L526.8640625 834.7453125C522.828125 836.1234375 517.4140625 836.8125 512 836.8125s-10.828125-0.6890625-14.8640625-2.0671875L162.6453125 720.7546875c-8.1703125-2.75625-14.8640625-12.20625-14.8640625-20.86875v-474.8625c0-8.6625 5.6109375-20.08125 12.403125-25.4953125L499.4984375-64.875c3.4453125-2.6578125 7.875-4.0359375 12.403125-4.0359375s9.05625 1.378125 12.403125 4.0359375l339.3140625 264.403125c6.7921875 5.315625 12.403125 16.734375 12.403125 25.4953125V699.8859375c0.196875 8.6625-6.496875 18.0140625-14.6671875 20.86875zM805.34375 243.92343749999998L512 15.3515625 218.65625 243.92343749999998V664.8421875l293.34375 100.0125 293.34375-100.0125v-420.91875zM431.7734375 574.96875h-45.28125c-1.6734375 0-3.2484375-0.39375-4.725-1.18125-4.725-2.559375-6.496875-8.5640625-3.9375-13.3875l86.625-158.5828125h-44.49375c-5.4140625 0-9.84375-4.4296875-9.84375-9.84375v-20.9671875c0-5.4140625 4.4296875-9.84375 9.84375-9.84375h62.1140625v-29.2359375h-62.1140625c-5.4140625 0-9.84375-4.4296875-9.84375-9.84375v-20.9671875c0-5.4140625 4.4296875-9.84375 9.84375-9.84375h62.1140625V240.28125c0-5.4140625 4.4296875-9.84375 9.84375-9.84375h40.6546875c5.4140625 0 9.84375 4.4296875 9.84375 9.84375v50.990625h62.409375c5.4140625 0 9.84375 4.4296875 9.84375 9.84375v20.9671875c0 5.4140625-4.4296875 9.84375-9.84375 9.84375h-62.409375v29.2359375h62.409375c5.4140625 0 9.84375 4.4296875 9.84375 9.84375v20.9671875c0 5.4140625-4.4296875 9.84375-9.84375 9.84375h-44.9859375l86.3296875 158.5828125c0.7875 1.4765625 1.18125 3.0515625 1.18125 4.725 0 5.4140625-4.4296875 9.84375-9.84375 9.84375h-44.296875c-3.740625 0-7.0875-2.0671875-8.7609375-5.4140625l-72.05625-142.0453125-71.7609375 142.0453125c-1.6734375 3.346875-5.11875 5.4140625-8.859375 5.4140625z"  horiz-adv-x="1024" />

    
    <glyph glyph-name="tongji" unicode="&#59151;" d="M950.656 52.05333332999999H148.032V779.9253333300001a9.344 9.344 0 0 1-9.344 9.408H73.344A9.344 9.344 0 0 1 64 779.98933333v-802.624c0-5.12 4.224-9.344 9.344-9.344h877.312c5.12 0 9.344 4.16 9.344 9.344v65.28a9.344 9.344 0 0 1-9.344 9.344z m-699.968 219.2a74.688 74.688 0 1 1 149.312 0 74.688 74.688 0 0 1-149.312 0z m137.6 261.376a56 56 0 1 1 112 0 56 56 0 0 1-112 0z m184.32-266.048a112 112 0 1 1 224 0 112 112 0 0 1-224 0z m172.736 366.336a65.28 65.28 0 1 1 130.688 0 65.28 65.28 0 0 1-130.688 0z"  horiz-adv-x="1024" />

    
    <glyph glyph-name="pingfen" unicode="&#59359;" d="M927.905 513.8450000099999l-266.595 38.745L542.135 794.1950000100001c-3.255 6.615-8.61 11.97-15.225 15.225-16.59 8.19-36.75 1.365-45.045-15.225L362.69 552.59000001l-266.595-38.745c-7.35-1.05-14.07-4.515-19.215-9.765-12.915-13.335-12.705-34.545 0.63-47.565l192.885-188.055-45.57-265.545c-1.26-7.245-0.105-14.805 3.36-21.315 8.61-16.38 28.98-22.785 45.36-14.06999999L512 92.90000002l238.455-125.37c6.51-3.465 14.07-4.62 21.315-3.36000001 18.27 3.15 30.555 20.475 27.405 38.745l-45.57 265.545 192.885 188.055c5.25 5.145 8.715 11.865 9.765 19.215 2.835 18.375-9.975 35.385-28.35 38.115zM672.44 294.92000000999997l37.905-220.815L512 178.26500002 313.655 74.00000002000002l37.905 220.815-160.44 156.44999999L412.88 483.50000002 512 684.36500001 611.12 483.50000002l221.76-32.23500001-160.44-156.345z"  horiz-adv-x="1024" />

    
    <glyph glyph-name="limit" unicode="&#59341;" d="M951.76874107 181.52134022999996c-1.65119678 4.62335097-6.7148669 6.93502646-11.33821784 5.28382968L873.0616948 162.25737785V754.70678072c0 41.38999918-33.46425465 74.8542538-74.8542538 74.85425381H225.792559c-41.38999918 0-74.8542538-33.46425465-74.8542538-74.85425381v-592.44940287l-67.4789082 24.54779206c-0.99071807 0.33023936-1.98143613 0.55039892-2.9721542 0.55039891-4.84351053 0-8.8063828-3.96287226-8.8063828-8.80638279V112.94163417000004c0-3.63263291 2.31167549-6.93502646 5.83422861-8.25598385L499.89122366-48.98572955999998c7.81566473-2.8620744 16.29180818-2.8620744 24.1074729 0l422.48621483 153.56130007c3.52255311 1.32095742 5.8342286 4.62335097 5.83422861 8.25598388v65.60755184c0 1.10079786-0.22015955 2.09151592-0.55039893 3.082234zM512 30.93219435000003l-281.8042496 102.48427985V750.30358933h563.6084992v-616.88711513l-281.8042496-102.48427985zM675.57856052 609.40146451h-59.99348284c-3.30239355 0-6.38462754-1.87135634-7.81566473-4.84351053l-93.2375779-185.81467706H510.89920214l-93.23757787 185.81467706c-1.54111698 2.9721542-4.51327118 4.84351053-7.81566475 4.84351053h-61.31444024c-1.43103721 0-2.8620744-0.33023936-4.18303182-1.10079783-4.29311162-2.31167549-5.8342286-7.70558497-3.52255315-11.88861678l114.37289663-210.91286808h-62.74547745c-4.84351053 0-8.8063828-3.96287226-8.80638279-8.80638279v-29.83162174c0-4.84351053 3.96287226-8.8063828 8.80638279-8.80638279h83.66063662v-42.93111616h-83.66063662c-4.84351053 0-8.8063828-3.96287226-8.80638279-8.80638279v-29.83162174c0-4.84351053 3.96287226-8.8063828 8.80638279-8.80638279h83.66063662V177.88870731999998c0-4.84351053 3.96287226-8.8063828 8.80638278-8.80638278h54.92981272c4.84351053 0 8.8063828 3.96287226 8.80638279 8.80638278v69.90066347h83.99087598c4.84351053 0 8.8063828 3.96287226 8.80638278 8.80638281v29.83162172c0 4.84351053-3.96287226 8.8063828-8.80638278 8.80638282h-83.99087598v42.93111615h83.99087598c4.84351053 0 8.8063828 3.96287226 8.80638278 8.80638279v29.83162174c0 4.84351053-3.96287226 8.8063828-8.80638278 8.8063828H569.24148821l114.15273704 210.91286805c0.66047871 1.32095742 1.10079786 2.75199464 1.10079785 4.18303185-0.11007979 4.73343077-4.07295205 8.69630302-8.91646258 8.69630299z"  horiz-adv-x="1024" />

    
    <glyph glyph-name="spider" unicode="&#59150;" d="M290.048 487.296v-255.616c0-127.552 102.144-230.912 228.096-230.912 126.016 0 228.16 103.36 228.16 230.912V487.296H289.92z m-62.528 63.232h581.248v-318.848c0-162.496-130.112-294.144-290.56-294.144-160.576 0-290.688 131.648-290.688 294.144V550.528zM486.912 397.632h62.528v-433.792h-62.528V397.632z m-224-30.528v-63.296H64v63.296h198.976z m696.96 0v-63.296h-199.04v63.296h199.04z m-216.704 237.248h-62.528c0 90.56-72.512 163.904-161.92 163.904-89.472 0-161.984-73.344-161.984-163.84h-62.528c0 125.44 100.48 227.136 224.448 227.136 124.032 0 224.512-101.76 224.512-227.2z m17.728-476.8V200.32c10.24-5.248 20.16-10.944 29.888-17.088 77.44-48.832 123.2-117.056 123.2-192h-62.464c0 51.456-34.24 99.84-90.624 136.32z m-480.256 10.112c-66.24-37.376-107.264-90.112-107.264-146.432h-62.528c0 74.944 45.76 143.168 123.2 192 14.656 9.216 30.208 17.6 46.592 25.216v-70.784zM171.264 650.688v-57.984c0-23.296 18.688-42.24 41.664-42.24h596.928c23.04 0 41.6 18.944 41.6 42.24v57.984h62.528v-57.984c0-58.24-46.592-105.408-104.128-105.408H212.928A104.832 104.832 0 0 0 108.8 592.64v57.984h62.464z"  horiz-adv-x="1024" />

    
    <glyph glyph-name="loan" unicode="&#59149;" d="M153.216 652.288l50.56-50.624a377.28 377.28 0 0 1 525.824-525.824l50.688-50.624a448 448 0 0 0-627.136 627.136z m90.432 90.496a448 448 0 0 0 627.136-627.136l-50.56 50.688A377.28 377.28 0 0 1 294.4 692.16l-50.752 50.624z m409.856-382.336v-70.784h-108.8v-117.888H479.36V289.664h-108.8V360.448h108.8v47.104h-108.8V478.336h43.52l-32.64 70.72h65.28l32.64-70.72h65.28l32.64 70.72h65.28l-32.64-70.72h43.52v-70.784h-108.8v-47.104h108.8z"  horiz-adv-x="1024" />

    
    <glyph glyph-name="access" unicode="&#59148;" d="M556.8 345.6L704 192l-64-64-236.8 256L640 640l64-64-147.2-153.6H960v-76.8H556.8zM64 832h832v-76.8H64V832z m336-349.888H64v76.8h336v-76.8z m0-273.024H64v76.8h336v-76.8zM896-64H64v76.8h832V-64z"  horiz-adv-x="1024" />

    
    <glyph glyph-name="role" unicode="&#59147;" d="M909.888 195.008h-6.016v38.464a120.448 120.448 0 0 1-216.512 72.96 31.36 31.36 0 0 1-4.864 3.84 400.768 400.768 0 0 1-81.6 39.68l-0.96 0.448a259.328 259.328 0 0 1 126.144 222.336A259.84 259.84 0 0 1 466.56 832a259.84 259.84 0 0 1-259.648-259.264 259.456 259.456 0 0 1 126.144-222.272A402.752 402.752 0 0 1 64-29.056a31.36 31.36 0 0 1 62.656 0 340.096 340.096 0 0 0 304.512 337.728l0.96 0.064 7.04 0.64 1.728 0.128 6.528 0.384 2.048 0.128 6.72 0.256h1.792c2.816 0.128 5.632 0.192 8.512 0.192h6.528l3.2-0.128h3.2l3.968-0.256 2.24-0.128 4.672-0.256 0.96-0.064a338.432 338.432 0 0 0 157.632-52.096 31.232 31.232 0 0 1 15.36-4.864c-0.96-6.4-1.472-12.8-1.472-19.2v-38.464h-6.08a50.048 50.048 0 0 1-50.048-50.048v-158.912c0-27.584 22.4-50.048 50.048-50.048h253.184c27.712 0 50.112 22.4 50.112 50.048v158.848a50.112 50.112 0 0 1-50.112 50.048zM269.568 572.736A197.12 197.12 0 0 0 466.56 769.472a197.12 197.12 0 0 0 196.928-196.736A197.12 197.12 0 0 0 466.56 376a197.12 197.12 0 0 0-196.992 196.736z m443.264-339.264a70.464 70.464 0 0 0 141.056 0v-38.464h-141.056v38.464z m197.056-247.424H656.64v158.848h253.248v-158.912 0.064z m-173.312 104.512h94.016v-50.112h-94.08v50.112z"  horiz-adv-x="1024" />

    
    <glyph glyph-name="org" unicode="&#59146;" d="M288 352v-128h-64v128zM544 544v-192h-64v192zM800 352v-128h-64v128zM800 416v-64h-576v64zM640 832a64 64 0 0 0 64-64v-192a64 64 0 0 0-64-64H384a64 64 0 0 0-64 64V768a64 64 0 0 0 64 64h256z m0-64H384v-192h256V768zM384 256a64 64 0 0 0 64-64v-192a64 64 0 0 0-64-64H128a64 64 0 0 0-64 64v192a64 64 0 0 0 64 64h256z m0-64H128v-192h256v192zM896 256a64 64 0 0 0 64-64v-192a64 64 0 0 0-64-64h-256a64 64 0 0 0-64 64v192a64 64 0 0 0 64 64h256z m0-64h-256v-192h256v192z"  horiz-adv-x="1024" />

    
    <glyph glyph-name="celve" unicode="&#59145;" d="M906.979 160.52999999999997c8.257-18.198 0.202-39.618-17.834-47.803l-347.13-158.454a68.008 68.008 0 0 0-27.567-6.741l-2.043-0.032a70.507 70.507 0 0 0-30.726 7.079l-363.55 157.738c-18.23 7.884-26.694 29.214-18.734 47.502 7.857 18.288 29.106 26.78 47.34 18.792L511.496 20.360000000000014l347.832 158.053c18.032 8.289 39.389 0.306 47.65-17.887zM876.5 379.5l-0.103-74.934c0.026-13.95-8.177-26.564-20.854-32.072L551.564 140.659A85.23 85.23 0 0 0 514.097 132a85.234 85.234 0 0 0-37.467 8.658L172.952 272.08500000000004c-12.699 5.499-20.939 18.108-20.952 32.072v74.925l362.101-158.814L876.486 379.5h0.014zM545.345 808.611l375.332-178.569c25.888-12.33 41.706-37.188 41.314-64.881-0.418-27.787-16.938-52.245-43.231-63.868l-375.327-166.23a77.301 77.301 0 0 0-31.23-6.575 77.24 77.24 0 0 0-31.226 6.57l-375.75 166.136c-26.276 11.618-42.899 36.18-43.214 63.967-0.391 27.689 15.526 52.65 41.31 64.876L479.06 808.612c20.745 9.801 45.526 9.9 66.285 0z m-35.361-65.286L137.069 566.079l372.915-164.93c1.305-0.612 3.024-0.612 4.333 0l372.51 164.817L514.52 743.326a5.872 5.872 0 0 1-4.532 0z"  horiz-adv-x="1024" />

    
    <glyph glyph-name="book" unicode="&#59315;" d="M832 832H192c-17.7 0-32-14.3-32-32v-832c0-17.7 14.3-32 32-32h640c17.7 0 32 14.3 32 32V800c0 17.7-14.3 32-32 32z m-260-72h96v-209.9L621.5 584 572 548.6V760z m220-752H232V760h280v-296.9c0-3.3 1-6.6 3-9.3 5.1-7.2 15.1-8.9 22.3-3.7l83.8 59.9 81.4-59.4c2.7-2 6-3.1 9.4-3.1 8.8 0 16 7.2 16 16V760h64v-752z"  horiz-adv-x="1024" />

    
    <glyph glyph-name="tag" unicode="&#59364;" d="M958.60941342 439.77375772l-31.03201557 327.72324565c-1.57256835 16.98373826-15.09665623 30.40298824-32.08039448 32.08039448L567.77375772 830.60941342h-0.41935154c-3.3548125 0-5.97575976-1.04837891-7.96767968-3.04029881L68.43088539 336.6132735c-4.08867773-4.08867773-4.08867773-10.69346483 0-14.78214255l381.40024556-381.40024556c1.99191992-1.99191992 4.61286718-3.04029883 7.44349022-3.04029881s5.45157031 1.04837891 7.44349022 3.04029881l490.95584111 490.95584111c2.09675781 2.20159569 3.14513672 5.24189452 2.93546092 8.38703122zM457.16978328 45.68812743000001L173.68812743 329.16978328000005 592.72517566 748.20683151 851.67476515 723.67476515l24.53206636-258.94958949-419.03704823-419.03704823zM688.12765601 652.38499962c-50.84637688 0-92.25734362-41.41096675-92.25734363-92.25734361s41.41096675-92.25734362 92.25734363-92.25734363 92.25734362 41.41096675 92.25734361 92.25734363-41.41096675 92.25734362-92.25734361 92.25734361z m0-125.80546857c-18.55630661 0-33.54812495 14.99181834-33.54812496 33.54812496s14.99181834 33.54812495 33.54812496 33.54812494 33.54812495-14.99181834 33.54812494-33.54812494-14.99181834-33.54812495-33.54812494-33.54812496z"  horiz-adv-x="1024" />

    
    <glyph glyph-name="shixufenxipeizhi" unicode="&#58910;" d="M771.84 652.8h-89.6a8.96 8.96 0 0 1-8.96-8.96v-519.68c0-4.928 4.032-8.96 8.96-8.96h89.6a8.96 8.96 0 0 1 8.96 8.96V643.84a8.96 8.96 0 0 1-8.96 8.96zM556.8 339.2H467.2a8.96 8.96 0 0 1-8.96-8.96v-206.08c0-4.928 4.032-8.96 8.96-8.96h89.6a8.96 8.96 0 0 1 8.96 8.96V330.24a8.96 8.96 0 0 1-8.96 8.96zM341.76 419.84h-89.6a8.96 8.96 0 0 1-8.96-8.96v-286.72c0-4.928 4.032-8.96 8.96-8.96h89.6a8.96 8.96 0 0 1 8.96 8.96V410.88a8.96 8.96 0 0 1-8.96 8.96zM924.16 832H99.84a35.84 35.84 0 0 1-35.84-35.84v-824.32c0-19.84 16-35.84 35.84-35.84h824.32c19.84 0 35.84 16 35.84 35.84V796.16a35.84 35.84 0 0 1-35.84 35.84z m-44.8-815.36H144.64V751.36h734.72v-734.72z"  horiz-adv-x="1024" />

    
    <glyph glyph-name="all-cases" unicode="&#58914;" d="M832 784h-108.032v40A8 8 0 0 1 716.032 832h-56.064a8 8 0 0 1-7.936-8v-40H499.968v40A8 8 0 0 1 492.032 832h-56a8 8 0 0 1-8-8v-40H320a32 32 0 0 1-32-32v-120H192a32 32 0 0 1-32-32V-32a32 32 0 0 1 32-32h512a32 32 0 0 1 32 32V64H832a32 32 0 0 1 32 32V752a32 32 0 0 1-32 32z m-168-776h-432V560h217.984v-174.016c0-22.08 17.92-40 40-40h174.016v-337.984z m0 401.984H513.984V560h0.192l149.824-149.76v-0.256z m128-273.984H736v304l-192 192H360v80h68.032v-32c0-4.416 3.584-8 8-8h56a8 8 0 0 1 8 8v32h152v-32c0-4.416 3.584-8 7.936-8h56.064a8 8 0 0 1 7.936 8v32h68.032v-576z"  horiz-adv-x="1024" />

    
    <glyph glyph-name="xianeguanli" unicode="&#58915;" d="M915.456 321.28l-37.12 37.12-129.152-129.088L620.032 358.4l-37.12-37.184 104.064-104.32H538.368v-52.736h184.448v-69.568H538.112v-52.736h184.704v-105.408h52.736v105.408h184.192v52.736h-184.192v69.568H960v52.672h-148.608l104.064 104.384zM432.896 832h-316.16A52.736 52.736 0 0 1 64 779.264v-316.16c0-29.184 23.616-52.736 52.736-52.736h316.16a52.736 52.736 0 0 1 52.736 52.672V779.264A52.736 52.736 0 0 1 432.96 832z m-9.472-358.976h-296.32V768.64h296.32V472.96zM116.736 357.632A52.736 52.736 0 0 1 64 304.96v-316.224c0-29.12 23.616-52.736 52.736-52.736h316.16a52.736 52.736 0 0 1 52.736 52.736v316.16a52.736 52.736 0 0 1-52.672 52.736H116.736z m306.56-353.92H128V298.368h295.296v-294.656zM591.04 832a52.736 52.736 0 0 1-52.672-52.736v-316.16c0-29.184 23.552-52.736 52.672-52.736h316.224A52.736 52.736 0 0 1 960 463.04V779.264A52.736 52.736 0 0 1 907.264 832h-316.16zM896 476.096H600.384V768h295.552v-291.904z"  horiz-adv-x="1024" />

    
    <glyph glyph-name="api" unicode="&#58916;" d="M957.44 782.912l-46.528 46.592a9.088 9.088 0 0 1-12.544 0l-83.584-83.584a218.816 218.816 0 0 1-123.072 37.632c-56.256 0-112.448-21.376-155.392-64.32L424.448 607.296a8.832 8.832 0 0 1 0-12.352l298.304-298.368c1.792-1.792 3.968-2.56 6.272-2.56 2.24 0 4.48 0.896 6.272 2.56l111.872 111.872a219.84 219.84 0 0 1 26.688 278.4l83.584 83.52a8.96 8.96 0 0 1 0 12.544z m-163.2-321.664l-65.216-65.216-205.12 205.12 65.28 65.28a144.192 144.192 0 0 0 102.528 42.496c38.784 0 75.072-15.04 102.528-42.496 27.392-27.392 42.496-63.808 42.496-102.592s-15.104-75.136-42.496-102.592zM585.408 345.984a8.832 8.832 0 0 1-12.416 0L499.84 272.832l-99.136 99.2 73.216 73.216a8.832 8.832 0 0 1 0 12.416l-39.936 39.936a8.832 8.832 0 0 1-12.416 0L348.352 424.384l-47.232 47.232a8.64 8.64 0 0 1-6.272 2.56 9.28 9.28 0 0 1-6.272-2.56L176.832 359.68a219.84 219.84 0 0 1-26.688-278.4L66.56-2.176a8.832 8.832 0 0 1 0-12.416l46.528-46.528c1.792-1.792 3.968-2.56 6.272-2.56 2.304 0 4.48 0.896 6.272 2.56l83.584 83.52c36.992-25.088 80-37.632 123.072-37.632 56.256 0 112.448 21.44 155.392 64.32l111.872 111.936a8.832 8.832 0 0 1 0 12.416l-47.168 47.168 73.216 73.28a8.832 8.832 0 0 1 0 12.416l-40.192 39.68zM434.752 101.76a144.192 144.192 0 0 0-102.592-42.496 143.936 143.936 0 0 0-102.528 42.496 144.192 144.192 0 0 0-42.496 102.592c0 38.72 15.04 75.072 42.496 102.528l65.216 65.28 205.12-205.184-65.28-65.216z"  horiz-adv-x="1024" />

    
    <glyph glyph-name="network" unicode="&#58917;" d="M745.6 832c60.8 0 110.528-49.728 110.528-110.528 0-60.8-49.664-110.528-110.464-110.528-15.744 0-30.976 4.736-50.432 14.08L616.64 541.8240000000001c20.416-29.952 31.808-66.048 31.808-103.232 0-39.104-13.312-77.76-36.736-110.848l140.096-135.232a146.56 146.56 0 0 0 71.68 19.072c76.416 0 136.512-60.096 136.512-136.448s-60.16-136.448-136.448-136.448a135.232 135.232 0 0 0-136.512 136.448c0 23.68 6.208 48.64 16.704 71.232l-143.04 135.68a184 184 0 0 0-103.232-31.872 186.88 186.88 0 0 0-94.848 26.688l-47.168-51.648c14.08-20.736 21.504-46.08 21.504-72.192 0-76.352-60.16-136.512-136.512-136.512A135.232 135.232 0 0 0 64 152.96000000000004c0 76.352 60.16 136.448 136.448 136.448 24.448 0 47.488-6.528 68.992-18.944l46.592 48.832a182.144 182.144 0 0 0-44.352 119.232c0 35.968 9.792 69.248 28.992 97.664l-72.32 65.28a103.744 103.744 0 0 0-53.824-13.888C113.728 587.5840000000001 64 637.312 64 698.112c0 60.8 49.728 110.528 110.528 110.528 60.8 0 110.528-49.728 110.528-110.528 0-16.768-4.16-34.176-11.52-50.368l67.392-62.72a189.824 189.824 0 0 0 119.168 41.92c42.304 0 81.216-13.952 111.168-39.04l77.696 82.432-5.12 9.472a94.72 94.72 0 0 0-8.704 41.664C635.136 782.272 684.8 832 745.6 832z m77.952-685.696a69.76 69.76 0 0 1-71.232-71.232c0-40.448 30.72-71.232 71.232-71.232a69.76 69.76 0 0 1 71.168 71.232 69.76 69.76 0 0 1-71.168 71.232z m-623.104 77.824A69.76 69.76 0 0 1 129.28 152.96000000000004c0-40.448 30.72-71.232 71.168-71.232a69.76 69.76 0 0 1 71.232 71.232c0 9.856-1.6 19.392-3.84 26.56l-1.792 4.864-34.816 32.64c-9.728 4.928-19.136 7.104-30.72 7.104zM460.16 561.664a121.856 121.856 0 0 1-123.136-123.136c0-68.992 54.144-123.136 123.136-123.136a121.856 121.856 0 0 1 123.136 123.136 121.856 121.856 0 0 1-123.136 123.136z m-285.568 181.76a45.44 45.44 0 0 1-45.248-45.312 45.44 45.44 0 0 1 45.248-45.248 45.44 45.44 0 0 1 45.248 45.248 45.44 45.44 0 0 1-45.248 45.248z m571.136 25.92a45.44 45.44 0 0 1-45.248-45.248 45.44 45.44 0 0 1 45.248-45.248 45.44 45.44 0 0 1 45.248 45.248 45.44 45.44 0 0 1-45.248 45.248z"  horiz-adv-x="1024" />

    
    <glyph glyph-name="analysis" unicode="&#58918;" d="M901.12 832c25.792-0.064 39.744-4.928 47.168-17.536 5.312-9.152 6.528-17.92 6.72-43.84v-766.08c0.064-50.176-20.608-68.352-73.6-68.544H132.288c-52.544 0.192-68.48 14.656-68.352 65.152V345.6a37.76 37.76 0 0 0 37.312 38.4l131.136-1.92 65.088 65.536a37.376 37.376 0 0 0 60.8-11.712L430.912 265.6l117.376 353.92a37.248 37.248 0 0 0 71.232-1.6L686.144 384h82.688a37.44 37.44 0 0 0 6.144-74.624l-117.056-0.128a37.44 37.44 0 0 0-35.84 27.072l-41.088 144.576-110.272-332.608a37.504 37.504 0 0 0-34.176-25.6 37.888 37.888 0 0 0-35.52 22.656l-89.6 210.24-35.2-35.328a36.8 36.8 0 0 0-26.432-11.008H138.688v-267.904c0-16.64 13.44-30.208 30.08-30.336h681.6c16.576 0 30.08 13.632 30.08 30.336V726.848a30.272 30.272 0 0 1-30.08 30.336H168.832a30.272 30.272 0 0 1-30.08-30.4v-261.76l-6.4-6.4h-61.824l-6.4 6.4V760.768c0 52.16 17.472 71.04 68.16 71.232H901.12z"  horiz-adv-x="1024" />

    
    <glyph glyph-name="calendar" unicode="&#58919;" d="M924.16 751.36H736V823.04a8.96 8.96 0 0 1-8.96 8.96h-62.72a8.96 8.96 0 0 1-8.96-8.96v-71.68H368.64V823.04A8.96 8.96 0 0 1 359.68 832h-62.72a8.96 8.96 0 0 1-8.96-8.96v-71.68H99.84a35.84 35.84 0 0 1-35.84-35.84v-743.68c0-19.84 16-35.84 35.84-35.84h824.32c19.84 0 35.84 16 35.84 35.84V715.52a35.84 35.84 0 0 1-35.84 35.84z m-44.8-734.72H144.64V442.24h734.72v-425.6zM144.64 518.4V670.72H288v-53.76c0-4.928 4.032-8.96 8.96-8.96h62.72a8.96 8.96 0 0 1 8.96 8.96v53.76h286.72v-53.76c0-4.928 4.032-8.96 8.96-8.96h62.72a8.96 8.96 0 0 1 8.96 8.96v53.76h143.36V518.4H144.64z"  horiz-adv-x="1024" />

    
    <glyph glyph-name="backup" unicode="&#58920;" d="M629.248 693.76c48.32 0 87.488-39.168 87.488-87.488v-27.136a35.008 35.008 0 1 0-70.016 0v27.136a17.472 17.472 0 0 1-17.472 17.472H151.488a17.472 17.472 0 0 1-17.472-17.472v-582.784c0-9.6 7.808-17.472 17.472-17.472h477.76a17.472 17.472 0 0 1 17.472 17.472v184.64a35.008 35.008 0 0 0 70.016 0v-184.64c0-48.32-39.168-87.488-87.488-87.488H151.488A87.488 87.488 0 0 0 64 23.488V606.272c0 48.32 39.168 87.488 87.488 87.488h477.76z m243.2 138.24C920.896 832 960 792.832 960 744.512v-582.784c0-48.32-39.168-87.488-87.488-87.488H769.28a35.008 35.008 0 0 0 0 70.016h103.232a17.472 17.472 0 0 1 17.472 17.472V744.512a17.472 17.472 0 0 1-17.472 17.472H394.752a17.472 17.472 0 0 1-17.472-17.472v-7.04a35.008 35.008 0 0 0-70.016 0v7.04C307.2 792.832 346.432 832 394.752 832h477.76z m-398.08-776.128a35.008 35.008 0 0 0-23.616 8.768L196.992 291.2a35.072 35.072 0 0 0 0.896 52.544l253.76 216.96a35.008 35.008 0 0 0 57.728-26.24v-112a321.152 321.152 0 0 1 210.88 112l82.24 97.152a35.008 35.008 0 0 0 61.248-30.592l-22.72-95.36a376.256 376.256 0 0 0-331.648-290.56v-124.224a35.008 35.008 0 0 0-29.312-34.56l-5.696-0.448z m-200.32 260.736l165.312-147.84V248.32c0 19.328 15.68 35.008 35.008 35.008a304.256 304.256 0 0 1 282.624 187.264A391.104 391.104 0 0 0 474.368 350.72a35.008 35.008 0 0 0-35.008 35.008V458.368L273.984 316.608z"  horiz-adv-x="1024" />

    
    <glyph glyph-name="all" unicode="&#58921;" d="M915.2 356.8a51.2 51.2 0 0 0 51.2-51.2V-19.2a51.2 51.2 0 0 0-51.2-51.2H590.4a51.2 51.2 0 0 0-51.2 51.2V305.6a51.2 51.2 0 0 0 51.2 51.2H915.2z m-481.6 0a51.2 51.2 0 0 0 51.2-51.2V-19.2a51.2 51.2 0 0 0-51.2-51.2H108.8a51.2 51.2 0 0 0-51.2 51.2V305.6a51.2 51.2 0 0 0 51.2 51.2h324.8z m459.2-57.6H612.8a16 16 0 0 1-15.552-12.352l-0.448-3.648v-280a16 16 0 0 1 12.352-15.552l3.648-0.448h280a16 16 0 0 1 15.552 12.352l0.448 3.648V283.2a16 16 0 0 1-12.352 15.552l-3.648 0.448z m-481.6 0H131.2a16 16 0 0 1-15.552-12.352l-0.448-3.648v-280a16 16 0 0 1 12.352-15.552l3.648-0.448h280a16 16 0 0 1 15.552 12.352l0.448 3.648V283.2a16 16 0 0 1-12.352 15.552l-3.648 0.448zM433.6 838.4a51.2 51.2 0 0 0 51.2-51.2v-324.8a51.2 51.2 0 0 0-51.2-51.2H108.8a51.2 51.2 0 0 0-51.2 51.2V787.2a51.2 51.2 0 0 0 51.2 51.2h324.8zM915.2 838.4a51.2 51.2 0 0 0 51.2-51.2v-44.8a28.8 28.8 0 1 0-57.6 0v22.4a16 16 0 0 1-16 16H612.8a16 16 0 0 1-16-16v-280c0-8.896 7.104-16 16-16h280a16 16 0 0 1 16 16V540.8a28.8 28.8 0 1 0 57.6 0v-78.4a51.2 51.2 0 0 0-51.2-51.2H590.4a51.2 51.2 0 0 0-51.2 51.2V787.2a51.2 51.2 0 0 0 51.2 51.2H915.2z m-504-57.6H131.2a16 16 0 0 1-15.552-12.352L115.2 764.8v-280a16 16 0 0 1 12.352-15.552l3.648-0.448h280a16 16 0 0 1 15.552 12.352l0.448 3.648V764.8a16 16 0 0 1-12.352 15.552L411.2 780.8z"  horiz-adv-x="1024" />

    
    <glyph glyph-name="attachment" unicode="&#58922;" d="M830.464 750.016a280.768 280.768 0 0 1-396.544 0l-302.912-302.72A10.432 10.432 0 0 1 128 440c0-2.816 1.024-5.504 3.008-7.424l42.88-42.88a10.432 10.432 0 0 1 14.72 0l302.848 302.72a197.76 197.76 0 0 0 140.8 58.24c53.12 0 103.168-20.672 140.672-58.24 37.568-37.632 58.24-87.68 58.24-140.672 0-53.12-20.672-103.04-58.24-140.672L464.192 102.4l-49.984-49.984c-46.784-46.784-122.816-46.784-169.6 0a118.912 118.912 0 0 0-35.008 84.736c0 32 12.416 62.08 35.008 84.672L550.912 528a40.96 40.96 0 0 0 28.864 11.968h0.128c10.88 0 20.992-4.288 28.672-11.968a40.448 40.448 0 0 0 0-57.6l-250.304-250.048a10.432 10.432 0 0 1-3.008-7.424c0-2.816 1.024-5.504 3.008-7.424l42.816-42.88a10.432 10.432 0 0 1 14.72 0l250.24 250.24c23.04 23.04 35.712 53.76 35.712 86.4 0 32.576-12.8 63.36-35.712 86.272a122.496 122.496 0 0 1-172.928 0l-29.696-29.824-276.48-276.288A199.872 199.872 0 0 1 128 136.96 201.024 201.024 0 0 1 329.344-64c51.52-0.064 103.04 19.52 142.272 58.752l358.848 358.656a279.04 279.04 0 0 1 82.048 198.208 278.144 278.144 0 0 1-82.048 198.336z"  horiz-adv-x="1024" />

    
    <glyph glyph-name="chart-line" unicode="&#58923;" d="M73.344 768h65.28c4.16 0 7.68-2.688 8.896-6.4l0.448-2.944V30.72h802.688c4.096 0 7.68-2.688 8.896-6.4l0.448-2.944v-65.28a9.344 9.344 0 0 0-6.4-8.896l-2.944-0.448H73.344a9.344 9.344 0 0 0-8.896 6.4L64-43.968V758.656c0 4.096 2.688 7.68 6.4 8.896L73.344 768h65.28-65.28z m768.064-128l54.592-45.76-248.896-354.304-241.92 135.488L248.64 128 192 170.752 382.976 472.32l244.48-136.96L841.408 640z"  horiz-adv-x="1024" />

    
    <glyph glyph-name="branches" unicode="&#58924;" d="M745.6 765.696a121.856 121.856 0 0 1-36.48-238.016v-104.32l-420.224-137.6v309.12A121.856 121.856 0 1 1 128 710.208c0-53.504 34.56-98.944 82.624-115.328v-421.76a121.856 121.856 0 1 1 160.896-115.328c0 53.504-34.56 98.944-82.56 115.328v30.208l460.416 150.848a54.912 54.912 0 0 1 37.952 52.416v122.88a122.112 122.112 0 0 1 80 114.432c0 67.2-54.592 121.792-121.792 121.792z m-548.032-55.488a52.224 52.224 0 1 0 104.448 0 52.224 52.224 0 0 0-104.448 0z m104.384-652.352a52.224 52.224 0 1 0-104.384 0 52.224 52.224 0 0 0 104.384 0z m443.584 533.888a52.224 52.224 0 1 0 0 104.32 52.224 52.224 0 0 0 0-104.32z"  horiz-adv-x="1024" />

    
    <glyph glyph-name="chart-area" unicode="&#58926;" d="M950.656 30.72H148.032V758.592A9.344 9.344 0 0 1 138.688 768H73.344A9.344 9.344 0 0 1 64 758.656v-802.624c0-5.12 4.224-9.344 9.344-9.344h877.312c5.12 0 9.344 4.16 9.344 9.344v65.28a9.344 9.344 0 0 1-9.344 9.344zM232 105.28h625.28c5.184 0 9.408 4.16 9.408 9.344V623.36a9.408 9.408 0 0 1-16 6.592L605.312 384.64 459.008 529.28a9.344 9.344 0 0 1-13.184 0L225.344 308.096a9.152 9.152 0 0 1-2.688-6.528v-186.88c0-5.12 4.224-9.344 9.344-9.344z"  horiz-adv-x="1024" />

    
    <glyph glyph-name="clock" unicode="&#58927;" d="M512 832a448 448 0 1 1 0-896A448 448 0 0 1 512 832z m0-820.032A372.032 372.032 0 0 0 512 756.032a372.032 372.032 0 0 0 0-744.064z m174.72 245.44l-142.592 103.04V608a8 8 0 0 1-8 8h-48.128A8 8 0 0 1 480 608v-275.392c0-2.56 1.216-4.992 3.328-6.528l165.376-120.576c3.584-2.56 8.576-1.792 11.2 1.728l28.608 38.976a8 8 0 0 1-1.792 11.2z"  horiz-adv-x="1024" />

    
    <glyph glyph-name="check" unicode="&#58928;" d="M292.416 653.184a8.256 8.256 0 0 1-8.256-8.192v-49.28c0-4.544 3.712-8.32 8.256-8.32h394.56c4.48 0 8.192 3.776 8.192 8.32v49.28a8.256 8.256 0 0 1-8.192 8.192H292.416z m189.056-147.968H292.416a8.256 8.256 0 0 1-8.256-8.192v-49.28c0-4.544 3.712-8.256 8.256-8.256h189.056c4.48 0 8.192 3.712 8.192 8.192v49.344a8.256 8.256 0 0 1-8.192 8.192z m-49.28-470.592H201.92V758.016h575.36v-328.832c0-4.48 3.776-8.192 8.32-8.192h57.472c4.544 0 8.256 3.712 8.256 8.192v369.92A32.832 32.832 0 0 1 818.496 832H160.896A32.832 32.832 0 0 1 128 799.104V-6.4c0-18.176 14.72-32.896 32.896-32.896h271.232c4.48 0 8.256 3.712 8.256 8.256v57.536a8.256 8.256 0 0 1-8.256 8.192z m452.096 90.432h-147.968v37.632a115.136 115.136 0 1 1-65.792 0v-37.632H522.56a16.512 16.512 0 0 1-16.448-16.448v-156.16c0-9.024 7.424-16.448 16.448-16.448h361.728a16.512 16.512 0 0 1 16.384 16.448v156.16a16.512 16.512 0 0 1-16.384 16.448z m-232.256 147.968a51.392 51.392 0 1 0 102.784 0 51.392 51.392 0 0 0-102.784 0z m184.96-273.28H569.856v61.632h267.136v-61.696z"  horiz-adv-x="1024" />

    
    <glyph glyph-name="charging-setting" unicode="&#58930;" d="M438.336 762.624c41.344 35.392 104.128 44.352 156.416 2.88l325.824-225.92-5.44-7.936 5.696 7.744c35.328-25.984 56-54.528 45.888-84.672-6.208-18.432-21.376-28.8-42.112-33.28a136 136 0 0 0-32.64-2.432l-45.184-0.128v-344.832c0-56-43.456-101.76-97.152-101.76H625.856a33.984 33.984 0 0 0 0 68.096h123.776c15.872 0 29.312 14.912 29.312 33.664l-0.128 378.688c0 18.816 15.168 34.112 33.92 34.112l64 0.256-321.536 222.976-8.448 6.144c-24.704 15.808-47.744 8.832-65.024-5.952l-1.088-0.896-317.44-217.6 55.872-0.128c18.752 0 33.92-15.36 33.92-34.112l0.384-3.84v-379.648c0-18.752 13.44-33.664 29.376-33.664h206.72v171.2H381.44a33.984 33.984 0 0 0 0 68.096h107.968v34.816H381.44a34.048 34.048 0 0 0 0 68.16h62.272L373.12 461.376a34.176 34.176 0 0 0 2.496 48 33.92 33.92 0 0 0 48-2.432l99.456-110.848L625.856 506.24a33.92 33.92 0 0 0 48 1.6 34.176 34.176 0 0 0 1.6-48.128L603.52 382.656h61.824a34.048 34.048 0 0 0 0-68.16H557.312v-34.816h108.032a34.048 34.048 0 0 0 0-68.096H557.312v-203.84a33.28 33.28 0 0 0-10.624-24.512 33.6 33.6 0 0 0-24.768-10.944H282.752c-53.76 0-97.28 45.696-97.28 101.76V423.68l-72.32 0.064-10.048 1.024c-25.664 3.712-42.112 15.36-47.296 35.072-6.784 25.984 9.856 48.128 36.928 66.112z"  horiz-adv-x="1024" />

    
    <glyph glyph-name="chart-pie-alt" unicode="&#58931;" d="M870.4 377.856H505.856V742.4a8.192 8.192 0 0 1-8.128 8.128h-26.496a405.696 405.696 0 0 1-287.936-119.232A405.44 405.44 0 0 1 64 343.296a405.696 405.696 0 0 1 119.232-288A405.44 405.44 0 0 1 471.232-64a405.696 405.696 0 0 1 288 119.232 405.44 405.44 0 0 1 119.296 288v26.496a8.192 8.192 0 0 1-8.128 8.128z m-161.216-274.688a337.6 337.6 0 0 0-239.552-97.92 335.872 335.872 0 0 0-237.44 98.944 335.872 335.872 0 0 0-98.944 239.04c0 90.304 35.136 175.232 98.944 239.104a335.104 335.104 0 0 0 204.48 97.216v-370.88h370.88a335.296 335.296 0 0 0-98.368-205.44zM960 434.56l-2.688 28.672a405.056 405.056 0 0 1-117.248 249.088 406.656 406.656 0 0 1-249.664 117.12l-28.8 2.56a8.064 8.064 0 0 1-8.896-8v-391.04c0-4.48 3.648-8.192 8.128-8.192l391.04 1.024A8.128 8.128 0 0 1 960 434.496z m-338.24 59.264V755.008c63.744-13.376 122.88-44.992 169.408-91.456a336.128 336.128 0 0 0 91.648-169.088l-261.12-0.704z"  horiz-adv-x="1024" />

    
    <glyph glyph-name="dashboard" unicode="&#58934;" d="M924.8 506.944a446.72 446.72 0 0 1-96 142.4A446.72 446.72 0 0 1 512 780.544a446.72 446.72 0 0 1-316.8-131.2A446.72 446.72 0 0 1 64 332.544c0-132.672 58.24-257.664 159.872-343.04l1.728-1.408c5.76-4.8 13.12-7.552 20.608-7.552h531.712a32.448 32.448 0 0 1 20.608 7.552l1.664 1.344A447.424 447.424 0 0 1 960 332.544c0 60.544-11.904 119.104-35.2 174.4z m-163.392-450.368H262.592a371.136 371.136 0 0 0-122.56 275.968c0 99.456 38.656 192.832 108.992 263.04A369.536 369.536 0 0 0 512 704.576c99.392 0 192.768-38.72 263.04-108.992a369.536 369.536 0 0 0 108.992-263.04c0-105.6-44.544-205.44-122.624-275.968zM623.488 471.04a8 8 0 0 1-11.264 0l-84.48-84.48a55.936 55.936 0 1 1 39.616-39.616l84.48 84.48a8 8 0 0 1 0 11.328l-28.352 28.288zM489.984 572.544h44.032a8 8 0 0 1 8 8v80a8 8 0 0 1-8 8h-44.032a8 8 0 0 1-8-8v-80c0-4.352 3.648-8 8-8zM750.08 354.56v-43.968c0-4.48 3.584-8 8-8h80a8 8 0 0 1 8 8V354.56a8 8 0 0 1-8 8h-80a8 8 0 0 1-8-8z m-488 8h-80a8 8 0 0 1-8-8v-43.968c0-4.48 3.584-8 8-8h80a8 8 0 0 1 8 8V354.56a8 8 0 0 1-8 8z"  horiz-adv-x="1024" />

    
    <glyph glyph-name="datebase" unicode="&#58935;" d="M832 832H192a32 32 0 0 1-32-32v-832a32 32 0 0 1 32-32h640a32 32 0 0 1 32 32v832A32 32 0 0 1 832 832zM232 760h560v-208h-560v208z m560-480h-560v208h560v-208z m0-272h-560v208h560v-208zM304 656a40 40 0 1 1 80 0 40 40 0 0 1-80 0z m0-272A40 40 0 1 1 384 384a40 40 0 0 1-80 0z m0-272a40 40 0 1 1 80 0 40 40 0 0 1-80 0z"  horiz-adv-x="1024" />

    
    <glyph glyph-name="check-reply" unicode="&#58936;" d="M448 512c66.304 0 120-53.76 120-120 0-11.712-31.424-105.216-49.6-156.032h49.6c39.744 0 72-32.192 72-71.936v-24.064c0-39.68-32.256-71.936-72-71.936h-240A72 72 0 0 0 256 139.968v24.064c0 39.68 32.256 71.936 72 71.936h49.28c-19.392 51.2-49.28 140.992-49.28 156.032C328 458.304 381.76 512 448 512z m120-324.032h-240a24 24 0 0 1-24-23.936v-24.064c0-13.248 10.752-23.936 24-23.936h240a24 24 0 0 1 24 23.936v24.064a24 24 0 0 1-24 23.936zM484.032 454.4a72 72 0 0 1-108.032-62.336c0-3.456 11.328-40.32 25.856-82.176 10.24-29.376 20.992-58.688 27.008-73.792h38.4c13.568 37.12 52.736 151.232 52.736 155.968 0 25.728-13.696 49.472-35.968 62.336z m69.376 240.256A32 32 0 0 1 530.816 704H192a32 32 0 0 1-32-32v-704a32 32 0 0 1 32-32h512a32 32 0 0 1 32 32V498.688a32 32 0 0 1-9.408 22.592L553.408 694.592z m110.592-686.592h-432v624h282.24l149.76-149.76v-474.24z m190.208 581.376L611.328 823.104A32.192 32.192 0 0 1 589.12 832h-293.12a8 8 0 0 1-8-8V768c0-4.416 3.584-8 8-8h276.992l219.008-210.56v-477.44c0-4.416 3.584-8 8-8h56a8 8 0 0 1 8 8V566.4a31.68 31.68 0 0 1-9.792 23.04z"  horiz-adv-x="1024" />

    
    <glyph glyph-name="datacenter" unicode="&#58937;" d="M292.416 647.04a8.256 8.256 0 0 1-8.256-8.192v-49.344c0-4.48 3.712-8.192 8.256-8.192h394.56c4.48 0 8.192 3.648 8.192 8.192v49.28a8.256 8.256 0 0 1-8.192 8.32H292.416zM489.6 441.6v49.28a8.256 8.256 0 0 1-8.192 8.192H292.416a8.256 8.256 0 0 1-8.256-8.192v-49.28c0-4.608 3.712-8.32 8.256-8.32h189.056c4.48 0 8.192 3.712 8.192 8.32z m-49.28-406.976H201.984V758.016h575.36v-353.472c0-4.48 3.776-8.192 8.32-8.192h57.472c4.544 0 8.256 3.648 8.256 8.192V799.104A32.832 32.832 0 0 1 818.496 832H160.896A32.832 32.832 0 0 1 128 799.104V-6.4c0-18.176 14.72-32.896 32.896-32.896H440.32c4.48 0 8.192 3.712 8.192 8.256v57.536a8.256 8.256 0 0 1-8.192 8.192z m106.944 118.784c1.856 35.456 16.64 68.672 41.92 93.952a144.32 144.32 0 0 0 213.12-10.368l-23.68-18.432a8.256 8.256 0 0 1 3.008-14.464l95.872-23.104a8.32 8.32 0 0 1 10.24 7.872l0.576 98.048a8.192 8.192 0 0 1-13.248 6.592l-20.864-16.256a209.792 209.792 0 0 1-372.8-123.072 8.256 8.256 0 0 1 8.192-8.576h49.472a8.192 8.192 0 0 1 8.192 7.808z m345.152-7.808h-49.408a8.192 8.192 0 0 1-8.256-7.808 142.848 142.848 0 0 0-41.92-93.888 144.32 144.32 0 0 0-213.12 10.368l23.744 18.368a8.256 8.256 0 0 1-3.072 14.528l-95.872 23.04a8.32 8.32 0 0 1-10.176-7.872l-0.64-97.984c0-6.912 7.872-10.816 13.312-6.592l20.864 16.256a209.792 209.792 0 0 1 372.8 123.072 8.256 8.256 0 0 1-8.256 8.512z"  horiz-adv-x="1024" />

    
    <glyph glyph-name="connection" unicode="&#58939;" d="M347.51140621 274.34093748L621.65906252 548.4110413999999c16.28599939 16.28599939 32.57199877 18.06970408 48.78044578 5.42866647l6.04908549-5.42866647c18.3023612-18.22480884 18.3023612-36.52717005 0-54.82953125L402.34093748 219.58895859999996c-16.28599939-16.28599939-32.57199877-18.06970408-48.78044578-5.42866647l-6.04908549 5.42866647c-18.3023612 18.22480884-18.3023612 36.52717005 0 54.82953125zM566.82953126 767.88427121L402.34093748 603.31812504a38.77618901 38.77618901 0 1 1 54.82953126-54.82953125l164.48859378 164.56614615a155.10475603 155.10475603 0 0 0 219.39567742-219.39567742L676.4110414 329.17046874000005a38.77618901 38.77618901 0 0 1 54.82953127-54.82953126l164.56614615 164.48859378A232.65713406 232.65713406 0 0 1 566.82953126 767.88427121z m0-548.372865l-164.48859378-164.56614615a155.10475603 155.10475603 0 1 0-219.39567742 219.39567742L347.5889586 438.82953126a38.77618901 38.77618901 0 0 1-54.82953127 54.82953126L128.11572879 329.17046874000005a232.65713406 232.65713406 0 0 1 329.05473995-329.05473995l164.48859378 164.56614617a38.77618901 38.77618901 0 0 1-49.47841719 59.32756919l-5.35111407-4.49803794z"  horiz-adv-x="1024" />

    
    <glyph glyph-name="download" unicode="&#58940;" d="M481.92 440h59.968c3.52 0 6.528-2.304 7.616-5.504l0.384-2.496v-242.304H624c5.76 0 9.28-5.632 7.616-10.56l-1.28-2.368-112-141.696a8 8 0 0 0-10.432-1.92l-2.176 1.92-112 141.696a8 8 0 0 0 3.584 12.48l2.688 0.448h73.92V432c0 3.52 2.304 6.528 5.44 7.616l2.56 0.384h59.968-59.968zM512.192 736a320.128 320.128 0 0 0 299.2-206.72 200 200 0 0 0-39.936-392.96l-11.328-0.32h-40.128a8 8 0 0 0-7.616 5.504l-0.384 2.496v60.032c0 3.456 2.304 6.464 5.504 7.552l2.496 0.448h40.128c33.088 0 64.192 12.864 87.552 36.288 23.424 23.36 36.352 54.592 36.352 87.68 0 52.672-33.344 99.328-82.176 116.992l-9.984 3.136-37.76 9.984-13.824 36.48a245.76 245.76 0 0 1-88.128 113.28 242.112 242.112 0 0 1-139.968 44.224c-50.496 0-98.88-15.296-139.968-44.16a245.632 245.632 0 0 1-82.56-99.84l-5.568-13.44-13.888-36.672-37.888-9.856c-26.048-6.912-49.408-22.4-66.112-43.712a123.968 123.968 0 0 1 86.528-199.936l11.136-0.512h40.128c3.52 0 6.528-2.24 7.616-5.44l0.384-2.56v-59.968a8 8 0 0 0-5.504-7.616l-2.496-0.384h-40.128a199.936 199.936 0 0 0-50.88 393.408A320 320 0 0 0 512.192 736z"  horiz-adv-x="1024" />

    
    <glyph glyph-name="date-set" unicode="&#58941;" d="M832 832H192a32 32 0 0 1-32-32v-832a32 32 0 0 1 32-32h640a32 32 0 0 1 32 32v832A32 32 0 0 1 832 832zM232 760h560v-208h-560v208z m560-480h-560v208h560v-208z m0-272h-560v208h560v-208zM496 688H312a8 8 0 0 1-8-8v-48c0-4.416 3.584-8 8-8H496a8 8 0 0 1 8 8v48a8 8 0 0 1-8 8zM312 352H496a8 8 0 0 1 8 8v48A8 8 0 0 1 496 416H312a8 8 0 0 1-8-8v-48c0-4.416 3.584-8 8-8zM640 107.968a40 40 0 1 1 80 0 40 40 0 0 1-80 0z"  horiz-adv-x="1024" />

    
    <glyph glyph-name="event" unicode="&#58942;" d="M832 832H192a32 32 0 0 1-32-32v-832a32 32 0 0 1 32-32h640a32 32 0 0 1 32 32v832A32 32 0 0 1 832 832z m-40-824h-560v200.96h97.92c11.52-32.768 32-62.272 59.072-84.672a193.088 193.088 0 0 1 305.088 84.672h97.92V272h-148.416l-5.184-24.704A129.28 129.28 0 0 0 512 144c-61.184 0-114.368 43.52-126.528 103.296l-5.12 24.704H231.936V760h560v-752zM320 555.008h384a8 8 0 0 1 8 8v48A8 8 0 0 1 704 619.008H320a8 8 0 0 1-8-8v-48c0-4.416 3.584-8 8-8z m0-160h384a8 8 0 0 1 8 8v48A8 8 0 0 1 704 459.008H320a8 8 0 0 1-8-8v-48c0-4.416 3.584-8 8-8z"  horiz-adv-x="1024" />

    
    <glyph glyph-name="event-wait" unicode="&#58943;" d="M693.824 173.568h59.584c13.248 0 24-11.776 24-26.304 0-14.528-10.752-26.304-24-26.304h-83.52c-13.248 0-24 11.776-24 26.24v78.976c0 14.528 10.752 26.304 24 26.304s23.936-11.776 23.936-26.304v-52.608z m1.344 415.936v49.28a8.256 8.256 0 0 1-8.192 8.32H292.416a8.256 8.256 0 0 1-8.256-8.32v-49.28c0-4.48 3.712-8.192 8.256-8.192h394.56c4.48 0 8.192 3.648 8.192 8.192zM292.48 499.072a8.256 8.256 0 0 1-8.256-8.192v-49.28c0-4.608 3.712-8.32 8.256-8.32h189.056c4.48 0 8.192 3.712 8.192 8.32v49.28a8.256 8.256 0 0 1-8.192 8.192H292.416z m386.368-119.168a221.952 221.952 0 1 1 0-443.904 221.952 221.952 0 0 1 0 443.904z m110.4-332.416c-29.44-29.44-68.736-45.696-110.4-45.696a155.2 155.2 0 0 0-110.464 45.696 155.2 155.2 0 0 0-45.76 110.464c0 41.728 16.256 80.96 45.76 110.464a155.2 155.2 0 0 0 110.464 45.696c41.664 0 80.96-16.192 110.4-45.696 29.504-29.504 45.76-68.736 45.76-110.464 0-41.728-16.256-80.96-45.76-110.464z m-348.8-12.8H201.984V757.952h575.36v-353.472c0-4.48 3.776-8.192 8.32-8.192h57.472c4.544 0 8.256 3.648 8.256 8.192V799.104A32.832 32.832 0 0 1 818.496 832H160.896A32.832 32.832 0 0 1 128 799.104V-6.4c0-18.176 14.72-32.896 32.896-32.896H440.32c4.48 0 8.192 3.712 8.192 8.256v57.536a8.256 8.256 0 0 1-8.192 8.192z"  horiz-adv-x="1024" />

    
    <glyph glyph-name="fieldanalysis" unicode="&#58947;" d="M924.16 832H99.84a35.84 35.84 0 0 1-35.84-35.84v-824.32c0-19.84 16-35.84 35.84-35.84h824.32c19.84 0 35.84 16 35.84 35.84V796.16a35.84 35.84 0 0 1-35.84 35.84z m-44.8-815.36H144.64V751.36h734.72v-734.72zM279.936 370.56h56.768a7.68 7.68 0 0 1 7.68 7.616v88.32c0 22.144 17.728 39.936 39.68 39.936h230.4v-59.84c0-6.4 7.296-9.856 12.224-5.888l122.24 96a7.552 7.552 0 0 1 0 11.904l-122.24 96a7.552 7.552 0 0 1-12.16-5.952v-59.776H384c-61.76 0-111.68-50.176-111.68-112.128v-88.32c0-4.48 3.392-7.872 7.616-7.872z m-4.672-151.04l122.176-96c4.928-3.968 12.16-0.384 12.16 5.888v59.84H640c61.696 0 111.68 50.176 111.68 112.128v88.32a7.68 7.68 0 0 1-7.616 7.68h-56.768a7.68 7.68 0 0 1-7.68-7.68v-88.32a39.808 39.808 0 0 0-39.68-39.872H409.6V321.28c0 6.4-7.232 9.856-12.16 5.952l-122.24-96a7.36 7.36 0 0 1 0-11.776z"  horiz-adv-x="1024" />

    
    <glyph glyph-name="exchange" unicode="&#58949;" d="M138.688 309.376h74.624v-74.56H96a32 32 0 0 0-32 32v533.12a32 32 0 0 0 32 32L704 832a32 32 0 0 0 31.488-26.24l0.512-5.76v-533.184a32 32 0 0 0-32-32H512V309.376h149.312V757.568H138.368l0.32-448.192z m672 224.256v-75.136h74.624v-447.36H362.688v447.36H512V533.632H320a32 32 0 0 1-32-32v-533.056a32 32 0 0 1 32-32h608a32 32 0 0 1 32 32V501.632a32 32 0 0 1-32 32h-117.312z"  horiz-adv-x="1024" />

    
    <glyph glyph-name="knowledge" unicode="&#58952;" d="M880.42666667 832H147.43466667A40.704 40.704 0 0 1 106.66666667 791.296v-814.592c0-22.464 18.24-40.704 40.704-40.704h733.12a40.704 40.704 0 0 1 40.704 40.704V791.296A40.704 40.704 0 0 1 880.49066667 832z m-178.112-68.544v-150.592l-30.08 11.008c-11.52 5.76-39.04 5.76-50.56 0l-31.36-11.008V763.52h112zM177.13066667 7.360000000000014V768.704h81.6v-761.344H177.06666667z m679.488-1.152H331.30666667V766.08h184v-209.728a42.688 42.688 0 0 1 61.888-37.952l66.112 32.832 66.112-32.832a42.688 42.688 0 0 1 41.856 1.664 42.688 42.688 0 0 1 20.032 36.288V769.728h85.312v-763.52z"  horiz-adv-x="1024" />

    
    <glyph glyph-name="key" unicode="&#58953;" d="M531.584 832L128 694.784v-347.136c0-141.248 80.704-266.368 213.952-326.912L523.52-64l193.728 88.768c133.184 56.512 217.984 185.664 217.984 330.944V694.784L531.648 832z m322.88-476.224c0-113.024-64.576-213.952-169.472-258.304L523.52 24.832 374.208 93.44a278.592 278.592 0 0 0-165.504 254.272v290.56l322.944 108.992 322.88-108.992V355.84zM370.176 505.088c0-76.672 52.48-137.216 121.088-157.44v-205.824h80.704v40.32h40.32V262.976h-40.32V347.648c68.608 16.192 121.088 80.768 121.088 157.44a161.92 161.92 0 0 1-161.408 161.408 161.92 161.92 0 0 1-161.472-161.408z m242.176 0c0-44.416-36.352-80.768-80.768-80.768a80.96 80.96 0 0 0-80.704 80.768c0 44.416 36.288 80.704 80.704 80.704s80.768-36.288 80.768-80.704z"  horiz-adv-x="1024" />

    
    <glyph glyph-name="log" unicode="&#58954;" d="M585.408 694.592A32 32 0 0 1 562.816 704H160a32 32 0 0 1-32-32v-704a32 32 0 0 1 32-32h576a32 32 0 0 1 32 32V498.688a32 32 0 0 1-9.408 22.592L585.408 694.592z m110.592-686.592h-496v624h346.24l149.76-149.76v-474.24z m190.208 581.376l-242.88 233.728A32.192 32.192 0 0 1 621.12 832h-293.12A8 8 0 0 1 320 824V768c0-4.416 3.584-8 8-8h276.992l219.008-210.56v-477.44c0-4.416 3.584-8 8-8h56a8 8 0 0 1 8 8V566.4a31.68 31.68 0 0 1-9.792 23.04z"  horiz-adv-x="1024" />

    
    <glyph glyph-name="list" unicode="&#58955;" d="M256 597.12a43.008 43.008 0 1 0 43.008-42.88A42.88 42.88 0 0 0 256 597.12z m425.984 0a43.008 43.008 0 1 0 43.008-42.88 42.88 42.88 0 0 0-43.008 42.88zM411.072 375.488a7.232 7.232 0 0 0-7.296-6.592h-43.072a7.232 7.232 0 0 0-7.232 7.488 143.488 143.488 0 0 0 286.528 0 7.104 7.104 0 0 0-7.232-7.488h-43.008a7.296 7.296 0 0 0-7.296 6.592 85.952 85.952 0 0 1-171.392 0zM96 832h832c17.6 0 32-14.4 32-32v-832c0-17.6-14.4-32-32-32H80.128c-8.832 0-16 6.208-16 14.976v41.024a16 16 0 0 0 16 16h807.872V760H136v-807.296a16 16 0 0 0-16-16H80a16 16 0 0 0-16 16V800c0 17.6 14.4 32 32 32z m179.52-640h472.96c10.752 0 19.52 7.232 19.52 16v32c0 8.768-8.768 16-19.52 16h-472.96c-10.752 0-19.52-7.232-19.52-16v-32c0-8.768 8.768-16 19.52-16z m0-128h472.96c10.752 0 19.52 7.232 19.52 16v32c0 8.768-8.768 16-19.52 16h-472.96c-10.752 0-19.52-7.232-19.52-16v-32c0-8.768 8.768-16 19.52-16z"  horiz-adv-x="1024" />

    
    <glyph glyph-name="menu" unicode="&#58957;" d="M138.688 682.688a74.688 74.688 0 1 0 0 149.312 74.688 74.688 0 0 0 0-149.312z m373.312 0A74.688 74.688 0 1 0 512 832a74.688 74.688 0 0 0 0-149.312z m373.312 0a74.688 74.688 0 1 0 0 149.312 74.688 74.688 0 0 0 0-149.312zM138.688 309.312a74.688 74.688 0 1 0 0 149.376 74.688 74.688 0 0 0 0-149.376z m0-373.312a74.688 74.688 0 1 0 0 149.312 74.688 74.688 0 0 0 0-149.312zM512-64a74.688 74.688 0 1 0 0 149.312A74.688 74.688 0 0 0 512-64z m373.312 0a74.688 74.688 0 1 0 0 149.312 74.688 74.688 0 0 0 0-149.312zM512 309.312a74.688 74.688 0 1 0 0 149.376 74.688 74.688 0 0 0 0-149.376z m373.312 0a74.688 74.688 0 1 0 0 149.376 74.688 74.688 0 0 0 0-149.376z"  horiz-adv-x="1024" />

    
    <glyph glyph-name="index" unicode="&#58958;" d="M924.16 832H99.84a35.84 35.84 0 0 1-35.84-35.84v-824.32c0-19.84 16-35.84 35.84-35.84h824.32c19.84 0 35.84 16 35.84 35.84V796.16a35.84 35.84 0 0 1-35.84 35.84z m-44.8-815.36H144.64V751.36h734.72v-734.72z m-560 175.872v-86.272c0-4.928 4.032-8.96 8.96-8.96h53.76a8.96 8.96 0 0 1 8.96 8.96v86.272a118.208 118.208 0 0 0-71.68 0z m71.68 221.76V661.76a8.96 8.96 0 0 1-8.96 8.96h-53.76a8.96 8.96 0 0 1-8.96-8.96v-247.488a118.208 118.208 0 0 0 71.68 0z m241.92-60.544v-247.488c0-4.928 4.032-8.96 8.96-8.96h53.76a8.96 8.96 0 0 1 8.96 8.96V353.728a118.208 118.208 0 0 0-71.68 0zM355.2 419.84l0 0z m-0.512-52.48c-1.408 0-2.688-0.192-4.096-0.192h-1.088c-1.088-0.192-2.176-0.192-3.2-0.32-0.384-0.192-0.576-0.192-0.896-0.192-1.28-0.192-2.688-0.384-3.968-0.704-0.384 0-0.576-0.192-0.896-0.192a18.88 18.88 0 0 1-3.072-0.704c-0.32-0.192-0.704-0.192-1.088-0.384a31.104 31.104 0 0 1-3.776-1.28c-1.28-0.32-2.304-0.832-3.584-1.408l-1.024-0.512c-1.088-0.512-1.984-0.896-2.88-1.408-0.192-0.192-0.576-0.192-0.768-0.384-1.28-0.64-2.304-1.28-3.392-1.92l-0.704-0.576c-0.896-0.512-1.6-1.28-2.56-1.792l-0.832-0.512a34.496 34.496 0 0 1-3.072-2.304c-1.088-0.896-1.92-1.6-2.88-2.56l-0.704-0.64-2.688-2.688c-0.896-0.896-1.664-1.792-2.56-2.88-0.128-0.128-0.32-0.512-0.512-0.64-0.512-0.96-1.28-1.664-1.792-2.56-0.192-0.32-0.384-0.512-0.512-0.896l-2.176-3.2v-0.192l-1.792-3.2a64.128 64.128 0 0 1 0-59.52c0.512-1.088 1.088-2.176 1.792-3.2v-0.192l2.176-3.2c0.128-0.384 0.32-0.576 0.512-0.896 0.512-0.896 1.088-1.792 1.792-2.56 0.192-0.128 0.384-0.512 0.512-0.64 0.768-0.896 1.664-1.984 2.56-2.88l2.688-2.688 0.704-0.64a35.84 35.84 0 0 1 2.88-2.56c0.896-0.64 1.92-1.6 3.072-2.304l0.896-0.512a12.8 12.8 0 0 1 2.496-1.792l0.704-0.576a33.408 33.408 0 0 1 3.392-1.92c0.192-0.192 0.576-0.192 0.768-0.384 0.896-0.512 1.92-1.088 2.88-1.408l1.024-0.512c1.28-0.576 2.368-1.088 3.584-1.472 1.28-0.512 2.56-0.896 3.84-1.28 0.32-0.128 0.64-0.128 1.024-0.32 0.896-0.192 1.984-0.512 3.072-0.64 0.32 0 0.512-0.256 0.896-0.256 1.28-0.32 2.688-0.512 3.968-0.64 0.32-0.256 0.512-0.256 0.896-0.256a19.904 19.904 0 0 1 3.2-0.32h1.088c1.408-0.192 2.688-0.192 4.096-0.192l4.16 0.192h1.088c1.088 0.192 2.112 0.192 3.2 0.32 0.384 0.192 0.576 0.192 0.896 0.192 1.28 0.192 2.688 0.384 3.968 0.704 0.384 0 0.512 0.192 0.896 0.192a18.88 18.88 0 0 1 3.072 0.704c0.32 0.192 0.704 0.192 1.088 0.384 1.28 0.32 2.496 0.64 3.712 1.28 1.28 0.32 2.368 0.832 3.648 1.408l1.024 0.512c1.088 0.512 1.984 0.896 2.88 1.408 0.192 0.192 0.576 0.192 0.768 0.384 1.28 0.64 2.304 1.28 3.392 1.92l0.704 0.576c0.896 0.512 1.6 1.28 2.56 1.792l0.832 0.512a34.496 34.496 0 0 1 3.072 2.304c1.088 0.896 1.92 1.6 2.88 2.56l0.704 0.64 2.688 2.688c0.896 0.896 1.6 1.792 2.56 2.88 0.128 0.128 0.32 0.512 0.512 0.64 0.512 0.96 1.28 1.664 1.792 2.56 0.192 0.32 0.384 0.512 0.512 0.896l2.176 3.2c0.192 0 0.192 0.192 0.192 0.192l1.792 3.2a64.128 64.128 0 0 1-1.792 62.72c-0.192 0-0.192 0.192-0.192 0.192l-2.176 3.2c-0.128 0.384-0.32 0.576-0.512 0.896-0.512 0.896-1.088 1.792-1.792 2.56l-0.576 0.64a35.776 35.776 0 0 1-2.496 2.88l-2.688 2.688-0.704 0.64a35.84 35.84 0 0 1-2.88 2.56c-0.896 0.64-1.92 1.6-3.072 2.304l-0.896 0.512a12.8 12.8 0 0 1-2.496 1.792L388.48 357.76a33.408 33.408 0 0 1-3.392 1.92c-0.192 0.192-0.576 0.192-0.768 0.384a21.504 21.504 0 0 1-2.88 1.408l-1.024 0.512c-1.28 0.576-2.368 1.088-3.648 1.472a31.104 31.104 0 0 1-3.712 1.28c-0.384 0.128-0.768 0.128-1.088 0.32-0.896 0.192-1.984 0.512-3.072 0.64-0.384 0-0.512 0.256-0.896 0.256-1.28 0.32-2.688 0.512-3.968 0.64-0.32 0.256-0.512 0.256-0.896 0.256a19.904 19.904 0 0 1-3.2 0.32h-1.088c-1.408 0.192-2.688 0.192-4.16 0.192z m349.952 208.128a116.48 116.48 0 1 0-71.68 0V661.76a8.96 8.96 0 0 0 8.96 8.96h53.76a8.96 8.96 0 0 0 8.96-8.96v-86.272a121.6 121.6 0 0 1-11.52 3.072z m-36.288-46.848c-1.408 0-2.688-0.192-4.16-0.192h-1.024c-1.088-0.192-2.176-0.192-3.264-0.32-0.384-0.192-0.512-0.192-0.896-0.192-1.28-0.192-2.688-0.384-3.968-0.704-0.32 0-0.512-0.192-0.896-0.192a18.944 18.944 0 0 1-3.072-0.704c-0.32-0.192-0.64-0.192-1.088-0.384-1.28-0.32-2.496-0.64-3.776-1.28-1.28-0.32-2.304-0.832-3.584-1.408l-1.088-0.512-2.816-1.408c-0.192-0.192-0.576-0.192-0.768-0.384-1.28-0.64-2.304-1.28-3.392-1.92-0.192-0.192-0.576-0.384-0.704-0.576-0.896-0.512-1.664-1.28-2.56-1.792l-0.896-0.512a34.56 34.56 0 0 1-3.008-2.304c-1.088-0.896-1.984-1.6-2.88-2.56l-0.768-0.64-2.112-2.176-0.576-0.512c-0.896-0.896-1.6-1.792-2.56-2.88-0.128-0.128-0.32-0.512-0.512-0.64-0.512-0.96-1.28-1.664-1.792-2.56l-0.512-0.896-2.176-3.2v-0.192l-1.792-3.2a64.064 64.064 0 0 1 0-59.52c0.576-1.088 1.088-2.176 1.792-3.2v-0.192l2.176-3.2 0.512-0.896a12.672 12.672 0 0 1 1.792-2.56l0.576-0.64a35.84 35.84 0 0 1 2.56-2.88l0.512-0.512 2.112-2.176 0.768-0.64c0.896-0.96 1.92-1.856 2.88-2.56 0.896-0.64 1.92-1.6 3.008-2.304l0.896-0.512a12.8 12.8 0 0 1 2.56-1.792l0.64-0.576a33.472 33.472 0 0 1 3.456-1.92c0.192-0.192 0.576-0.192 0.768-0.384 0.896-0.512 1.92-1.088 2.816-1.408l1.088-0.512c1.28-0.576 2.368-1.088 3.584-1.472 1.28-0.512 2.56-0.896 3.84-1.28 0.32-0.128 0.64-0.128 1.024-0.32 0.896-0.192 1.984-0.512 3.072-0.64 0.384 0 0.576-0.256 0.896-0.256 1.28-0.32 2.688-0.512 3.968-0.64a1.664 1.664 0 0 1 0.896-0.256c1.088-0.128 2.176-0.32 3.2-0.32h1.088a32.064 32.064 0 0 1 4.16-0.192c1.408 0 2.688 0.192 4.16 0.192h1.024c1.088 0.192 2.176 0.192 3.264 0.32 0.384 0.192 0.512 0.192 0.896 0.192 1.28 0.192 2.688 0.384 3.968 0.704 0.32 0 0.512 0.192 0.896 0.192a18.944 18.944 0 0 1 3.072 0.704c0.32 0.192 0.64 0.192 1.088 0.384a31.168 31.168 0 0 1 3.776 1.28c1.28 0.32 2.304 0.832 3.584 1.408l1.088 0.512 2.816 1.408c0.192 0.192 0.576 0.192 0.768 0.384 1.28 0.64 2.304 1.28 3.392 1.92 0.192 0.192 0.576 0.384 0.704 0.576 0.896 0.512 1.664 1.28 2.56 1.792l0.896 0.512a34.56 34.56 0 0 1 3.008 2.304c1.088 0.896 1.984 1.6 2.88 2.56l0.768 0.64 2.112 2.176 0.576 0.512c0.896 0.896 1.6 1.792 2.56 2.88 0.128 0.128 0.32 0.512 0.512 0.64 0.512 0.96 1.28 1.664 1.792 2.56l0.512 0.896 2.176 3.2v0.192l1.792 3.2a64.064 64.064 0 0 1 0 59.52c-0.576 1.088-1.088 2.176-1.792 3.2v0.192l-2.176 3.2-0.512 0.896a12.672 12.672 0 0 1-1.792 2.56l-0.576 0.64a35.84 35.84 0 0 1-2.56 2.88l-0.512 0.512-2.112 2.176-0.768 0.64a35.904 35.904 0 0 1-2.88 2.56c-0.896 0.64-1.92 1.6-3.008 2.304l-0.896 0.512a12.8 12.8 0 0 1-2.56 1.792l-0.64 0.576a33.472 33.472 0 0 1-3.456 1.92c-0.192 0.192-0.576 0.192-0.768 0.384a21.504 21.504 0 0 1-2.816 1.408l-1.088 0.512c-1.28 0.576-2.368 1.088-3.584 1.472-1.28 0.512-2.56 0.896-3.84 1.28-0.32 0.128-0.64 0.128-1.024 0.32-0.896 0.192-1.984 0.512-3.072 0.64-0.384 0-0.576 0.256-0.896 0.256-1.28 0.32-2.688 0.512-3.968 0.64-0.384 0.256-0.512 0.256-0.896 0.256-1.088 0.128-2.176 0.32-3.2 0.32h-1.088c-1.472 0.192-2.752 0.192-4.16 0.192z m0.448 52.48c-4.16 0-8.32-0.192-12.352-0.64l-11.968-1.92c7.872 1.664 16 2.56 24.32 2.56z"  horiz-adv-x="1024" />

    
    <glyph glyph-name="project" unicode="&#58959;" d="M250.112 115.2h69.376c3.84 0 6.912 4.032 6.912 8.96V643.84c0 4.928-3.136 8.96-6.912 8.96H250.112c-3.84 0-6.912-4.032-6.912-8.96v-519.68c0-4.928 3.136-8.96 6.912-8.96z m215.04 313.6h69.376c3.84 0 6.912 4.032 6.912 8.96V643.84c0 4.928-3.136 8.96-6.912 8.96H465.152c-3.84 0-6.912-4.032-6.912-8.96v-206.08c0-4.928 3.136-8.96 6.912-8.96z m194.56-80.64h69.376c3.84 0 6.912 4.032 6.912 8.96V643.84c0 4.928-3.136 8.96-6.912 8.96h-69.376c-3.84 0-6.912-4.032-6.912-8.96v-286.72c0-4.928 3.136-8.96 6.912-8.96zM924.16 832H99.84a35.84 35.84 0 0 1-35.84-35.84v-824.32c0-19.84 16-35.84 35.84-35.84h824.32c19.84 0 35.84 16 35.84 35.84V796.16a35.84 35.84 0 0 1-35.84 35.84z m-44.8-815.36H144.64V751.36h734.72v-734.72z"  horiz-adv-x="1024" />

    
    <glyph glyph-name="monitorin" unicode="&#58960;" d="M928 768h-832a32 32 0 0 1-32-32v-552.896a32 32 0 0 1 32-32h380.032v-112H304a16 16 0 0 1-16-16v-48c0-4.416 3.584-8 8-8h432a8 8 0 0 1 8 8v48a16 16 0 0 1-16 16H547.968v112H928a32 32 0 0 1 32 32V736a32 32 0 0 1-32 32z m-40-544.896H136V696h752v-472.896z m-575.872 93.44a8 8 0 0 1 11.264 0l101.76 101.76L511.36 332.096a8 8 0 0 1 11.328 0l226.304 226.56a8 8 0 0 1 0 11.264l-36.8 36.8a8 8 0 0 1-11.328 0L516.992 422.72 430.912 508.928a8 8 0 0 1-11.328 0L275.328 364.608a8 8 0 0 1 0-11.328l36.8-36.8z"  horiz-adv-x="1024" />

    
    <glyph glyph-name="pointmap" unicode="&#58961;" d="M950.656 52.05333332999999H148.032V779.9253333300001A9.344 9.344 0 0 1 138.688 789.33333333H73.344A9.344 9.344 0 0 1 64 779.98933333v-802.624c0-5.12 4.224-9.344 9.344-9.344h877.312c5.12 0 9.344 4.16 9.344 9.344v65.28a9.344 9.344 0 0 1-9.344 9.344zM250.688 271.25333333000003a74.688 74.688 0 1 1 149.312 0 74.688 74.688 0 0 1-149.312 0z m137.6 261.376a56 56 0 1 1 112 0 56 56 0 0 1-112 0z m184.32-266.048a112 112 0 1 1 224 0 112 112 0 0 1-224 0z m172.736 366.336a65.28 65.28 0 1 1 130.688 0 65.28 65.28 0 0 1-130.688 0z"  horiz-adv-x="1024" />

    
    <glyph glyph-name="ranking" unicode="&#58964;" d="M950.656 57.386666669999954H148.032V785.25866667A9.344 9.344 0 0 1 138.688 794.66666667H73.344A9.344 9.344 0 0 1 64 785.32266667v-802.624c0-5.12 4.224-9.344 9.344-9.344h877.312c5.12 0 9.344 4.16 9.344 9.344v65.28a9.344 9.344 0 0 1-9.344 9.344zM250.688 150.57066667000004h65.28c5.12 0 9.344 4.224 9.344 9.344V327.97866667000005a9.344 9.344 0 0 1-9.344 9.344h-65.28a9.344 9.344 0 0 1-9.344-9.344v-168c0-5.12 4.16-9.344 9.344-9.344z m177.28 0h65.344c5.12 0 9.344 4.224 9.344 9.344V533.3546666699999a9.344 9.344 0 0 1-9.344 9.344h-65.28a9.344 9.344 0 0 1-9.344-9.344v-373.376c0-5.12 4.16-9.344 9.344-9.344z m177.344 0h65.344c5.12 0 9.344 4.224 9.344 9.344V442.34666667a9.344 9.344 0 0 1-9.344 9.344H605.44a9.344 9.344 0 0 1-9.344-9.344v-282.368c0-5.12 4.16-9.344 9.28-9.344z m177.344 0h65.344c5.12 0 9.344 4.224 9.344 9.344V626.66666667a9.344 9.344 0 0 1-9.344 9.344h-65.28a9.344 9.344 0 0 1-9.408-9.344v-466.688c0-5.12 4.224-9.344 9.344-9.344z"  horiz-adv-x="1024" />

    
    </font>
</defs>
</svg>
