<?xml version="1.0" encoding="UTF-8"?>
<svg width="100px" height="100px" viewBox="0 0 100 100" version="1.1" xmlns="http://www.w3.org/2000/svg" xmlns:xlink="http://www.w3.org/1999/xlink">
    <!-- Generator: Sketch 63.1 (92452) - https://sketch.com -->
    <title>dc</title>
    <desc>Created with Sketch.</desc>
    <g id="dc" stroke="none" stroke-width="1" fill="none" fill-rule="evenodd">
        <g transform="translate(4.200000, 0.000000)" fill-rule="nonzero">
            <polygon id="路径" fill="#00DAA7" points="0.224609375 78.8085938 0.283203125 78.8085938 21.3769531 78.8085938 21.3769531 36.4257812 0.1953125 36.4257812 0.1953125 99.9902344 0.1953125 99.9902344 0.1953125 78.8085938"></polygon>
            <path d="M41.5527344,0 L41.5527344,21.1816406 L41.3964844,21.1816406 C57.2753906,21.1816406 70.2050781,34.1015625 70.2050781,49.9902344 C70.2050781,65.8789062 57.2851562,78.7988281 41.3964844,78.7988281 L41.3964844,99.9902344 C68.9648438,99.9902344 91.3867219,77.5683594 91.3867219,50 C91.3964844,22.4804688 69.0527344,0.087890625 41.5527344,0 Z" id="路径" fill="#2F79FF"></path>
            <polygon id="路径" fill="#28C9EF" points="41.5527344 0 41.5527344 0 41.40625 0 11.9335938 0 0.01953125 0 0.01953125 21.1816406 11.9335938 21.1816406 41.40625 21.1816406 41.5527344 21.1816406"></polygon>
            <rect id="矩形" fill="#54F2A2" x="21.3964844" y="78.8085938" width="20.0097656" height="21.1816406"></rect>
            <polygon id="路径" fill="#00C77D" points="21.3769531 78.8085938 0.283203125 78.8085938 0.224609375 78.8085938 0.1953125 78.8085938 0.1953125 99.9902344 0.1953125 100 0.224609375 100 0.283203125 100 21.3964844 100 21.3964844 78.8085938"></polygon>
        </g>
    </g>
</svg>