<?xml version="1.0" encoding="UTF-8"?>
<svg width="500px" height="500px" viewBox="0 0 500 500" version="1.1" xmlns="http://www.w3.org/2000/svg" xmlns:xlink="http://www.w3.org/1999/xlink">
    <!-- Generator: Sketch 57.1 (83088) - https://sketch.com -->
    <title>实时计算备份 2</title>
    <desc>Created with Sketch.</desc>
    <g id="实时计算备份-2" stroke="none" stroke-width="1" fill="none" fill-rule="evenodd">
        <g id="实时计算平台备份" transform="translate(0.000000, 27.000000)" fill-rule="nonzero">
            <path d="M180.5,167 C201.00356,167 217.663821,183.455226 217.994976,203.879869 L218,204.5 L217.994976,205.120131 C217.663821,225.544774 201.00356,242 180.5,242 C169.389138,242 159.406878,237.167845 152.540104,229.490418 L101.460702,229.489517 C94.5939027,237.167467 84.6112969,242 73.5,242 C52.99644,242 36.3361788,225.544774 36.0050239,205.120131 L36,204.5 L36.0050239,203.879869 C36.3361788,183.455226 52.99644,167 73.5,167 C83.9518147,167 93.4049434,171.275911 100.205506,178.173855 L153.79367,178.17469 C160.594293,171.276257 170.047763,167 180.5,167 Z" id="形状结合" fill="#31A855"></path>
            <path d="M64.5,75 C43.99644,75 27.3361788,58.5447744 27.0050239,38.1201307 L27,37.5 L27.0050239,36.8798693 C27.3361788,16.4552256 43.99644,0 64.5,0 C75.362303,0 85.1459339,4.61837419 91.9943945,11.9986243 L243.055674,12 L342.295793,112.577345 L375.402186,112.577764 C382.229099,105.443219 391.845668,101 402.5,101 C423.00356,101 439.663821,117.455226 439.994976,137.879869 L440,138.5 L439.994976,139.120131 C439.663821,159.544774 423.00356,176 402.5,176 C391.584693,176 381.758612,171.336444 374.905562,163.893141 L320.662133,163.892317 L221.507862,63.314972 L91.7003834,63.3146213 C84.8673934,70.5120738 75.2077989,75 64.5,75 Z" id="形状结合" fill="#4B79FF"></path>
            <path d="M462.5,240 C483.00356,240 499.663821,256.455226 499.994976,276.879869 L500,277.5 L499.994976,278.120131 C499.663821,298.544774 483.00356,315 462.5,315 C451.911734,315 442.3484,310.611713 435.529504,303.554644 L276.450489,303.554566 L170.428389,425 L64.9955886,425.000089 C58.1470712,432.381089 48.3629343,437 37.5,437 C16.99644,437 0.3361788,420.544774 0.005023932,400.120131 L0,399.5 L0.005023932,398.879869 C0.3361788,378.455226 16.99644,362 37.5,362 C48.2074643,362 57.8667897,366.487646 64.6997428,373.684704 L146.991925,373.685028 L253.014025,252.239594 L434.784258,252.239242 C441.642398,244.718893 451.520124,240 462.5,240 Z" id="形状结合" fill="#F07B01"></path>
            <path d="M312,408.5 L312,408.5 C312,429.210667 328.789333,446 349.5,446 C370.210667,446 387,429.210667 387,408.5 L387,408.5 C387,387.789333 370.210667,371 349.5,371 C328.789333,371 312,387.789333 312,408.5 L312,408.5 Z" id="路径" fill="#F07B01"></path>
        </g>
    </g>
</svg>