<?xml version="1.0" encoding="UTF-8"?>
<svg width="100px" height="100px" viewBox="0 0 100 100" version="1.1" xmlns="http://www.w3.org/2000/svg" xmlns:xlink="http://www.w3.org/1999/xlink">
    <!-- Generator: Sketch 63.1 (92452) - https://sketch.com -->
    <title>realtime</title>
    <desc>Created with Sketch.</desc>
    <g id="realtime" stroke="none" stroke-width="1" fill="none" fill-rule="evenodd">
        <g id="实时计算-01" transform="translate(1.800000, 0.000000)" fill-rule="nonzero">
            <g id="编组" fill="#3FDAFF">
                <path d="M11.1617617,73.9 C8.15865285,73.9 5.25564767,72.15 4.00435233,69.2 C2.75305699,66.2 1.75202073,63.05 1.10134715,59.85 C0.450673575,56.55 0.100310881,53.2 0.100310881,49.85 C0.100310881,46.5 0.450673575,43.1 1.10134715,39.85 C1.75202073,36.65 2.75305699,33.5 4.00435233,30.5 C5.30569948,27.5 6.8573057,24.65 8.65917098,22 C10.4610363,19.35 12.4631088,16.9 14.7154404,14.65 C16.967772,12.4 19.4203109,10.35 22.073057,8.6 C24.7258031,6.8 27.5787565,5.25 30.5318135,4 C33.5349223,2.75 36.6881865,1.75 39.8915026,1.1 C46.4482902,-0.25 53.4054922,-0.25 59.9622798,1.1 C64.1666321,1.95 66.8694301,6.05 66.0185492,10.25 C65.1676684,14.45 61.0634197,17.15 56.8590674,16.3 C52.3544041,15.4 47.5494301,15.4 43.0447668,16.3 C40.842487,16.75 38.6902591,17.4 36.6381347,18.3 C34.5860104,19.15 32.6339896,20.2 30.8321244,21.45 C29.0302591,22.7 27.3284974,24.1 25.7268394,25.65 C24.1752332,27.2 22.7737824,28.9 21.522487,30.75 C20.2711917,32.6 19.2201036,34.55 18.3692228,36.55 C17.518342,38.6 16.8176166,40.75 16.3671503,42.95 C15.9166839,45.2 15.6664249,47.55 15.6664249,49.85 C15.6664249,52.2 15.9166839,54.5 16.3671503,56.75 C16.8176166,58.95 17.4682902,61.1 18.3692228,63.15 C20.0209326,67.1 18.1690155,71.6 14.2649741,73.3 C13.213886,73.7 12.1627979,73.9 11.1617617,73.9 Z" id="路径"></path>
                <path d="M46.5984456,99.55 C43.2449741,99.55 39.8414508,99.2 36.5880829,98.55 C32.3837306,97.7 29.6809326,93.6 30.5318135,89.4 C31.3826943,85.2 35.486943,82.5 39.6912953,83.35 C44.1959585,84.25 49.0009326,84.25 53.5556477,83.35 C55.7579275,82.9 57.9101554,82.25 59.9622798,81.35 C61.9643523,80.5 63.9664249,79.45 65.7682902,78.2 C67.5701554,76.95 69.2719171,75.55 70.8235233,74 C72.3751295,72.45 73.7765803,70.75 75.0278756,68.9 C76.279171,67.05 77.3302591,65.1 78.1811399,63.1 C79.0320207,61.05 79.7327461,58.9 80.1832124,56.7 C80.6336788,54.45 80.8839378,52.1 80.8839378,49.8 C80.8839378,47.45 80.6336788,45.15 80.1832124,42.9 C79.7327461,40.7 79.0820725,38.55 78.1811399,36.5 C76.5294301,32.55 78.3813472,28.05 82.2853886,26.35 C86.2394819,24.7 90.7441451,26.55 92.4459067,30.45 C93.6972021,33.45 94.6982383,36.6 95.3489119,39.8 C95.9995855,43.05 96.3499482,46.45 96.3499482,49.8 C96.3499482,53.15 95.9995855,56.55 95.3489119,59.8 C94.6982383,63 93.6972021,66.15 92.4459067,69.15 C91.1946114,72.1 89.6430052,74.95 87.8411399,77.6 C86.0392746,80.25 84.0372021,82.7 81.7848705,84.95 C79.5325389,87.2 77.08,89.25 74.4272539,91 C71.7745078,92.8 68.9215544,94.35 65.9684974,95.6 C62.9653886,96.85 59.8121244,97.85 56.6088083,98.5 C53.3554404,99.2 49.9519171,99.55 46.5984456,99.55 Z" id="路径"></path>
            </g>
            <path d="M76.8,24.4 L76.8,24.4 C72.5225806,24.4 69,20.961165 69,16.6750809 C69,12.3889968 72.5225806,9 76.8,9 L76.8,9 C81.0774194,9 84.6,12.438835 84.6,16.7249191 C84.6,21.0110032 81.1277419,24.4 76.8,24.4 Z" id="路径" fill="#4EF9BB"></path>
            <path d="M66,49.6250825 C66,46.6283828 68.15,44.1311331 71,43.5817382 C70.45,41.5339934 69.65,39.6360836 68.6,37.8880088 C66.2,39.4862486 62.95,39.2365237 60.8,37.0888889 C58.7,34.9911991 58.4,31.7447745 60,29.3474147 C58.25,28.3485149 56.3,27.5493949 54.3,27 C53.7,29.7969197 51.2,31.8946095 48.25,31.8946095 C45.3,31.8946095 42.8,29.7969197 42.2,27 C40.2,27.5493949 38.3,28.3485149 36.5,29.3474147 C38.05,31.7447745 37.75,34.9412541 35.65,37.0389439 C33.55,39.1366337 30.3,39.3863586 27.9,37.8380638 C26.85,39.5861386 26.05,41.4840484 25.5,43.5317932 C28.3,44.1311331 30.4,46.5784378 30.4,49.5751375 C30.4,52.5718372 28.25,55.0690869 25.4,55.6184818 C25.95,57.6662266 26.75,59.5641364 27.75,61.3621562 C30.15,59.7639164 33.45,60.0136414 35.55,62.1113311 C37.7,64.2589659 37.95,67.5553355 36.25,70.0026403 C38.05,71.0514851 39.95,71.8506051 42,72.4 C42.5,69.5031903 45.05,67.3056106 48.1,67.3056106 C51.15,67.3056106 53.7,69.5031903 54.2,72.4 C56.25,71.8506051 58.2,71.0514851 60,70.0026403 C58.3,67.6052805 58.55,64.2589659 60.7,62.1113311 C62.85,59.9636964 66.2,59.7139714 68.6,61.4121012 C69.65,59.6140814 70.45,57.7161716 71,55.6684268 C68.15,55.1689769 66,52.6717272 66,49.6250825 Z M48.25,60.9126513 C42.1,60.9126513 37.05,55.9181518 37.05,49.7249725 C37.05,43.5317932 42.05,38.5372937 48.25,38.5372937 C54.45,38.5372937 59.45,43.5317932 59.45,49.7249725 C59.45,55.9181518 54.45,60.9126513 48.25,60.9126513 Z" id="形状" fill="#0B7AFF"></path>
            <path d="M48.2250559,61 C46.7217002,61 45.2684564,60.6994969 43.8653244,60.0984908 C42.5123043,59.5475685 41.3597315,58.7462269 40.3073826,57.6944662 C39.3051454,56.6927893 38.5033557,55.490777 37.9020134,54.1385131 C37.3006711,52.7361655 37,51.2837339 37,49.7812186 C37,48.2787032 37.3006711,46.8262717 37.9020134,45.423924 C38.4532438,44.0716601 39.2550336,42.9197317 40.3073826,41.8679709 C41.3096197,40.866294 42.5123043,40.0649525 43.8653244,39.4639463 C46.6214765,38.3120179 49.7785235,38.3120179 52.5346756,39.4639463 C53.8876957,40.0148686 55.0402685,40.8162102 56.0926174,41.8679709 C57.0948546,42.8696478 57.8966443,44.0716601 58.4979866,45.423924 C59.0993289,46.7761878 59.4,48.2787032 59.4,49.7812186 C59.4,51.2837339 59.0993289,52.7361655 58.4979866,54.1385131 C57.9467562,55.490777 57.1449664,56.6427054 56.0926174,57.6944662 C55.0903803,58.6961431 53.8876957,59.4974846 52.5346756,60.0984908 C51.1816555,60.6994969 49.7284116,61 48.2250559,61 Z M48.2250559,46.4256009 C47.7740492,46.4256009 47.3230425,46.5257686 46.9221477,46.6760201 C46.5212528,46.8262717 46.1704698,47.0766909 45.8196868,47.4272778 C45.5190157,47.7277809 45.2684564,48.1284516 45.0680089,48.5291224 C44.8675615,48.9297932 44.8174497,49.3805478 44.8174497,49.8313024 C44.8174497,50.282057 44.9176734,50.7328116 45.0680089,51.1835662 C45.2183445,51.584237 45.4689038,51.9348239 45.8196868,52.2854108 C46.1203579,52.5859139 46.5212528,52.8363331 46.9221477,53.0366685 C47.7740492,53.3872554 48.7261745,53.3872554 49.5780761,53.0366685 C49.9789709,52.886417 50.3297539,52.6359978 50.6805369,52.2854108 C50.9812081,51.9849078 51.2317673,51.584237 51.4322148,51.1835662 C51.6326622,50.7828955 51.682774,50.3321409 51.682774,49.8813862 C51.682774,49.4306316 51.5825503,48.979877 51.4322148,48.5792063 C51.2818792,48.1785355 51.0313199,47.8279486 50.6805369,47.4773617 C50.3798658,47.1768586 49.9789709,46.9264394 49.5780761,46.726104 C49.1270694,46.5257686 48.6760626,46.4256009 48.2250559,46.4256009 Z" id="形状" fill="#4EF9BB"></path>
            <path d="M46.6044334,99.6 C43.2548305,99.6 39.8552335,99.25 36.6056188,98.6 C32.4061166,97.75 29.7064367,93.65 30.5563359,89.45 C31.4062352,85.25 35.5057492,82.55 39.7052513,83.4 C44.2047179,84.3 49.0041489,84.3 53.5536095,83.4 C55.7533487,82.95 57.9030939,82.3 59.9528509,81.4 C61.9526138,80.55 63.9523767,79.5 65.7521633,78.25 C67.55195,77 69.2517485,75.6 70.8015647,74.05 C73.8012091,71.05 78.7006283,71.05 81.7502667,74.05 C84.7499111,77.05 84.7499111,81.95 81.7502667,85 C79.5005334,87.25 77.0508238,89.3 74.401138,91.05 C71.7514521,92.85 68.9017899,94.4 65.9521396,95.65 C62.9524953,96.9 59.8028687,97.9 56.603248,98.55 C53.3536332,99.25 49.9540363,99.6 46.6044334,99.6 Z" id="路径" fill="#0B7AFF"></path>
        </g>
    </g>
</svg>