<?xml version="1.0" encoding="UTF-8"?>
<svg width="16px" height="16px" viewBox="0 0 16 16" version="1.1" xmlns="http://www.w3.org/2000/svg" xmlns:xlink="http://www.w3.org/1999/xlink">
    <title>编组 42备份 5</title>
    <g id="导入导出组件" stroke="none" stroke-width="1" fill="none" fill-rule="evenodd">
        <g id="编组-42备份-5">
            <path d="M8,0.35 C11.8797048,0.35 15.1212567,3.25012899 15.5915913,7.05038867 L15.6183144,7.29948732 L14.3236499,7.41714659 C14.0279495,4.16340582 11.2901881,1.65 8,1.65 C4.49299184,1.65 1.65,4.49299184 1.65,8 C1.65,11.2433993 4.0911447,13.9457338 7.27063266,14.3086376 L7.49897165,14.3305564 L7.39795263,15.6266255 C3.43228635,15.3175311 0.35,12.0006943 0.35,8 C0.35,3.77502166 3.77502166,0.35 8,0.35 Z M9.5,13.5 C10.0522847,13.5 10.5,13.9477153 10.5,14.5 C10.5,15.0522847 10.0522847,15.5 9.5,15.5 C8.94771525,15.5 8.5,15.0522847 8.5,14.5 C8.5,13.9477153 8.94771525,13.5 9.5,13.5 Z M13,12 C13.5522847,12 14,12.4477153 14,13 C14,13.5522847 13.5522847,14 13,14 C12.4477153,14 12,13.5522847 12,13 C12,12.4477153 12.4477153,12 13,12 Z M8.12,3.87333333 C8.13516113,3.88470418 8.14862915,3.8981722 8.16,3.91333333 L10.76,7.38 C10.8262742,7.46836556 10.8083656,7.59372583 10.72,7.66 C10.6853808,7.68596443 10.643274,7.7 10.6,7.7 L8.65,7.7 L8.65,12.0589705 L7.35,12.0589705 L7.35,7.7 L5.4,7.7 C5.28954305,7.7 5.2,7.61045695 5.2,7.5 C5.2,7.45672596 5.21403557,7.41461923 5.24,7.38 L7.84,3.91333333 C7.90627417,3.82496777 8.03163444,3.80705916 8.12,3.87333333 Z M14.5,8.5 C15.0522847,8.5 15.5,8.94771525 15.5,9.5 C15.5,10.0522847 15.0522847,10.5 14.5,10.5 C13.9477153,10.5 13.5,10.0522847 13.5,9.5 C13.5,8.94771525 13.9477153,8.5 14.5,8.5 Z" id="形状结合" fill="#F78E37" fill-rule="nonzero"></path>
            <g id="编组-40" transform="translate(8.500000, 8.500000)"></g>
            <g id="编组-43" transform="translate(4.500000, 3.700000)"></g>
        </g>
    </g>
</svg>