<?xml version="1.0" encoding="UTF-8"?>
<svg width="100px" height="100px" viewBox="0 0 100 100" version="1.1" xmlns="http://www.w3.org/2000/svg" xmlns:xlink="http://www.w3.org/1999/xlink">
    <!-- Generator: Sketch 63.1 (92452) - https://sketch.com -->
    <title>realtime-cloud</title>
    <desc>Created with Sketch.</desc>
    <g id="realtime-cloud" stroke="none" stroke-width="1" fill="none" fill-rule="evenodd">
        <g id="编组" transform="translate(0.056440, 4.400000)" fill-rule="nonzero">
            <path d="M78.5409275,46.7608912 C79.4957588,52.75675 85.0420318,56.8289761 90.928875,55.8564628 C96.8157182,54.8839494 100.813904,49.2349676 99.8590725,43.2391088 C98.9042412,37.24325 93.3579682,33.1710239 87.471125,34.1435372 C81.5842818,35.1160506 77.5860962,40.7650324 78.5409275,46.7608912 L78.5409275,46.7608912 Z" id="路径" fill="#31A855"></path>
            <path d="M27.4064635,50.1476049 L37.1158613,50.1476049 C40.6889197,50.1476049 44.1843028,51.2400519 46.9806094,53.5029781 C48.8448138,55.0636168 51.2527444,56 53.8160254,56 C60.1853903,56 65.2342772,50.4597326 64.5352005,43.983082 C63.9914743,38.9890381 59.9523648,35.0094094 54.9811531,34.4631859 C52.0294962,34.1510581 49.2331897,35.0874414 47.1359598,36.726112 C44.4173284,38.9110062 41.0772956,40.2375491 37.5819124,40.2375491 L27.0180876,40.2375491 C23.5227044,40.2375491 20.1826716,38.9110062 17.4640402,36.726112 C15.3668103,35.0094094 12.5705038,34.1510581 9.61884686,34.4631859 C4.64763521,35.0094094 0.608525744,38.9890381 0.0647994701,43.983082 C-0.634277168,50.5377645 4.41460966,56 10.7839746,56 C13.3472556,56 15.7551862,55.0636168 17.6193906,53.5029781 C20.338022,51.2400519 23.9110803,50.1476049 27.4064635,50.1476049 Z" id="路径" fill="#31A855"></path>
            <path d="M28.5145832,21.726875 C31.0747858,21.726875 33.4798246,20.7904918 35.3417902,19.2298531 C38.0571566,16.9669269 41.6259239,15.8744799 45.1946911,15.8744799 L54.8924283,15.8744799 C58.4611956,15.8744799 61.952381,16.9669269 64.7453293,19.2298531 C66.6072948,20.7904918 69.0123336,21.726875 71.5725362,21.726875 C77.9342518,21.726875 82.9770752,16.1866076 82.2788381,9.70995697 C81.7357648,4.71591311 77.7015061,0.736284415 72.7362647,0.190060868 C69.7881526,-0.122066873 66.9952043,0.81431635 64.9004931,2.45298699 C62.1851267,4.63788118 58.8491051,5.96442408 55.3579197,5.96442408 L44.7291998,5.96442408 C41.2380144,5.96442408 37.9019928,4.63788118 35.1866264,2.45298699 C33.0919152,0.736284415 30.2989669,-0.122066873 27.3508548,0.190060868 C22.3856133,0.736284415 18.3513547,4.71591311 17.8082814,9.70995697 C17.1100443,16.1866076 22.1528676,21.726875 28.5145832,21.726875 Z" id="路径" fill="#4B79FF"></path>
            <path d="M72.6586828,69.3900609 C69.7105707,69.0779331 66.9176224,70.0143164 64.8229112,71.652987 C62.1075448,73.8378812 58.7715232,75.1644241 55.2803378,75.1644241 L44.7291998,75.1644241 C41.2380144,75.1644241 37.9019928,73.8378812 35.1866264,71.652987 C33.0919152,69.9362844 30.2989669,69.0779331 27.3508548,69.3900609 C22.3856133,69.9362844 18.3513547,73.9159131 17.8082814,78.909957 C17.1100443,85.4646395 22.1528676,90.926875 28.5145832,90.926875 C31.0747858,90.926875 33.4798246,89.9904918 35.3417902,88.4298531 C38.0571566,86.1669269 41.6259239,85.0744799 45.1946911,85.0744799 L54.8924283,85.0744799 C58.4611956,85.0744799 61.952381,86.1669269 64.7453293,88.4298531 C66.6072948,89.9904918 69.0123336,90.926875 71.5725362,90.926875 C77.9342518,90.926875 82.9770752,85.3866076 82.2788381,78.909957 C81.6581829,73.9159131 77.6239242,69.8582525 72.6586828,69.3900609 L72.6586828,69.3900609 Z" id="路径" fill="#F07B01"></path>
        </g>
    </g>
</svg>