<?xml version="1.0" encoding="UTF-8"?>
<svg width="100px" height="100px" viewBox="0 0 100 100" version="1.1" xmlns="http://www.w3.org/2000/svg" xmlns:xlink="http://www.w3.org/1999/xlink">
    <!-- Generator: Sketch 63.1 (92452) - https://sketch.com -->
    <title>dispatch</title>
    <desc>Created with Sketch.</desc>
    <g id="dispatch" stroke="none" stroke-width="1" fill="none" fill-rule="evenodd">
        <path d="M4.63972533,8 L95.3602747,8 C98.4534288,8 100,10.3333275 100,15 L100,15 C100,19.6666725 98.4534288,22 95.3602747,22 L4.63972533,22 C1.54657124,22 0,19.6666725 0,15 L0,15 C0,10.3333275 1.54657124,8 4.63972533,8 L4.63972533,8 Z" id="路径" fill="#FF8839" fill-rule="nonzero"></path>
        <path d="M4.63972533,43 L95.3602747,43 C98.4534288,43 100,45.3333275 100,50 L100,50 C100,54.6666725 98.4534288,57 95.3602747,57 L4.63972533,57 C1.54657124,57 0,54.6666725 0,50 L0,50 C0,45.3333275 1.54657124,43 4.63972533,43 L4.63972533,43 Z" id="路径" fill="#1CC09F" fill-rule="nonzero"></path>
        <path d="M4.63972533,78 L95.3602747,78 C98.4534288,78 100,80.3333275 100,85 L100,85 C100,89.6666725 98.4534288,92 95.3602747,92 L4.63972533,92 C1.54657124,92 0,89.6666725 0,85 L0,85 C0,80.3333275 1.54657124,78 4.63972533,78 Z" id="路径" fill="#3C81FF" fill-rule="nonzero"></path>
        <path d="M62.8092337,3 L68.1907663,3 C71.3969261,3 73,4.75150082 73,8.2545156 L73,21.7454844 C73,25.2484992 71.3969261,27 68.1907663,27 L62.8092337,27 C59.6030739,27 58,25.2484992 58,21.7454844 L58,8.2545156 C58,4.75150082 59.6030739,3 62.8092337,3 Z" id="路径" fill="#DC6618" fill-rule="nonzero"></path>
        <path d="M25.8092337,38 L31.1907663,38 C34.3969261,38 36,39.7515008 36,43.2545156 L36,56.7454844 C36,60.2484992 34.3969261,62 31.1907663,62 L25.8092337,62 C22.6030739,62 21,60.2484992 21,56.7454844 L21,43.2545156 C21,39.7515008 22.6030739,38 25.8092337,38 L25.8092337,38 Z" id="路径" fill="#07A182" fill-rule="nonzero"></path>
        <path d="M45.8092337,73 L51.1907663,73 C54.3969261,73 56,74.7515008 56,78.2545156 L56,91.7454844 C56,95.2484992 54.3969261,97 51.1907663,97 L45.8092337,97 C42.6030739,97 41,95.2484992 41,91.7454844 L41,78.2545156 C41,74.7515008 42.6030739,73 45.8092337,73 L45.8092337,73 Z" id="路径" fill="#1051C7" fill-rule="nonzero"></path>
    </g>
</svg>