<?xml version="1.0" encoding="UTF-8"?>
<svg width="100px" height="100px" viewBox="0 0 100 100" version="1.1" xmlns="http://www.w3.org/2000/svg" xmlns:xlink="http://www.w3.org/1999/xlink">
    <!-- Generator: Sketch 63.1 (92452) - https://sketch.com -->
    <title>kafka</title>
    <desc>Created with Sketch.</desc>
    <g id="kafka" stroke="none" stroke-width="1" fill="none" fill-rule="evenodd">
        <g transform="translate(0.000000, 11.000000)" fill-rule="nonzero" id="路径">
            <path d="M64.4175105,43.5984029 L64.4175105,47.9013136 C61.4480054,48.5807262 59.1636719,51.5248118 59.1636719,54.6954391 C59.1636719,58.5454789 62.3616746,61.716 66.2449559,61.716 C70.1281302,61.716 73.3261329,58.5454789 73.3261329,54.6954391 C73.3261329,51.5248118 71.2702969,48.8071616 68.3007918,47.9013136 L68.3007918,43.3718613 C72.4124637,43.1454258 75.8388569,41.1071882 78.1230834,38.1631025 L86.1180366,42.6924487 C86.1180366,42.9189904 85.889539,43.1454258 85.889539,43.3718613 C85.889539,47.2219011 89.0875417,50.3925284 92.970823,50.3925284 C96.8541044,50.3925284 100.052,47.2219011 100.052,43.3718613 C99.8236095,39.5219276 96.8539973,36.5777358 92.970823,36.5777358 C90.6864895,36.5777358 88.8591512,37.7101255 87.2600963,39.295386 L79.4936407,34.7660398 C79.9505288,33.4072147 80.1789193,32.2748251 80.1789193,30.916 C80.1789193,28.8777624 79.7220312,27.0659602 78.808362,25.7071351 L87.7169844,20.7248118 C89.0875417,22.0836369 90.9149871,22.7630495 92.7423254,22.7630495 C96.6256068,22.7630495 99.8236095,19.5924222 99.8236095,15.7424885 C99.8236095,11.8925549 96.6256068,8.72182147 92.7423254,8.72182147 C88.8590441,8.72182147 85.6611485,11.8924487 85.6611485,15.7424885 C85.6611485,16.1953595 85.889539,16.874772 85.889539,17.3277491 L76.7525261,22.536614 C74.4682996,20.2718347 71.4986875,18.6865742 68.0722942,18.4601387 L68.0722942,13.9306864 C71.0419064,13.0248384 73.0977423,10.3071882 73.0977423,7.13656092 C73.0977423,3.28652111 69.8997397,0.116 66.0164583,0.116 C62.133177,0.116 59.1636719,3.28652111 59.1636719,7.36299638 C59.1636719,10.5336236 61.4480054,13.2512738 64.4175105,14.1571218 L64.4175105,19.1395513 C59.1636719,20.4983764 55.052,25.4806996 55.052,31.3689771 C55.052,37.2571484 59.1636719,42.0130362 64.4175105,43.5984029 Z" fill="#FF6714"></path>
            <path d="M0,52.7490641 C0,66.7234897 11.3132974,78.052 25.268957,78.052 L77.3496241,78.052 C89.8652319,78.052 100,67.8478434 100,55.2740514 L90.0015997,55.2740514 C90.0015997,62.3306974 84.3309667,68.040155 77.3496241,68.040155 L25.268957,68.040155 C16.8352614,68.040155 9.99840026,61.1941004 9.99840026,52.7490641 C9.99840026,45.3665331 15.2639657,39.0731849 22.4177428,37.7231251 L26.5944899,36.9348899 L26.4895372,32.6801943 C26.4870159,32.5779833 26.4857623,32.4696712 26.4857623,32.3549359 C26.4857623,23.9098996 33.3226234,17.063845 41.756319,17.063845 C45.7785595,17.063845 49.5430062,18.6211006 52.3753326,21.366257 L59.3291009,14.1723696 C54.6501918,9.63746268 48.400199,7.052 41.756319,7.052 C28.9600437,7.052 18.3853321,16.5764348 16.7166323,28.9318678 C6.87096805,32.4710032 0,41.8959064 0,52.7490641 Z" fill="#3C81FF"></path>
        </g>
    </g>
</svg>