<?xml version="1.0" encoding="UTF-8"?>
<svg width="100px" height="100px" viewBox="0 0 100 100" version="1.1" xmlns="http://www.w3.org/2000/svg" xmlns:xlink="http://www.w3.org/1999/xlink">
    <!-- Generator: Sketch 63.1 (92452) - https://sketch.com -->
    <title>mysql</title>
    <desc>Created with Sketch.</desc>
    <g id="mysql" stroke="none" stroke-width="1" fill="none" fill-rule="evenodd">
        <g id="mysql-cloud-01" transform="translate(0.000000, 8.200000)" fill-rule="nonzero">
            <path d="M49.1051383,56.4561525 C49.5035573,57.3545927 49.9019763,58.0533795 50.4,58.702253 C45.8181818,59.5008666 40.6885375,60 35.2600791,60 C15.7873518,59.9500867 0,54.1102253 0,46.8727903 L0,31.2 C0,38.437435 15.7873518,44.2772964 35.2600791,44.2772964 C39.7920949,44.2772964 44.1249012,43.9279029 48.1090909,43.3788562 C47.2126482,47.9708839 47.5612648,52.912305 49.1051383,56.4561525 Z" id="路径" fill="#1DA4FF"></path>
            <path d="M35.2,44.2972973 C39.735082,44.2972973 44.0708197,43.9483483 48.0577049,43.4 C47.1606557,47.9861862 47.5095082,52.9213213 49.1042623,56.4606607 C49.5029508,57.357958 49.9016393,58.0558559 50.4,58.7039039 C45.815082,59.5015015 40.6819672,60 35.2498361,60" id="路径" fill="#9AD4FC"></path>
            <path d="M67.554314,68.6238483 C68.2033946,69.2248852 68.8524752,69.9260949 70.6,71.0279958 C69.8510608,78.0400928 54.3729844,83.599684 35.3499293,83.599684 C15.8275813,83.6497704 0,77.7395744 0,70.5271318 L0,54.8 C0,62.062529 15.8275813,67.9226386 35.3499293,67.9226386 C46.1845827,67.9226386 55.9207921,66.119528 62.361669,63.2646028 C62.7611033,63.7153804 63.1605375,64.1661581 63.609901,64.6169358 C63.9594059,64.9675406 64.2589816,65.3181455 64.5585573,65.7188367 C65.1577086,66.4200464 65.8067893,67.2214289 66.7055163,67.972725 C67.1049505,68.1730706 67.3046676,68.3734163 67.554314,68.6238483 L67.554314,68.6238483 Z" id="路径" fill="#0075EA"></path>
            <path d="M99.3002224,78.3530429 C98.3006672,76.1621037 96.7513566,74.2201348 94.9521573,72.6267245 C94.1525131,71.8798134 93.2029357,71.2324904 92.3533137,70.4855793 C91.5036918,69.6888741 90.9539365,68.7427867 90.2042701,67.8464934 C90.2042701,67.8464934 90.1043145,67.7469053 90.1043145,67.7469053 C91.0039142,67.7469053 92.1034249,67.4979349 92.9530469,67.3485527 C94.3524241,67.0995823 95.6018681,67.2987586 97.0512232,67.0497882 C97.7009341,66.900406 98.4006227,66.8008179 99.0503336,66.6514357 C99.0503336,66.6514357 99.1003114,66.2530831 99.1003114,66.2530831 C98.9503781,65.555966 97.8008896,64.4604964 97.3510898,63.8629675 C96.7013789,62.9666742 96.0016902,62.120175 95.3020016,61.3234698 C93.8526465,59.6802654 92.2033805,58.2362373 90.4041811,56.8917973 C89.1047593,55.9457099 87.505471,55.2485929 86.4059603,54.0535351 C83.6571835,51.1156848 82.9574948,46.2358656 81.9079619,42.5013101 C81.4081843,40.7087234 81.1083177,38.9659309 80.4086291,37.3227264 C76.9601636,29.5050569 72.9119651,24.5754436 66.4148562,19.4964482 C65.015479,18.4009785 63.3162351,17.8532437 61.467058,17.2059208 C60.6174361,17.0565386 59.6678586,17.0565386 58.8682145,16.7577741 C57.3688817,16.2598334 56.469282,14.7660112 55.219838,13.8697179 C53.8204607,12.8240423 52.0712391,11.8281609 50.3220175,11.6289846 C48.9226402,11.4796023 47.6232184,11.8779549 46.8235743,13.5211594 C45.424197,16.2598334 47.8731072,19.2972719 48.6727514,20.8408881 C49.5723511,22.5338866 50.3220175,23.9779148 50.6718618,25.8700896 C51.2715949,29.0569103 51.871328,32.4429072 53.5205941,35.2811694 C54.0203717,36.1774627 54.3702161,36.6754035 54.0203717,37.6214909 C53.7205052,38.4679901 53.4706164,39.4140775 53.120772,40.2605768 C51.1716394,44.9910137 51.1216616,51.1156848 52.8209055,54.9498284 C53.3206831,56.1448862 54.6201049,58.6345898 56.8191263,57.9374728 C58.7182812,57.3399439 58.5683479,54.8004462 59.3180143,52.7090951 C59.4679476,52.2111544 59.4679476,51.8625959 59.7178364,51.5140373 C59.7178364,51.5140373 59.7178364,51.6136255 59.7178364,51.6136255 C60.417525,53.6053884 61.0172581,55.3979751 62.1167689,57.1407676 C68.4139666,66.9999942 79.4590516,72.5271363 90.0543368,76.5106622 C90.1043145,76.5106622 90.1542923,76.5604563 90.2542478,76.5604563 C92.303336,77.3073674 94.2024909,78.3032488 96.3015568,78.9505718 C97.2511342,79.2493362 98.8504226,79.8468651 99.8,79.797071 C99.6500667,79.2991303 99.5001334,78.8011896 99.3002224,78.3530429 Z M59.8677697,26.0692658 C59.3679921,24.4260614 58.96817,22.7330629 57.918637,21.438417 C56.669193,20.4425356 58.3184591,19.1478896 59.6678586,19.5462422 C59.7678141,19.5462422 59.8677697,19.5462422 59.9677252,19.5462422 C59.9677252,19.5462422 59.9677252,19.5462422 59.9677252,19.5462422 L59.9677252,19.5462422 L59.9677252,19.5462422 C59.9677252,19.5462422 59.9677252,19.5462422 59.9677252,19.5462422 C60.6674138,19.5960363 61.0172581,20.1935652 61.5170357,20.6417118 C63.0663463,22.4342985 61.8668801,25.1729725 59.8677697,26.0692658 Z" id="形状" fill="#1DED98"></path>
            <path d="M48.5624294,32.0562074 C48.9612994,33.1547067 49.4100282,34.3530696 49.9584746,35.4016371 C45.4711864,36.1506139 40.5351695,36.6 35.2501412,36.6 C15.805226,36.6 0,30.7579809 0,23.5178718 L0,13.0821282 C0,5.8420191 15.805226,0 35.3,0 C54.794774,0 70.6,5.8420191 70.6,13.0821282 L70.6,18.4248295 C69.4532486,17.3762619 68.2566384,16.3776262 67.0600282,15.4289222 C65.464548,14.1806276 63.619774,13.5315143 61.8248588,12.8824011 L61.1268362,12.6327422 L57.9857345,12.0834925 C57.8361582,11.9336971 57.6865819,11.7839018 57.5370056,11.5841746 C57.2378531,11.2346521 56.9387006,10.8851296 56.5896893,10.5855389 C54.9443503,9.18744884 51.7035311,6.79072306 48.6122881,6.39126876 C46.169209,5.99181446 43.8258475,7.29004093 42.7788136,9.53697135 C41.0337571,13.0321965 43.1776836,16.6272851 44.3742938,18.5746248 C44.5737288,18.8742156 44.7233051,19.1738063 44.8728814,19.3735334 L45.3216102,20.172442 C45.8201977,21.0712142 46.3187853,22.0199181 46.6179379,22.8188267 C46.7176554,23.1683492 46.7675141,23.5178718 46.8173729,23.9173261 C46.8672316,24.3667121 46.9170904,24.8160982 47.0168079,25.2654843 L47.415678,27.1129604 C47.615113,28.7107776 48.0139831,30.4583902 48.5624294,32.0562074 L48.5624294,32.0562074 Z" id="路径" fill="#2EE4E4"></path>
        </g>
    </g>
</svg>