<?xml version="1.0" encoding="UTF-8"?>
<svg width="120px" height="120px" viewBox="0 0 120 120" version="1.1" xmlns="http://www.w3.org/2000/svg" xmlns:xlink="http://www.w3.org/1999/xlink">
    <!-- Generator: Sketch 52.4 (67378) - http://www.bohemiancoding.com/sketch -->
    <title>Logo10-Colour </title>
    <desc>Created with Sketch.</desc>
    <defs>
        <linearGradient x1="45.9428644%" y1="50%" x2="78.2843381%" y2="1.72852372%" id="linearGradient-1">
            <stop stop-color="#278CEF" offset="0%"></stop>
            <stop stop-color="#0459D2" offset="100%"></stop>
        </linearGradient>
        <linearGradient x1="90.7426108%" y1="0%" x2="29.3193368%" y2="71.6872136%" id="linearGradient-2">
            <stop stop-color="#0BC0D0" offset="0%"></stop>
            <stop stop-color="#13B1D9" offset="38.5939514%"></stop>
            <stop stop-color="#2E81F7" offset="100%"></stop>
        </linearGradient>
    </defs>
    <g id="Logo10-Colour-" stroke="none" stroke-width="1" fill="none" fill-rule="evenodd">
        <g id="分组-2-copy-10" transform="translate(65.793524, 79.709903) rotate(25.000000) translate(-65.793524, -79.709903) translate(8.293524, 8.709903)" fill-rule="nonzero">
            <path d="M63.8022875,45.8400057 C61.9708927,44.6149578 60.638525,42.6791533 60.2645235,40.3603133 C59.545122,35.8999663 62.6440492,31.71145 67.1861711,31.0050004 C71.1236636,30.3925906 74.8531334,32.5979479 76.2449221,36.1016418 C76.8130299,37.3012446 77.0831905,38.6388628 76.9885165,40.0021238 C77.0005531,40.4286359 77.011528,40.7095712 77.0214411,40.8449297 C77.0332924,41.0067531 77.0579206,41.2335375 77.0953256,41.525283 C77.248835,42.5795524 77.5261853,43.4769927 77.9273764,44.217604 C78.6246762,45.5048408 80.0649704,47.1905563 82.5545264,48.0115401 C83.5364661,48.3353555 84.7296581,48.4289232 86.1341024,48.2922431 C87.3085305,48.0776439 88.5531956,48.1142202 89.7900794,48.4456422 C94.1491654,49.6136558 96.7609087,54.0014467 95.6235714,58.2460474 C95.2719105,59.5584637 94.6030026,60.7035244 93.7177963,61.6247243 L90.4126503,58.7120854 L93.8308117,61.8088148 C92.9924744,62.7869324 91.907587,63.5756472 90.622944,64.0687754 C86.4682387,65.6636174 81.7974701,63.5628048 80.1904902,59.3764792 C79.7345122,58.1886158 79.5742043,56.9604769 79.6734031,55.7741222 C79.6714317,54.3686666 79.4589325,53.1977804 79.0359056,52.2614635 C77.9633865,49.887577 76.1255925,48.6479565 74.7621776,48.0998562 C73.9777373,47.7845069 73.04791,47.6090816 71.9726955,47.5735803 C71.6756576,47.5687805 71.4452008,47.5694529 71.2813248,47.5755976 C71.1442494,47.5807373 70.8607035,47.6009083 70.430687,47.6361105 C68.0365496,48.0658297 65.6101544,47.3695582 63.8022875,45.8400057 Z" id="合并形状" fill="#085FD5" transform="translate(78.025290, 47.752765) rotate(-3.000000) translate(-78.025290, -47.752765) "></path>
            <path d="M39.0005671,128.110436 L38.9262149,128.254746 C32.1283562,125.091696 27.4225942,118.256971 27.4225942,110.335318 C27.4225942,100.672888 34.4237697,92.6275771 43.6830291,90.8899984 C44.7114955,90.594444 45.3869431,90.3926398 45.7093718,90.2845859 C46.0948407,90.1554057 46.6298282,89.9556052 47.3143342,89.6851846 C49.7759672,88.6650647 51.7759248,87.4535117 53.3142072,86.0505257 C55.9878552,83.6120326 59.1459734,79.1853204 59.519929,72.8457485 C59.6674259,70.3452716 59.1179528,67.4948712 57.8715098,64.2945472 C56.5854953,61.6812474 55.8640385,58.7461436 55.8640385,55.6443989 C55.8640385,44.7130799 64.8247681,35.851495 75.8783882,35.851495 C78.8285975,35.851495 81.6297187,36.4827546 84.1511752,37.616142 L84.1752248,37.5683068 C87.0364031,38.969732 89.6125642,41.0766977 91.6221814,43.8426985 C98.1214249,52.7881398 96.2339353,65.2391128 87.4063554,71.652725 C84.9015434,73.4725775 82.1071041,74.6108001 79.2405921,75.1033307 C75.9232961,75.9723037 73.2983809,77.2000118 71.3658467,78.7864549 C66.4662056,82.8086357 64.7483089,87.9616644 64.3511414,91.5560966 C64.1226312,93.6241517 64.3201659,95.9535127 64.9437454,98.5441795 C65.1278393,99.2567955 65.2810494,99.8069753 65.4033757,100.194719 C65.5056966,100.51905 65.7398755,101.184077 66.1059124,102.189799 C70.1469376,110.702575 67.7664626,121.088802 59.9635732,126.757933 C53.6545502,131.341707 45.5080864,131.601114 39.0005764,128.110418 Z" id="合并形状-copy-2" fill="url(#linearGradient-1)" transform="translate(61.455432, 83.171918) rotate(-329.000000) translate(-61.455432, -83.171918) "></path>
            <path d="M31.0877019,108.635965 C31.0904948,108.636709 31.0932874,108.637455 31.0960798,108.638203 L31.0531633,108.083403 L31.0877019,108.635965 Z M31.6380542,124.519829 C22.6357136,125.335216 13.600747,121.167441 8.70286042,113.015989 C2.63138054,102.91135 4.94936155,90.0674963 13.6089801,82.3911379 C14.506401,81.4312438 15.0909469,80.7927808 15.3626179,80.4757489 C15.687405,80.0967319 16.1252837,79.5492475 16.6762538,78.8332955 C18.6277347,76.208768 19.9727109,73.6761944 20.7111822,71.2355747 C21.9946998,66.9935979 22.5391235,60.3658367 18.9494266,53.4994899 C17.5335654,50.7912405 15.1638084,48.1580955 11.8401556,45.6000549 C8.84369026,43.6809449 6.23958345,41.0680513 4.29057267,37.8243527 C-2.57822566,26.3927526 1.29055729,11.4552614 12.9317413,4.4605324 C16.0455059,2.58959385 19.3999555,1.47642233 22.7750065,1.06826349 L22.7653045,0.942842178 C26.6606385,0.616563163 30.7037387,1.20982079 34.5692609,2.85063762 C47.0706318,8.15715473 52.980661,22.4108447 47.7696806,34.6871453 C46.291073,38.1705263 44.0759537,41.1204131 41.3757383,43.4378738 C38.4404415,46.4335828 36.4602098,49.3709086 35.4350431,52.2498513 C32.8358916,59.5489645 34.2974232,66.0364556 36.1588187,70.0585187 C37.2297719,72.3726111 38.9141249,74.6933534 41.2118778,77.0207455 C41.8571272,77.6530497 42.3669395,78.1342651 42.7413148,78.4643919 C43.0544642,78.7405292 43.7221783,79.2914256 44.7444569,80.1170812 C54.3881433,86.5135479 58.4710848,98.9098054 53.8649862,109.761094 C50.2308802,118.322511 42.1477065,123.661233 33.348192,124.308439 C32.7980128,124.431263 32.223362,124.501515 31.6380542,124.519829 Z" id="合并形状" fill="url(#linearGradient-2)"></path>
        </g>
    </g>
</svg>