<?xml version="1.0" encoding="UTF-8"?>
<svg width="100px" height="100px" viewBox="0 0 100 100" version="1.1" xmlns="http://www.w3.org/2000/svg" xmlns:xlink="http://www.w3.org/1999/xlink">
    <!-- Generator: Sketch 63.1 (92452) - https://sketch.com -->
    <title>stream</title>
    <desc>Created with Sketch.</desc>
    <defs>
        <linearGradient x1="4.89735246%" y1="41.8045044%" x2="91.5878736%" y2="61.5100276%" id="linearGradient-1">
            <stop stop-color="#FDDE15" offset="0%"></stop>
            <stop stop-color="#FA7909" offset="100%"></stop>
        </linearGradient>
    </defs>
    <g id="stream" stroke="none" stroke-width="1" fill="none" fill-rule="evenodd">
        <g id="流计算" transform="translate(3.600000, 0.000000)">
            <path d="M90.2589641,68.685259 C94.2031873,77.3306773 89.6414343,88.8645418 80.8366534,93.4063745 C51.8326693,108.366534 21.4143426,93.7250996 14.7011952,87.8685259 C-4.78087649,70.8565737 -3.28685259,46.7928287 9.82071713,36.7330677 C14.7808765,32.9282869 20.8366534,30.0398406 27.1115538,29.3824701 C29.4820717,29.123506 32.1713147,29.2231076 34.4023904,30.1195219 C34.7211155,30.2390438 35.1992032,30.5378486 35.3187251,30.6772908 C35.2589641,30.6772908 35.1992032,30.6972112 35.1394422,30.6972112 C22.5697211,31.1553785 10.8964143,50.7171315 22.8884462,59.6613546 C30.0796813,65.0199203 40.1792829,63.9641434 48.5059761,62.9880478 C55,62.2310757 61.4342629,60.9960159 67.8884462,60 C73.7848606,59.0836653 80.1992032,58.8844622 85.2589641,62.5896414 C87.5697211,64.3027888 89.2231076,66.3944223 90.2589641,68.685259 Z" id="矩形" fill="url(#linearGradient-1)"></path>
            <path d="M0,36.1952191 C2.92828685,26.9521912 8.90438247,18.7649402 17.8884462,11.6135458 C32.4701195,-5.55111512e-17 53.625498,-0.517928287 63.8844622,0.597609562 C72.0517928,1.47410359 91.6533865,5.69721116 92.7689243,21.6932271 C93.8844622,37.689243 77.4701195,45.2788845 55.7968127,31.1553785 C35.7968127,18.12749 17.1912351,19.8007968 0,36.1952191 Z" id="路径" fill="#4284F5"></path>
        </g>
    </g>
</svg>