<?xml version="1.0" encoding="UTF-8"?>
<svg width="100px" height="100px" viewBox="0 0 100 100" version="1.1" xmlns="http://www.w3.org/2000/svg" xmlns:xlink="http://www.w3.org/1999/xlink">
    <!-- Generator: Sketch 63.1 (92452) - https://sketch.com -->
    <title>turing</title>
    <desc>Created with Sketch.</desc>
    <defs>
        <linearGradient x1="100%" y1="22.4081633%" x2="59.1679374%" y2="77.5918367%" id="linearGradient-1">
            <stop stop-color="#2401F9" offset="0%"></stop>
            <stop stop-color="#25A9FD" offset="100%"></stop>
        </linearGradient>
        <linearGradient x1="100%" y1="-0.286122449%" x2="59.1679374%" y2="100.286122%" id="linearGradient-2">
            <stop stop-color="#2401F9" offset="0%"></stop>
            <stop stop-color="#25A9FD" offset="100%"></stop>
        </linearGradient>
        <linearGradient x1="91.369809%" y1="21.8210257%" x2="59.1679374%" y2="77.308643%" id="linearGradient-3">
            <stop stop-color="#2401F9" offset="0%"></stop>
            <stop stop-color="#0BC0D0" offset="100%"></stop>
        </linearGradient>
        <linearGradient x1="91.369809%" y1="-1.96057227%" x2="59.1679374%" y2="100.355726%" id="linearGradient-4">
            <stop stop-color="#2401F9" offset="0%"></stop>
            <stop stop-color="#0BC0D0" offset="100%"></stop>
        </linearGradient>
    </defs>
    <g id="turing" stroke="none" stroke-width="1" fill="none" fill-rule="evenodd">
        <g id="logo16-color" transform="translate(-1.400000, -5.800000)" fill-rule="nonzero">
            <path d="M51.5,105.6 C24.051448,105.6 1.8,83.348552 1.8,55.9 C1.8,28.451448 24.051448,6.2 51.5,6.2 C78.948552,6.2 101.2,28.451448 101.2,55.9 C101.2,83.348552 78.948552,105.6 51.5,105.6 Z M51.5,88.205 C69.3415589,88.205 83.805,73.7415589 83.805,55.9 C83.805,38.0584411 69.3415589,23.595 51.5,23.595 C33.6584411,23.595 19.195,38.0584411 19.195,55.9 C19.195,73.7415589 33.6584411,88.205 51.5,88.205 Z" id="合并形状-copy-2" fill="#2713FF"></path>
            <g id="分组-copy-2" transform="translate(10.000000, 38.200000)" fill="url(#linearGradient-2)">
                <path d="M90.0126298,9.18024689 L90.1630342,9.18024689 C90.6136376,11.8943325 90.8481817,14.6824512 90.8481817,17.5259259 C90.8481817,45.1810734 68.6622999,67.6 41.294628,67.6 C24.0638413,67.6 8.88712041,58.71312 0.00826782172,45.2277405 C7.72020376,53.8372762 18.9198289,59.254321 31.3839172,59.254321 C54.6464384,59.254321 73.5044377,40.3850578 73.5044377,17.108642 C73.5044377,15.2494719 73.3841278,13.4184185 73.150873,11.6228513 C72.8447752,10.7265476 72.6785452,9.76437173 72.6785452,8.76296299 C72.6785452,3.92331216 76.5610745,0 81.350417,0 C86.1397599,0 90.0222893,3.92331216 90.0222893,8.76296299 C90.0222893,8.90284733 90.0190453,9.04196619 90.0126298,9.18024689 Z" id="合并形状"></path>
            </g>
            <g id="分组-copy-3" transform="translate(49.522123, 39.146887) rotate(-173.000000) translate(-49.522123, -39.146887) translate(3.922123, 5.446887)" fill="url(#linearGradient-4)">
                <path d="M90.182451,9.14991253 L90.3331382,9.14991253 C90.7845929,11.8550298 91.0195787,14.6339357 91.0195787,17.4680147 C91.0195787,45.031781 68.7918403,67.3766284 41.3725357,67.3766284 C24.1092409,67.3766284 8.90388714,58.5191134 0.00828342004,45.0782938 C7.73476894,53.659381 18.9555236,59.0585261 31.4431271,59.0585261 C54.749536,59.0585261 73.6431135,40.2516129 73.6431135,17.0521097 C73.6431135,15.1990828 73.5225766,13.3740798 73.2888817,11.5844457 C72.9822065,10.6911037 72.8156628,9.73210721 72.8156628,8.73400737 C72.8156628,3.9103483 76.705517,-1.8189894e-13 81.5038952,-1.8189894e-13 C86.3022737,-1.8189894e-13 90.1921274,3.9103483 90.1921274,8.73400737 C90.1921274,8.87342956 90.1888778,9.01208874 90.182451,9.14991253 Z" id="合并形状"></path>
            </g>
        </g>
    </g>
</svg>