<?xml version="1.0" encoding="UTF-8"?>
<svg width="78px" height="72px" viewBox="0 0 78 72" version="1.1" xmlns="http://www.w3.org/2000/svg" xmlns:xlink="http://www.w3.org/1999/xlink">
    <!-- Generator: Sketch 49 (51002) - http://www.bohemiancoding.com/sketch -->
    <title>flow-exclusivity</title>
    <desc>Created with Sketch.</desc>
    <defs></defs>
    <g id="Page-1" stroke="none" stroke-width="1" fill="none" fill-rule="evenodd">
        <g id="flow-exclusivity">
            <g id="Polygon">
                <g id="path-1-link" fill="#F67613" fill-rule="nonzero">
                    <path d="M41.6703722,1.66995728 L76.6353026,33.0218945 C78.2800648,34.4967003 78.4178417,37.0256099 76.9430359,38.6703722 C76.8461185,38.7784583 76.7433887,38.8811881 76.6353026,38.9781055 L41.6703722,70.3300427 C40.1508289,71.6925687 37.8491711,71.6925687 36.3296278,70.3300427 L1.36469744,38.9781055 C-0.280064817,37.5032997 -0.417841728,34.9743901 1.0569641,33.3296278 C1.1538815,33.2215417 1.25661129,33.1188119 1.36469744,33.0218945 L36.3296278,1.66995728 C37.8491711,0.307431303 40.1508289,0.307431303 41.6703722,1.66995728 Z" id="path-1"></path>
                </g>
                <g id="path-1-link" fill="#fef1e7" fill-rule="nonzero">
                    <path d="M41.6703722,1.66995728 L76.6353026,33.0218945 C78.2800648,34.4967003 78.4178417,37.0256099 76.9430359,38.6703722 C76.8461185,38.7784583 76.7433887,38.8811881 76.6353026,38.9781055 L41.6703722,70.3300427 C40.1508289,71.6925687 37.8491711,71.6925687 36.3296278,70.3300427 L1.36469744,38.9781055 C-0.280064817,37.5032997 -0.417841728,34.9743901 1.0569641,33.3296278 C1.1538815,33.2215417 1.25661129,33.1188119 1.36469744,33.0218945 L36.3296278,1.66995728 C37.8491711,0.307431303 40.1508289,0.307431303 41.6703722,1.66995728 Z" id="path-1"></path>
                </g>
                <path d="M41.3365757,2.04222047 C40.0069753,0.850010239 37.9930247,0.850010239 36.6634243,2.04222047 L1.69849396,33.3941577 C1.60391858,33.4789604 1.51403002,33.568849 1.42922729,33.6634243 C0.13877219,35.1025913 0.25932699,37.3153872 1.69849396,38.6058423 L36.6634243,69.9577795 C37.9930247,71.1499898 40.0069753,71.1499898 41.3365757,69.9577795 L76.301506,38.6058423 C76.3960814,38.5210396 76.48597,38.431151 76.5707727,38.3365757 C77.8612278,36.8974087 77.740673,34.6846128 76.301506,33.3941577 L41.3365757,2.04222047 Z" id="Shape" stroke="#f1987a"></path>
            </g>
            <!-- <g id="分叉节点" transform="translate(25.000000, 28.000000)" fill="#F67613" font-family="PingFangSC-Regular, PingFang SC" font-size="14" font-weight="normal">
                <g id="判断">
                    <text>
                        <tspan x="0" y="13">判断</tspan>
                    </text>
                </g>
            </g> -->
        </g>
    </g>
</svg>
