<?xml version="1.0" encoding="UTF-8"?>
<svg width="500px" height="500px" viewBox="0 0 500 500" version="1.1" xmlns="http://www.w3.org/2000/svg" xmlns:xlink="http://www.w3.org/1999/xlink">
    <!-- Generator: Sketch 57.1 (83088) - https://sketch.com -->
    <title>统一权限管理</title>
    <desc>Created with Sketch.</desc>
    <g id="统一权限管理" stroke="none" stroke-width="1" fill="none" fill-rule="evenodd">
        <g id="权限管理(1)" transform="translate(64.000000, 0.000000)" fill-rule="nonzero">
            <path d="M185.784314,500 C83.3823529,500 0.0490196078,416.372549 0.0490196078,313.578431 L0.0490196078,207.401961 L77.745098,207.401961 L77.745098,313.578431 C77.745098,373.382353 126.22549,422.009804 185.784314,422.009804 C245.343137,422.009804 293.823529,373.382353 293.823529,313.578431 L293.823529,207.401961 L371.519608,207.401961 L371.519608,313.578431 C371.519608,416.372549 288.186275,500 185.784314,500 Z" id="路径" fill="#3C81FF"></path>
            <path d="M142.401961,180.980392 L64.7058824,180.980392 L64.7058824,121.568627 C64.7058824,54.5098039 119.019608,0 185.784314,0 C252.54902,0 306.862745,54.5098039 306.862745,121.568627 L229.166667,121.568627 C229.166667,97.5490196 209.705882,78.0392157 185.784314,78.0392157 C161.862745,78.0392157 142.401961,97.5490196 142.401961,121.568627 L142.401961,180.980392 Z" id="路径" fill="#00E1AD"></path>
            <ellipse id="椭圆形" fill="#FF8839" cx="187.107843" cy="322.745098" rx="48.2843137" ry="48.4313725"></ellipse>
            <path d="M306.862745,121.568627 L229.166667,121.568627 C229.166667,97.5490196 209.705882,78.0392157 185.784314,78.0392157 L185.784314,0 C252.54902,0 306.862745,54.5098039 306.862745,121.568627 Z" id="路径" fill="#3DDAFF"></path>
            <rect id="矩形" fill="#3C81FF" x="0.0490196078" y="168.77451" width="371.519608" height="77.9901961"></rect>
        </g>
    </g>
</svg>