<?xml version="1.0" encoding="UTF-8"?>
<svg width="500px" height="500px" viewBox="0 0 500 500" version="1.1" xmlns="http://www.w3.org/2000/svg" xmlns:xlink="http://www.w3.org/1999/xlink">
    <!-- Generator: Sketch 57.1 (83088) - https://sketch.com -->
    <title>kafka</title>
    <desc>Created with Sketch.</desc>
    <g id="kafka" stroke="none" stroke-width="1" fill="none" fill-rule="evenodd">
        <g transform="translate(0.000000, 55.000000)" fill-rule="nonzero" id="路径">
            <path d="M322.087552,217.992014 L322.087552,239.506568 C307.240027,242.903631 295.818359,257.624059 295.818359,273.477195 C295.818359,292.727394 311.808373,308.58 331.22478,308.58 C350.640651,308.58 366.630664,292.727394 366.630664,273.477195 C366.630664,257.624059 356.351485,244.035808 341.503959,239.506568 L341.503959,216.859306 C362.062319,215.727129 379.194285,205.535941 390.615417,190.815513 L430.590183,213.462244 C430.590183,214.594952 429.447695,215.727129 429.447695,216.859306 C429.447695,236.109505 445.437708,251.962642 464.854115,251.962642 C484.270522,251.962642 500.26,236.109505 500.26,216.859306 C499.118047,197.609638 484.269987,182.888679 464.854115,182.888679 C453.432448,182.888679 444.295756,188.550627 436.300481,196.47693 L397.468203,173.830199 C399.752644,167.036074 400.894597,161.374125 400.894597,154.58 C400.894597,144.388812 398.610156,135.329801 394.04181,128.535676 L438.584922,103.624059 C445.437708,110.418185 454.574936,113.815247 463.711627,113.815247 C483.128034,113.815247 499.118047,97.962111 499.118047,78.7124427 C499.118047,59.4627745 483.128034,43.6091073 463.711627,43.6091073 C444.29522,43.6091073 428.305742,59.4622437 428.305742,78.7124427 C428.305742,80.9767973 429.447695,84.3738601 429.447695,86.6387455 L383.76263,112.68307 C372.341498,101.359174 357.493437,93.4328709 340.361471,92.3006936 L340.361471,69.6534318 C355.209532,65.1241918 365.488712,51.5359409 365.488712,35.6828046 C365.488712,16.4326055 349.498698,0.58 330.082292,0.58 C310.665885,0.58 295.818359,16.4326055 295.818359,36.8149819 C295.818359,52.6681182 307.240027,66.2563691 322.087552,70.7856092 L322.087552,95.6977563 C295.818359,102.491882 275.26,127.403498 275.26,156.844885 C275.26,186.285742 295.818359,210.065181 322.087552,217.992014 Z" fill="#FF6714"></path>
            <path d="M0,263.745321 C0,333.617449 56.566487,390.26 126.344785,390.26 L386.74812,390.26 C449.32616,390.26 500,339.239217 500,276.370257 L450.007999,276.370257 C450.007999,311.653487 421.654833,340.200775 386.74812,340.200775 L126.344785,340.200775 C84.1763069,340.200775 49.9920013,305.970502 49.9920013,263.745321 C49.9920013,226.832665 76.3198286,195.365924 112.088714,188.615625 L132.97245,184.67445 L132.447686,163.400972 C132.435079,162.889916 132.428811,162.348356 132.428811,161.774679 C132.428811,119.549498 166.613117,85.319225 208.781595,85.319225 C228.892797,85.319225 247.715031,93.1055031 261.876663,106.831285 L296.645504,70.8618481 C273.250959,48.1873134 242.000995,35.26 208.781595,35.26 C144.800219,35.26 91.9266607,82.8821741 83.5831616,144.659339 C34.3548402,162.355016 0,209.479532 0,263.745321 Z" fill="#3C81FF"></path>
        </g>
    </g>
</svg>