<?xml version="1.0" encoding="UTF-8"?>
<svg width="500px" height="500px" viewBox="0 0 500 500" version="1.1" xmlns="http://www.w3.org/2000/svg" xmlns:xlink="http://www.w3.org/1999/xlink">
    <!-- Generator: Sketch 57.1 (83088) - https://sketch.com -->
    <title>云数据库</title>
    <desc>Created with Sketch.</desc>
    <g id="云数据库" stroke="none" stroke-width="1" fill="none" fill-rule="evenodd">
        <g id="mysql-cloud-01" transform="translate(0.000000, 41.000000)" fill-rule="nonzero">
            <path d="M245.525692,282.280763 C247.517787,286.772964 249.509881,290.266898 252,293.511265 C229.090909,297.504333 203.442688,300 176.300395,300 C78.9367589,299.750433 0,270.551127 0,234.363951 L0,156 C0,192.187175 78.9367589,221.386482 176.300395,221.386482 C198.960474,221.386482 220.624506,219.639515 240.545455,216.894281 C236.063241,239.854419 237.806324,264.561525 245.525692,282.280763 Z" id="路径" fill="#1DA4FF"></path>
            <path d="M176,221.486486 C198.67541,221.486486 220.354098,219.741742 240.288525,217 C235.803279,239.930931 237.547541,264.606607 245.521311,282.303303 C247.514754,286.78979 249.508197,290.279279 252,293.51952 C229.07541,297.507508 203.409836,300 176.24918,300" id="路径" fill="#9AD4FC"></path>
            <path d="M337.77157,343.119242 C341.016973,346.124426 344.262376,349.630474 353,355.139979 C349.255304,390.200464 271.864922,417.99842 176.749646,417.99842 C79.1379066,418.248852 0,388.697872 0,352.635659 L0,274 C0,310.312645 79.1379066,339.613193 176.749646,339.613193 C230.922914,339.613193 279.60396,330.59764 311.808345,316.323014 C313.805516,318.576902 315.802687,320.83079 318.049505,323.084679 C319.79703,324.837703 321.294908,326.590727 322.792786,328.594184 C325.788543,332.100232 329.033946,336.107145 333.527581,339.863625 C335.524752,340.865353 336.523338,341.867081 337.77157,343.119242 L337.77157,343.119242 Z" id="路径" fill="#0075EA"></path>
            <path d="M496.501112,391.765215 C491.503336,380.810518 483.756783,371.100674 474.760786,363.133622 C470.762566,359.399067 466.014678,356.162452 461.766569,352.427897 C457.518459,348.444371 454.769682,343.713934 451.02135,339.232467 C451.02135,339.232467 450.521573,338.734526 450.521573,338.734526 C455.019571,338.734526 460.517125,337.489675 464.765234,336.742763 C471.762121,335.497912 478.009341,336.493793 485.256116,335.248941 C488.50467,334.50203 492.003114,334.004089 495.251668,333.257178 C495.251668,333.257178 495.501557,331.265415 495.501557,331.265415 C494.75189,327.77983 489.004448,322.302482 486.755449,319.314838 C483.506894,314.833371 480.008451,310.600875 476.510008,306.617349 C469.263233,298.401327 461.016902,291.181186 452.020905,284.458986 C445.523797,279.728549 437.527355,276.242964 432.029801,270.267675 C418.285917,255.578424 414.787474,231.179328 409.539809,212.50655 C407.040921,203.543617 405.541589,194.829654 402.043145,186.613632 C384.800818,147.525285 364.559825,122.877218 332.074281,97.4822408 C325.077395,92.0048927 316.581176,89.2662187 307.33529,86.0296039 C303.08718,85.2826928 298.339293,85.2826928 294.341072,83.7888706 C286.844408,81.299167 282.34641,73.8300559 276.09919,69.3485893 C269.102303,64.1202116 260.356195,59.1408043 251.610087,58.1449228 C244.613201,57.3980117 238.116092,59.3897747 234.117871,67.6057968 C227.120985,81.299167 239.365536,96.4863593 243.363757,104.204441 C247.861755,112.669433 251.610087,119.889574 253.359309,129.350448 C256.357975,145.284551 259.35664,162.214536 267.602971,176.405847 C270.101859,180.887314 271.85108,183.377017 270.101859,188.107454 C268.602526,192.339951 267.353082,197.070388 265.60386,201.302884 C255.858197,224.955069 255.608308,255.578424 264.104527,274.749142 C266.603415,280.724431 273.100524,293.172949 284.095631,289.687364 C293.591406,286.69972 292.84174,274.002231 296.590072,263.545476 C297.339738,261.055772 297.339738,259.312979 298.589182,257.570187 C298.589182,257.570187 298.589182,258.068127 298.589182,258.068127 C302.087625,268.026942 305.086291,276.989875 310.583844,285.703838 C342.069833,334.999971 397.295258,362.635682 450.271684,382.553311 C450.521573,382.553311 450.771461,382.802281 451.271239,382.802281 C461.51668,386.536837 471.012454,391.516244 481.507784,394.752859 C486.255671,396.246681 494.252113,399.234326 499,398.985355 C498.250334,396.495651 497.500667,394.005948 496.501112,391.765215 Z M299.338848,130.346329 C296.83996,122.130307 294.84085,113.665315 289.593185,107.192085 C283.345965,102.212678 291.592295,95.7394482 298.339293,97.7312112 C298.839071,97.7312112 299.338848,97.7312112 299.838626,97.7312112 C299.838626,97.7312112 299.838626,97.7312112 299.838626,97.7312112 L299.838626,97.7312112 L299.838626,97.7312112 C299.838626,97.7312112 299.838626,97.7312112 299.838626,97.7312112 C303.337069,97.9801815 305.086291,100.967826 307.585179,103.208559 C315.331732,112.171492 309.3344,125.864863 299.338848,130.346329 Z" id="形状" fill="#1DED98"></path>
            <path d="M242.812147,160.281037 C244.806497,165.773533 247.050141,171.765348 249.792373,177.008186 C227.355932,180.75307 202.675847,183 176.250706,183 C79.0261299,183 0,153.789905 0,117.589359 L0,65.4106412 C0,29.2100955 79.0261299,0 176.5,0 C273.97387,0 353,29.2100955 353,65.4106412 L353,92.1241473 C347.266243,86.8813097 341.283192,81.888131 335.300141,77.1446112 C327.32274,70.9031378 318.09887,67.6575716 309.124294,64.4120055 L305.634181,63.1637108 L289.928672,60.4174625 C289.180791,59.6684857 288.43291,58.9195089 287.685028,57.9208731 C286.189266,56.1732606 284.693503,54.425648 282.948446,52.9276944 C274.721751,45.9372442 258.517655,33.9536153 243.061441,31.9563438 C230.846045,29.9590723 219.129237,36.4502046 213.894068,47.6848568 C205.168785,65.1609823 215.888418,83.1364256 221.871469,92.8731241 C222.868644,94.3710778 223.616525,95.8690314 224.364407,96.8676671 L226.608051,100.86221 C229.100989,105.356071 231.593927,110.099591 233.089689,114.094134 C233.588277,115.841746 233.837571,117.589359 234.086864,119.58663 C234.336158,121.833561 234.585452,124.080491 235.08404,126.327422 L237.07839,135.564802 C238.075565,143.553888 240.069915,152.291951 242.812147,160.281037 L242.812147,160.281037 Z" id="路径" fill="#2EE4E4"></path>
        </g>
    </g>
</svg>