<svg class="icon" width="18px" height="18.00px" viewBox="0 0 1024 1024" version="1.1" xmlns="http://www.w3.org/2000/svg"><path fill="#ffffff" d="M164.352 288a17.184 17.184 0 0 0-16.96 14.176L64.256 780.032a16.96 16.96 0 0 0 3.808 13.888 17.28 17.28 0 0 0 13.152 6.08h109.088a17.184 17.184 0 0 0 16.96-14.176l30.144-173.44h161.728a17.184 17.184 0 0 0 16.96-14.208l15.968-92.48a16.96 16.96 0 0 0-3.84-13.888 17.28 17.28 0 0 0-13.12-6.048H259.296l11.968-67.776h172.384a17.184 17.184 0 0 0 16.96-14.176l16.64-95.84a16.96 16.96 0 0 0-3.808-13.888 17.28 17.28 0 0 0-13.184-6.08H164.352zM507.872 288a17.28 17.28 0 0 0-14.464 7.808 16.928 16.928 0 0 0-1.216 16.32l98.72 215.488-212.576 244.16a16.96 16.96 0 0 0-2.624 18.24c2.816 6.08 8.96 9.984 15.68 9.984h136.32a17.28 17.28 0 0 0 13.536-6.496l117.952-147.712 58.4 143.52c2.656 6.464 8.96 10.688 16 10.688h126.4a17.28 17.28 0 0 0 14.528-7.84 16.928 16.928 0 0 0 1.152-16.352l-111.2-239.776 191.36-219.84a16.96 16.96 0 0 0 2.56-18.24 17.248 17.248 0 0 0-15.648-9.952h-133.024a17.28 17.28 0 0 0-13.6 6.56l-100.416 127.456-48-123.104A17.216 17.216 0 0 0 631.68 288h-123.776z" /></svg>
