<svg class="icon" width="200px" height="200.00px" viewBox="0 0 1024 1024" version="1.1" xmlns="http://www.w3.org/2000/svg"><path fill="#ffffff" d="M490.272 137.024a32 32 0 0 0-44.544 0L292 286.08 226.272 222.4a32 32 0 0 0-44.544 0L137.728 265.024a32 32 0 0 0 0 45.952l132 128a32 32 0 0 0 44.544 0l220-213.344a32 32 0 0 0 0-45.952l-44-42.656zM781.248 333.248l-448 448a64 64 0 1 1-90.496-90.496l448-448a64 64 0 1 1 90.496 90.496zM629.76 617.376a32 32 0 0 0-45.28 0l-31.104 31.104a32 32 0 0 0 0 45.248l58.24 58.272-58.24 58.24a32 32 0 0 0 0 45.28l31.104 31.104a32 32 0 0 0 45.248 0l58.272-58.24 58.24 58.24a32 32 0 0 0 45.28 0l31.104-31.104a32 32 0 0 0 0-45.248l-58.24-58.272 58.24-58.24a32 32 0 0 0 0-45.28l-31.104-31.104a32 32 0 0 0-45.248 0l-58.272 58.24-58.24-58.24z" /></svg>
