<?xml version="1.0" encoding="UTF-8"?>
<svg width="100px" height="100px" viewBox="0 0 100 100" version="1.1" xmlns="http://www.w3.org/2000/svg" xmlns:xlink="http://www.w3.org/1999/xlink">
    <!-- Generator: Sketch 63.1 (92452) - https://sketch.com -->
    <title>auth</title>
    <desc>Created with Sketch.</desc>
    <g id="auth" stroke="none" stroke-width="1" fill="none" fill-rule="evenodd">
        <g id="权限管理" transform="translate(12.800000, 0.000000)" fill-rule="nonzero">
            <path d="M37.1568627,100 C16.6764706,100 0.00980392157,83.2745098 0.00980392157,62.7156863 L0.00980392157,41.4803922 L15.5490196,41.4803922 L15.5490196,62.7156863 C15.5490196,74.6764706 25.245098,84.4019608 37.1568627,84.4019608 C49.0686275,84.4019608 58.7647059,74.6764706 58.7647059,62.7156863 L58.7647059,41.4803922 L74.3039216,41.4803922 L74.3039216,62.7156863 C74.3039216,83.2745098 57.6372549,100 37.1568627,100 Z" id="路径" fill="#3C81FF"></path>
            <path d="M28.4803922,36.1960784 L12.9411765,36.1960784 L12.9411765,24.3137255 C12.9411765,10.9019608 23.8039216,0 37.1568627,0 C50.5098039,0 61.372549,10.9019608 61.372549,24.3137255 L45.8333333,24.3137255 C45.8333333,19.5098039 41.9411765,15.6078431 37.1568627,15.6078431 C32.372549,15.6078431 28.4803922,19.5098039 28.4803922,24.3137255 L28.4803922,36.1960784 Z" id="路径" fill="#00E1AD"></path>
            <ellipse id="椭圆形" fill="#FF8839" cx="37.4215686" cy="64.5490196" rx="9.65686275" ry="9.68627451"></ellipse>
            <path d="M61.372549,24.3137255 L45.8333333,24.3137255 C45.8333333,19.5098039 41.9411765,15.6078431 37.1568627,15.6078431 L37.1568627,0 C50.5098039,0 61.372549,10.9019608 61.372549,24.3137255 Z" id="路径" fill="#3DDAFF"></path>
            <rect id="矩形" fill="#3C81FF" x="0.00980392157" y="33.754902" width="74.3039216" height="15.5980392"></rect>
        </g>
    </g>
</svg>