<?xml version="1.0" encoding="UTF-8"?>
<svg width="500px" height="500px" viewBox="0 0 500 500" version="1.1" xmlns="http://www.w3.org/2000/svg" xmlns:xlink="http://www.w3.org/1999/xlink">
    <!-- Generator: Sketch 57.1 (83088) - https://sketch.com -->
    <title>统一服务</title>
    <desc>Created with Sketch.</desc>
    <g id="统一服务" stroke="none" stroke-width="1" fill="none" fill-rule="evenodd">
        <g transform="translate(0.000000, -0.000000)" fill-rule="nonzero" id="路径">
            <path d="M55.7504873,265.594542 C41.6179337,265.594542 27.4853801,260.185185 16.6666667,249.415205 C-4.92202729,227.826511 -4.92202729,192.836257 16.6666667,171.247563 L171.247563,16.6666667 C192.836257,-4.92202729 227.826511,-4.92202729 249.415205,16.6666667 C271.003899,38.2553606 271.003899,73.245614 249.415205,94.834308 L94.834308,249.415205 C84.0155945,260.233918 69.8830409,265.594542 55.7504873,265.594542 Z" fill="#FFA300"></path>
            <path d="M98.6354776,456.871345 C84.502924,456.871345 70.3703704,451.461988 59.5516569,440.692008 C37.962963,419.103314 37.962963,384.11306 59.5516569,362.524366 L362.524366,59.5516569 C384.11306,37.962963 419.103314,37.962963 440.692008,59.5516569 C462.280702,81.1403509 462.280702,116.130604 440.692008,137.719298 L137.719298,440.692008 C126.900585,451.461988 112.768031,456.871345 98.6354776,456.871345 Z" fill="#3C81FF"></path>
            <path d="M289.668616,499.512671 C275.536062,499.512671 261.403509,494.103314 250.584795,483.333333 C228.996101,461.744639 228.996101,426.754386 250.584795,405.165692 L405.165692,250.584795 C426.754386,228.996101 461.744639,228.996101 483.333333,250.584795 C504.922027,272.173489 504.922027,307.163743 483.333333,328.752437 L328.752437,483.333333 C317.933723,494.103314 303.80117,499.512671 289.668616,499.512671 Z" fill="#0ACC86"></path>
            <path d="M403.216374,153.216374 C372.709552,153.216374 347.953216,128.460039 347.953216,97.9532164 L347.953216,96.9785575 C347.953216,66.4717349 372.709552,41.7153996 403.216374,41.7153996 C433.723197,41.7153996 458.479532,66.4717349 458.479532,96.9785575 L458.479532,97.9044834 C458.479532,128.460039 433.77193,153.216374 403.216374,153.216374 Z" fill="#3DDAFF"></path>
        </g>
    </g>
</svg>