<?xml version="1.0" encoding="UTF-8"?>
<svg width="500px" height="500px" viewBox="0 0 500 500" version="1.1" xmlns="http://www.w3.org/2000/svg" xmlns:xlink="http://www.w3.org/1999/xlink">
    <!-- Generator: Sketch 57.1 (83088) - https://sketch.com -->
    <title>数据治理</title>
    <desc>Created with Sketch.</desc>
    <g id="数据治理" stroke="none" stroke-width="1" fill="none" fill-rule="evenodd">
        <g transform="translate(0.000000, 16.000000)" fill-rule="nonzero">
            <path d="M250,483.984375 C112.158203,483.984375 0,371.826172 0,233.984375 C0,133.300781 59.9121094,42.8710937 152.685547,3.66210937 C173.046875,-4.98046875 196.582031,4.58984375 205.175781,24.9511719 C213.818359,45.3125 204.248047,68.8476562 183.886719,77.4414062 C120.849609,104.101562 80.1269531,165.527344 80.1269531,233.984375 C80.1269531,327.636719 156.347656,403.857422 250,403.857422 C343.652344,403.857422 419.873047,327.636719 419.873047,233.984375 C419.873047,211.865234 437.792969,193.945312 459.912109,193.945312 C482.03125,193.945312 499.951188,211.865234 499.951188,233.984375 C500,371.826172 387.841797,483.984375 250,483.984375 Z" id="路径" fill="#4C79FF"></path>
            <g id="编组" opacity="0.3" fill="#789FF6">
                <path d="M40.0390625,273.974609 C17.9199219,273.974609 0,256.054688 0,233.935547 C0,133.203125 59.9121094,42.7734375 152.685547,3.56445312 C173.046875,-5.078125 196.582031,4.4921875 205.175781,24.8535156 C213.818359,45.2148438 204.248047,68.75 183.886719,77.34375 C120.849609,104.003906 80.1269531,165.478516 80.1269531,233.886719 C80.1269531,256.005859 62.2070312,273.974609 40.0390625,273.974609 Z" id="路径"></path>
            </g>
            <path d="M250,373.193359 C227.880859,373.193359 209.960937,355.273438 209.960937,333.154297 C209.960937,311.035156 227.880859,293.115234 250,293.115234 C282.568359,293.115234 309.082031,266.601562 309.082031,234.033203 C309.082031,201.464844 282.568359,174.951172 250,174.951172 C217.431641,174.951172 190.917969,201.464844 190.917969,234.033203 C190.917969,256.152344 172.998047,274.072266 150.878906,274.072266 C128.759766,274.072266 110.839844,256.152344 110.839844,234.033203 C110.839844,157.275391 173.291016,94.8242187 250.048828,94.8242187 C326.806641,94.8242187 389.208984,157.226562 389.208984,233.984375 C389.208984,310.742187 326.757812,373.193359 250,373.193359 Z" id="路径" fill="#EF7B00"></path>
            <g id="编组" opacity="0.2" transform="translate(209.960938, 193.847656)" fill="#FFFFFF">
                <path d="M40.0390625,179.345703 C17.9199219,179.345703 0,161.425781 0,139.306641 C0,117.1875 17.9199219,99.2675781 40.0390625,99.2675781 C72.6074219,99.2675781 99.1210938,72.7539062 99.1210938,40.1855469 C99.1210938,18.0664062 117.041016,0.146484375 139.160156,0.146484375 C161.279297,0.146484375 179.199247,18.0664062 179.199247,40.1855469 C179.248047,116.894531 116.796875,179.345703 40.0390625,179.345703 Z" id="路径"></path>
            </g>
        </g>
    </g>
</svg>