<?xml version="1.0" encoding="UTF-8"?>
<svg width="100px" height="100px" viewBox="0 0 100 100" version="1.1" xmlns="http://www.w3.org/2000/svg" xmlns:xlink="http://www.w3.org/1999/xlink">
    <!-- Generator: Sketch 63.1 (92452) - https://sketch.com -->
    <title>convert</title>
    <desc>Created with Sketch.</desc>
    <g id="convert" stroke="none" stroke-width="1" fill="none" fill-rule="evenodd">
        <g id="数据治理" transform="translate(0.000000, 3.200000)" fill-rule="nonzero">
            <path d="M50,96.796875 C22.4316406,96.796875 0,74.3652344 0,46.796875 C0,26.6601562 11.9824219,8.57421875 30.5371094,0.732421875 C34.609375,-0.99609375 39.3164063,0.91796875 41.0351562,4.99023437 C42.7636719,9.0625 40.8496094,13.7695312 36.7773438,15.4882812 C24.1699219,20.8203125 16.0253906,33.1054688 16.0253906,46.796875 C16.0253906,65.5273437 31.2695313,80.7714844 50,80.7714844 C68.7304688,80.7714844 83.9746094,65.5273437 83.9746094,46.796875 C83.9746094,42.3730469 87.5585938,38.7890625 91.9824219,38.7890625 C96.40625,38.7890625 99.9902376,42.3730469 99.9902376,46.796875 C100,74.3652344 77.5683594,96.796875 50,96.796875 Z" id="路径" fill="#4C79FF"></path>
            <g id="编组" opacity="0.3" fill="#789FF6">
                <path d="M8.0078125,54.7949219 C3.58398438,54.7949219 0,51.2109375 0,46.7871094 C0,26.640625 11.9824219,8.5546875 30.5371094,0.712890625 C34.609375,-1.015625 39.3164062,0.8984375 41.0351562,4.97070312 C42.7636719,9.04296875 40.8496094,13.75 36.7773438,15.46875 C24.1699219,20.8007812 16.0253906,33.0957031 16.0253906,46.7773437 C16.0253906,51.2011719 12.4414062,54.7949219 8.0078125,54.7949219 Z" id="路径"></path>
            </g>
            <path d="M50,74.6386719 C45.5761719,74.6386719 41.9921875,71.0546875 41.9921875,66.6308594 C41.9921875,62.2070312 45.5761719,58.6230469 50,58.6230469 C56.5136719,58.6230469 61.8164062,53.3203125 61.8164062,46.8066406 C61.8164062,40.2929687 56.5136719,34.9902344 50,34.9902344 C43.4863281,34.9902344 38.1835938,40.2929688 38.1835938,46.8066406 C38.1835938,51.2304687 34.5996094,54.8144531 30.1757812,54.8144531 C25.7519531,54.8144531 22.1679688,51.2304687 22.1679688,46.8066406 C22.1679688,31.4550781 34.6582031,18.9648437 50.0097656,18.9648437 C65.3613281,18.9648437 77.8417969,31.4453125 77.8417969,46.796875 C77.8417969,62.1484375 65.3515625,74.6386719 50,74.6386719 Z" id="路径" fill="#EF7B00"></path>
            <g id="编组" opacity="0.2" transform="translate(41.992188, 38.769531)" fill="#FFFFFF">
                <path d="M8.0078125,35.8691406 C3.58398438,35.8691406 0,32.2851562 0,27.8613281 C0,23.4375 3.58398438,19.8535156 8.0078125,19.8535156 C14.5214844,19.8535156 19.8242188,14.5507812 19.8242188,8.03710937 C19.8242188,3.61328125 23.4082031,0.029296875 27.8320313,0.029296875 C32.2558594,0.029296875 35.8398495,3.61328125 35.8398495,8.03710937 C35.8496094,23.3789062 23.359375,35.8691406 8.0078125,35.8691406 Z" id="路径"></path>
            </g>
        </g>
    </g>
</svg>