<?xml version="1.0" encoding="utf-8"?>
<!-- Generator: Adobe Illustrator 21.0.0, SVG Export Plug-In . SVG Version: 6.00 Build 0)  -->
<svg version="1.1" id="图层_1" xmlns="http://www.w3.org/2000/svg" xmlns:xlink="http://www.w3.org/1999/xlink" x="0px" y="0px"
	 viewBox="0 0 1024 1024" style="enable-background:new 0 0 1024 1024;" xml:space="preserve">
<style type="text/css">
	.st0{fill:none;stroke:#12D093;stroke-width:20;stroke-miterlimit:10;}
	.st1{fill:#00E1AD;}
	.st2{fill:#3C81FF;}
	.st3{fill:#3DDAFF;}
	.st4{fill:#71F6B3;}
	.st5{fill:#00D0B7;}
</style>
<g>
	<g>
		<path class="st0" d="M495.2,512.2"/>
	</g>
</g>
<g>
	<g>
		<path class="st0" d="M187.7,512.2"/>
	</g>
</g>
<g>
	<polygon class="st1" points="46.3,807 46.9,807 262.9,807 262.9,373 46,373 46,1023.9 46,1023.9 46,807 	"/>
	<path class="st2" d="M469.5,0v216.9h-1.6c162.6,0,295,132.3,295,295s-132.3,295-295,295v217c282.3,0,511.9-229.6,511.9-511.9
		C979.9,230.2,751.1,0.9,469.5,0z"/>
	<polygon class="st3" points="469.5,0 469.5,0 468,0 166.2,0 44.2,0 44.2,216.9 166.2,216.9 468,216.9 469.5,216.9 	"/>
	<rect x="263.1" y="807" class="st4" width="204.9" height="216.9"/>
	<polygon class="st5" points="262.9,807 46.9,807 46.3,807 46,807 46,1023.9 46,1024 46.3,1024 46.9,1024 263.1,1024 263.1,807 	"/>
</g>
</svg>
