<?xml version="1.0" encoding="UTF-8"?>
<svg width="100px" height="100px" viewBox="0 0 100 100" version="1.1" xmlns="http://www.w3.org/2000/svg" xmlns:xlink="http://www.w3.org/1999/xlink">
    <!-- Generator: Sketch 63.1 (92452) - https://sketch.com -->
    <title>es</title>
    <desc>Created with Sketch.</desc>
    <g id="es" stroke="none" stroke-width="1" fill="none" fill-rule="evenodd">
        <g id="Elastic-ElasticSearch" transform="translate(5.000000, 0.000000)" fill-rule="nonzero">
            <path d="M42.0610782,28.0544722 L5.16915068,28.0544722 L5.16915068,28.113784 L71.5390331,28.113784 C78.8343821,28.113784 85.4179897,24.7923243 89.8070615,19.5728876 C80.6730474,7.65121973 66.2602847,3.55271368e-15 50.1274804,3.55271368e-15 C40.9934662,3.55271368e-15 32.393258,2.49109482 24.9792854,6.76154297 C32.3339462,12.2775386 38.2058125,19.6321993 42.0610782,28.0544722 Z" id="路径" fill="#EFBF1B"></path>
            <path d="M89.9256851,80.2488391 C85.5366133,75.0887142 79.0716292,71.8265662 71.7762802,71.8265662 L5.10983896,71.8265662 L5.10983896,71.8858779 L42.8914431,71.8858779 C39.3327362,80.6047097 33.5794936,88.1373058 26.4027682,94.0091721 C17.7432482,89.3828532 10.6258346,82.2061277 5.94020391,73.487296 C14.3624768,89.2642296 30.9697753,99.9996619 50.1274804,99.9996619 C66.3789082,100.058974 80.7916709,92.2891305 89.9256851,80.2488391 Z" id="路径" fill="#40BEB0"></path>
            <path d="M43.9590552,64.0567229 L65.8451021,64.0567229 C73.6149454,64.0567229 79.9019941,57.7696742 79.961306,49.999831 C79.961306,42.2892995 73.6742572,35.942939 65.904414,35.942939 L43.8404316,35.942939 C44.9080437,40.1540754 45.5604732,44.8397061 45.5604732,49.999831 C45.5604732,55.1599559 44.9673555,59.8455865 43.9590552,64.0567229 Z" id="路径" fill="#0AA5DE"></path>
            <path d="M43.8404316,35.942939 L2.08493809,35.942939 C-0.602914787,45.1214687 -0.602914787,54.8781932 2.08493809,64.0567229 L43.9590552,64.0567229 C44.9673555,59.8455865 45.5604732,55.1599559 45.5604732,49.999831 C45.5604732,44.7803942 44.9080437,40.1540754 43.8404316,35.942939 Z" id="路径" fill="#0779A1"></path>
            <path d="M24.9792854,6.76154297 C16.4383891,11.7437325 9.49891074,19.1577051 5.10983896,28.0544722 L42.0610782,28.0544722 C38.2058125,19.6321993 32.3339462,12.2775386 24.9792854,6.76154297 Z" id="路径" fill="#D7A229"></path>
            <path d="M26.4620799,94.0091721 C33.6388054,88.1966176 39.392048,80.6047097 42.9507549,71.8858779 L5.16915068,71.8858779 C5.40639785,72.419684 5.70295674,72.9534899 5.99951562,73.487296 C10.6258345,82.2061277 17.7432481,89.3828531 26.4620799,94.0091721 Z" id="路径" fill="#009B8F"></path>
        </g>
    </g>
</svg>