<?xml version="1.0" encoding="UTF-8"?>
<svg width="100px" height="100px" viewBox="0 0 100 100" version="1.1" xmlns="http://www.w3.org/2000/svg" xmlns:xlink="http://www.w3.org/1999/xlink">
    <!-- Generator: Sketch 63.1 (92452) - https://sketch.com -->
    <title>freyr</title>
    <desc>Created with Sketch.</desc>
    <defs>
        <linearGradient x1="47.7108688%" y1="9.38959774%" x2="51.5008638%" y2="66.6082385%" id="linearGradient-1">
            <stop stop-color="#00848A" offset="0%"></stop>
            <stop stop-color="#214083" offset="100%"></stop>
        </linearGradient>
        <linearGradient x1="50%" y1="32.4575536%" x2="50%" y2="100%" id="linearGradient-2">
            <stop stop-color="#214083" offset="0%"></stop>
            <stop stop-color="#008C8C" offset="100%"></stop>
        </linearGradient>
        <linearGradient x1="77.8827975%" y1="30.9159608%" x2="19.8561101%" y2="70.4801178%" id="linearGradient-3">
            <stop stop-color="#1DDFFF" offset="0%"></stop>
            <stop stop-color="#08B5A8" offset="100%"></stop>
        </linearGradient>
        <linearGradient x1="77.8827975%" y1="30.9100323%" x2="12.2011149%" y2="68.6306914%" id="linearGradient-4">
            <stop stop-color="#1DFFCC" offset="0%"></stop>
            <stop stop-color="#1EC4B8" offset="100%"></stop>
        </linearGradient>
    </defs>
    <g id="freyr" stroke="none" stroke-width="1" fill="none" fill-rule="evenodd">
        <g id="天座logo" transform="translate(0.000000, 11.000000)" fill-rule="nonzero">
            <g id="编组-2" transform="translate(0.000000, 0.291545)">
                <path d="M59.2816177,3.21282799 L64.2755627,7.36045456 C64.2793761,7.46028284 64.297086,7.55781837 64.3286913,7.65306122 C64.4600638,8.04895015 64.9075926,8.74000722 65.6712784,9.7262324 L49.744898,69.0131848 L35.2246515,68.8899559 L35.2246515,67.6238284 L34.318061,66.9269242 L49.744898,12.7170176 L58.9406461,3.55240141 L59.2816177,3.21282799 Z" id="形状结合" fill="url(#linearGradient-1)"></path>
                <path d="M58.745871,2.55102041 L50.0253856,64.4213757 L40.1315933,73.1489497 C40.2770966,72.439637 40.00157,71.9079151 39.3050138,71.5537839 C38.6084574,71.1996527 37.9046494,70.9271239 37.1935893,70.7361983 L34.4387755,68.0861738 L33.7845547,66.740332 L43.3673469,10.2040816 L58.745871,2.55102041 Z" id="路径-8备份" fill="url(#linearGradient-2)"></path>
                <path d="M99.4897959,34.4387755 L63.7255886,70.2055496 C63.3461931,70.6198178 62.9493262,71.0187336 62.5361862,71.4007427 L62.5036443,71.4285714 C59.1150503,74.5487587 54.645105,76.5306122 49.744898,76.5306122 C44.7257708,76.5306122 40.1580423,74.5979457 36.7453087,71.4362085 L36.7415321,71.4327085 C36.4508353,71.1632471 36.1685247,70.8848655 35.8950358,70.5979989 C35.4895513,70.1205357 35.1388475,69.6104147 34.8387393,69.0701469 C34.4917235,68.445434 34.1330922,67.6377201 33.7628453,66.6470051 L33.7172012,66.5561224 L33.8092899,66.7276906 C34.5922097,68.0165612 36.0093329,68.877551 37.627551,68.877551 C38.8780419,68.877551 40.0084479,68.3634071 40.8189085,67.5349796 L69.7542547,38.6485004 C72.1727136,36.0112306 75.5918692,34.3593026 79.0816327,34.4387755 L79.0816327,34.4375 L99.4897959,34.4387755 Z" id="形状结合" fill="url(#linearGradient-3)"></path>
                <path d="M46.2011024,0.00640052438 L65.7725948,0.00928573255 L57.3525477,8.42992383 C57.3529931,8.43114985 57.3534384,8.43237598 57.3538834,8.43360219 L47.6457726,18.1341137 L30.0083876,35.7760599 C29.628992,36.1903281 29.2321249,36.5892438 28.8189851,36.9712529 L28.7864431,36.9990816 C25.397849,40.119269 20.9279037,42.1011224 16.0276968,42.1011224 C11.0085698,42.1011224 6.44084118,40.1684559 3.02810758,37.0067187 L3.02433079,37.0032187 C2.73363404,36.7337573 2.45132358,36.4553757 2.1778346,36.168509 C1.77235011,35.691046 1.42164635,35.180925 1.1215381,34.640657 C0.774522354,34.0159441 0.415891042,33.2082303 0.0456441746,32.2175154 L0,32.1266327 L0.0920886964,32.2982008 C0.875008528,33.5870716 2.29213174,34.4480613 3.91034985,34.4480613 C5.16084063,34.4480613 6.29124668,33.9339172 7.1017074,33.1054897 L36.4249271,3.83454085 C38.7699858,1.56995287 41.9527372,0.147813911 45.3644315,0.00928573255 C45.6449851,-0.00210584605 45.9239905,-0.00294760845 46.2011024,0.00640052438 Z" id="形状结合" fill="url(#linearGradient-4)" transform="translate(32.886297, 21.050563) rotate(180.000000) translate(-32.886297, -21.050563) "></path>
            </g>
        </g>
    </g>
</svg>