<?xml version="1.0" encoding="UTF-8"?>
<svg width="100px" height="100px" viewBox="0 0 100 100" version="1.1" xmlns="http://www.w3.org/2000/svg" xmlns:xlink="http://www.w3.org/1999/xlink">
    <!-- Generator: Sketch 63.1 (92452) - https://sketch.com -->
    <title>galaxy</title>
    <desc>Created with Sketch.</desc>
    <g id="galaxy" stroke="none" stroke-width="1" fill="none" fill-rule="evenodd">
        <g id="编组" transform="translate(8.000000, -0.000000)" fill-rule="nonzero">
            <path d="M1.50435259,6.31030581 C3.79346745,5.76507658 6.0120499,5.25517943 8.16009993,4.78061434 C9.50660512,4.55641771 10.894846,4.25418613 12.3053577,3.89041931 C24.7570858,1.29680647 34.6200366,3.55271368e-15 41.8942092,3.55271368e-15 C51.1624889,3.55271368e-15 64.8222313,2.34772153 82.8734364,7.04316458 C83.4090124,7.79512874 83.7276314,8.7188588 83.7276314,9.69979475 L83.7276314,50.3375586 L63.907778,50.3375586 C64.5615242,48.0584513 64.9135988,45.6360988 64.9135988,43.1249365 C64.9135988,29.68089 54.822346,18.7823369 42.3741548,18.7823369 C29.9259636,18.7823369 19.8347107,29.68089 19.8347107,43.1249365 C19.8347107,45.6360988 20.1867853,48.0584513 20.8405315,50.3375586 L3.55271368e-14,50.3375586 L3.55271368e-14,9.69979475 C3.55271368e-14,8.36951979 0.585967165,7.14445147 1.50435259,6.31030581 Z M49.3093683,50.3375586 L36.3058429,50.3375586 L36.3058429,36.5711596 L49.3093683,36.5711596 L49.3093683,50.3375586 Z" id="合并形状" fill="#43AEFE"></path>
            <path d="M3.55271368e-14,53.0422915 L83.7276314,53.0422915 L83.7276314,59.4595025 C83.7276314,59.4595025 83.5821446,75.4660317 67.079789,87.6566583 C67.079789,87.6566583 61.3434539,92.4743759 45.464613,98.3727032 C43.1368248,99.2394421 40.6011984,99.2394421 38.2734102,98.3727032 C22.3945693,92.4743759 16.6582342,87.6566583 16.6478423,87.6566583 C0.145486762,75.4660317 3.55271368e-14,59.4595025 3.55271368e-14,59.4595025 L3.55271368e-14,53.0422915 Z M61.5040855,56.2856878 C61.1369291,55.9510606 60.6486733,55.7470248 60.1127625,55.7470248 L25.7608173,55.7470248 C25.0682515,55.7470248 24.4552734,56.0877806 24.0803956,56.6107798 C24.9838946,57.9326094 26.0166311,59.1538289 27.1596633,60.2549136 L58.2065569,60.2549136 C59.4427207,59.0641151 60.5498832,57.7328075 61.5040855,56.2856878 Z M53.8545134,63.5472041 C53.4223255,63.1807013 52.8629014,62.9596469 52.2518473,62.9596469 L32.7205945,62.9596469 C32.186888,62.9596469 31.6925682,63.1282808 31.2880134,63.4151741 C34.6384523,65.4188019 38.5308175,66.565958 42.6831101,66.565958 C46.7433218,66.565958 50.5550067,65.4691162 53.8545134,63.5472041 Z" id="合并形状" fill="#257EF6"></path>
        </g>
    </g>
</svg>