<?xml version="1.0" encoding="UTF-8"?>
<svg width="100px" height="100px" viewBox="0 0 100 100" version="1.1" xmlns="http://www.w3.org/2000/svg" xmlns:xlink="http://www.w3.org/1999/xlink">
    <!-- Generator: Sketch 63.1 (92452) - https://sketch.com -->
    <title>graph-node</title>
    <desc>Created with Sketch.</desc>
    <g id="graph-node" stroke="none" stroke-width="1" fill="none" fill-rule="evenodd">
        <g id="logo8-color" transform="translate(0.000000, 3.000000)">
            <g id="Group-5" transform="translate(3.000000, 0.000000)">
                <line x1="46.5268315" y1="88.7314872" x2="93.8014042" y2="67.5977044" id="Stroke-884" stroke="#3FA9F5" stroke-width="5"></line>
                <path d="M53.3470986,88.1340607 C53.3470986,91.5788436 50.5351662,94.3710171 47.0660071,94.3710171 C43.596848,94.3710171 40.7840836,91.5788436 40.7840836,88.1340607 C40.7840836,84.6892783 43.596848,81.8971044 47.0660071,81.8971044 C50.5351662,81.8971044 53.3470986,84.6892783 53.3470986,88.1340607" id="Fill-886" fill="#565656" fill-rule="nonzero"></path>
                <path d="M96.2916281,68.1085565 C96.5461994,71.5442521 93.8016536,75.0278609 90.0105368,74.9089044 C86.5430414,74.8006869 83.756067,72.6817739 83.756067,69.2369913 C83.756067,65.6972087 86.5413775,62.8075565 90.0105368,62.7522087 C93.5312757,62.6952087 96.0229138,64.4812087 96.2916281,68.1085565" id="Fill-888" fill="#2E81F7" fill-rule="nonzero"></path>
                <path d="M74.8298457,78.3650044 C74.8298457,81.8097869 72.0179134,84.6019609 68.5487542,84.6019609 C65.0795951,84.6019609 62.2668308,81.8097869 62.2668308,78.3650044 C62.2668308,74.9202217 65.0795951,72.1280479 68.5487542,72.1280479 C72.0179134,72.1280479 74.8298457,74.9202217 74.8298457,78.3650044" id="Fill-890" fill="#2E81F7" fill-rule="nonzero"></path>
                <line x1="47.6873776" y1="88.1134085" x2="0.341258771" y2="67.1374087" id="Stroke-892" stroke="#3FA9F5" stroke-width="5"></line>
                <path d="M42.6996918,83.4558479 C45.2894982,81.1634565 49.2594807,81.3898044 51.5680938,83.9605869 C53.8767069,86.5321957 53.6495893,90.4751085 51.059783,92.7675 C48.4699766,95.0598915 44.499994,94.8335436 42.1913809,92.261935 C39.8827679,89.6911521 40.1098855,85.7482391 42.6996918,83.4558479" id="Fill-894" fill="#2E81F7" fill-rule="nonzero"></path>
                <path d="M21.0602918,74.0339956 C23.650098,71.7416044 27.6200806,71.9679521 29.9286938,74.5387348 C32.2373069,77.1103435 32.0101892,81.0532565 29.4203829,83.3456479 C26.8305766,85.6380391 22.859762,85.4116913 20.5519809,82.8400826 C18.2433678,80.2693 18.4704854,76.3263869 21.0602918,74.0339956" id="Fill-898" fill="#2E81F7" fill-rule="nonzero"></path>
                <line x1="20.9070498" y1="18.0390131" x2="48.8458438" y2="5.54857826" id="Stroke-900" stroke="#35DFCD" stroke-width="5"></line>
                <path d="M29.8746181,16.3163739 C29.8746181,19.7611565 27.0626858,22.5533304 23.5935266,22.5533304 C20.1243675,22.5533304 17.3116033,19.7611565 17.3116033,16.3163739 C17.3116033,12.8715913 20.1243675,10.0794173 23.5935266,10.0794173 C27.0626858,10.0794173 29.8746181,12.8715913 29.8746181,16.3163739" id="Fill-902" fill="#35DFCD" fill-rule="nonzero"></path>
                <line x1="3.36990956" y1="48.1097348" x2="29.8744517" y2="35.1938652" id="Stroke-904" stroke="#3FA9F5" stroke-width="5"></line>
                <line x1="46.5203425" y1="47.5638565" x2="91.1036134" y2="25.9492913" id="Stroke-906" stroke="#35DFCD" stroke-width="5"></line>
                <line x1="19.658818" y1="35.1940304" x2="46.5202593" y2="47.5638565" id="Stroke-908" stroke="#35DFCD" stroke-width="5"></line>
                <line x1="21.4570404" y1="15.5527391" x2="48.3184816" y2="27.9225652" id="Stroke-910" stroke="#35DFCD" stroke-width="5"></line>
                <path d="M31.6728406,37.7432521 C31.6728406,41.1880348 28.8609082,43.9802087 25.3917491,43.9802087 C21.9225899,43.9802087 19.1098256,41.1880348 19.1098256,37.7432521 C19.1098256,34.2984696 21.9225899,31.5062956 25.3917491,31.5062956 C28.8609082,31.5062956 31.6728406,34.2984696 31.6728406,37.7432521" id="Fill-912" fill="#35DFCD" fill-rule="nonzero"></path>
                <path d="M52.8017667,47.5638565 C52.8017667,51.0086391 49.9898343,53.8008131 46.5206752,53.8008131 C43.0515161,53.8008131 40.2387518,51.0086391 40.2387518,47.5638565 C40.2387518,44.1190739 43.0515161,41.3269 46.5206752,41.3269 C49.9898343,41.3269 52.8017667,44.1190739 52.8017667,47.5638565" id="Fill-914" fill="#35DFCD" fill-rule="nonzero"></path>
                <path d="M52.8017667,26.5833956 C52.8017667,30.0281783 49.9898343,32.8203521 46.5206752,32.8203521 C43.0515161,32.8203521 40.2387518,30.0281783 40.2387518,26.5833956 C40.2387518,23.1386131 43.0515161,20.3464391 46.5206752,20.3464391 C49.9898343,20.3464391 52.8017667,23.1386131 52.8017667,26.5833956" id="Fill-916" fill="#35DFCD" fill-rule="nonzero"></path>
                <path d="M52.8017667,6.94210435 C52.8017667,10.3868869 49.9898343,13.1790609 46.5206752,13.1790609 C43.0515161,13.1790609 40.2387518,10.3868869 40.2387518,6.94210435 C40.2387518,3.49732174 43.0515161,0.705147826 46.5206752,0.705147826 C49.9898343,0.705147826 52.8017667,3.49732174 52.8017667,6.94210435" id="Fill-918" fill="#35DFCD" fill-rule="nonzero"></path>
                <path d="M74.3802693,37.7432521 C74.3802693,41.1880348 71.568337,43.9802087 68.0991778,43.9802087 C64.6300187,43.9802087 61.8172544,41.1880348 61.8172544,37.7432521 C61.8172544,34.2984696 64.6300187,31.5062956 68.0991778,31.5062956 C71.568337,31.5062956 74.3802693,34.2984696 74.3802693,37.7432521" id="Fill-920" fill="#35DFCD" fill-rule="nonzero"></path>
                <path d="M70.3342481,14.0843696 C70.3342481,17.5291521 67.5223157,20.3213261 64.0531566,20.3213261 C60.5839975,20.3213261 57.7712332,17.5291521 57.7712332,14.0843696 C57.7712332,10.6395869 60.5839975,7.84741304 64.0531566,7.84741304 C67.5223157,7.84741304 70.3342481,10.6395869 70.3342481,14.0843696" id="Fill-922" fill="#35DFCD" fill-rule="nonzero"></path>
                <path d="M95.5091957,26.5833956 C95.5091957,30.0281783 92.6972627,32.8203521 89.2281036,32.8203521 C85.7589449,32.8203521 82.9461805,30.0281783 82.9461805,26.5833956 C82.9461805,23.1386131 85.7589449,20.3464391 89.2281036,20.3464391 C92.6972627,20.3464391 95.5091957,23.1386131 95.5091957,26.5833956" id="Fill-924" fill="#35DFCD" fill-rule="nonzero"></path>
                <line x1="47.6873776" y1="67.1329479" x2="0.341258771" y2="46.1569479" id="Stroke-926" stroke="#3FA9F5" stroke-width="5"></line>
                <path d="M21.0602918,53.0535348 C23.650098,50.7611435 27.6200806,50.9874913 29.9286938,53.5582739 C32.2373069,56.1298826 32.0101892,60.0727956 29.4203829,62.3651869 C26.8305766,64.6575783 22.859762,64.4312304 20.5519809,61.8596217 C18.2433678,59.2888391 18.4704854,55.3459261 21.0602918,53.0535348" id="Fill-928" fill="#00C7FD" fill-rule="nonzero"></path>
                <line x1="90.0318344" y1="26.0854304" x2="40.8013878" y2="5.08877826" id="Stroke-930" stroke="#35DFCD" stroke-width="5"></line>
                <line x1="46.5268315" y1="67.7510261" x2="93.8014042" y2="46.6172435" id="Stroke-934" stroke="#3FA9F5" stroke-width="5"></line>
                <path d="M53.3470986,67.1536 C53.3470986,70.5983826 50.5351662,73.3905565 47.0660071,73.3905565 C43.596848,73.3905565 40.7840836,70.5983826 40.7840836,67.1536 C40.7840836,63.7088173 43.596848,60.9166435 47.0660071,60.9166435 C50.5351662,60.9166435 53.3470986,63.7088173 53.3470986,67.1536" id="Fill-936" fill="#00C7FD" fill-rule="nonzero"></path>
                <path d="M96.2916281,47.1280956 C96.5461994,50.5637913 93.8016536,54.0474 90.0105368,53.9284435 C86.5430414,53.8202261 83.756067,51.7013131 83.756067,48.2565304 C83.756067,44.7167479 86.5413775,41.8270956 90.0105368,41.7717479 C93.5312757,41.7147479 96.0229138,43.5007479 96.2916281,47.1280956" id="Fill-938" fill="#00C7FD" fill-rule="nonzero"></path>
                <path d="M74.8298457,57.3845435 C74.8298457,60.8293261 72.0179134,63.6215 68.5487542,63.6215 C65.0795951,63.6215 62.2668308,60.8293261 62.2668308,57.3845435 C62.2668308,53.9397609 65.0795951,51.1475869 68.5487542,51.1475869 C72.0179134,51.1475869 74.8298457,53.9397609 74.8298457,57.3845435" id="Fill-940" fill="#00C7FD" fill-rule="nonzero"></path>
            </g>
            <path d="M12,47 C12,50.3139072 9.3140851,53 6.00039731,53 C2.68670948,53 0,50.3139072 0,47 C0,43.6860927 2.68670948,41 6.00039731,41 C9.3140851,41 12,43.6860927 12,47" id="Fill-932" fill="#00C7FD" fill-rule="nonzero"></path>
            <path d="M1.66353831,64.9202242 C3.92167955,62.4787592 8.08067596,62.1992457 10.3574989,65.0489797 C12.4404999,67.6550561 12.6849177,71.0841899 10.2625339,73.3455601 C7.77320758,75.6688635 4.00574685,75.5286992 1.80676409,73.0293758 C-0.425689906,70.4917516 -0.720703876,67.4977789 1.66353831,64.9202242" id="Fill-896" fill="#2E81F7" fill-rule="nonzero"></path>
        </g>
    </g>
</svg>