<?xml version="1.0" encoding="UTF-8"?>
<svg width="100px" height="100px" viewBox="0 0 100 100" version="1.1" xmlns="http://www.w3.org/2000/svg" xmlns:xlink="http://www.w3.org/1999/xlink">
    <!-- Generator: Sketch 63.1 (92452) - https://sketch.com -->
    <title>math</title>
    <desc>Created with Sketch.</desc>
    <g id="math" stroke="none" stroke-width="1" fill="none" fill-rule="evenodd">
        <g id="logo13-color" transform="translate(6.400000, 0.400000)" fill-rule="nonzero">
            <path d="M0.185391743,25.3099545 L0.185391743,25.0409944 L0.480935171,25.1355317 L42.6790661,0.231180983 C43.2080761,-0.0810283875 43.8660379,-0.0767273298 44.3909193,0.242371266 L51.8,4.74667824 L11.9683659,29.6876607 L11.9683659,81.6 L0.185391743,75.0861407 L0.185391743,25.4858186 L0,25.4193683 L0.185391743,25.3099545 Z" id="Combined-Shape-Copy-6" fill="#2E81F7"></path>
            <path d="M21.7864457,34.3542482 L59.0786742,10.4643878 C59.6076017,10.1255503 60.2825714,10.1113902 60.8253316,10.4277448 L70,15.7753157 L33.4741487,39.064063 L33.4741487,94.4 L21.6,88.0918387 L21.6,34.3739032 L21.7864457,34.3542482 Z" id="Combined-Shape-Copy-8" fill="#1FC1B0"></path>
            <polygon id="Rectangle-2-Copy-2" fill="#1FC1B0" points="77.2 24.8 86.6 25.0389 86.6 42.2 77.2 40.9627819"></polygon>
            <polygon id="Rectangle-14-Copy-2" fill="#35DFCD" points="44 44.8156976 77.644625 20.6 86.5326182 25.134058 56.0524424 47.8310614 61.2307618 62.9088556 57.4089032 81.1893694 77.644625 69.7993951 86.6 74.6814007 44 99.4 51.618998 62.9088556"></polygon>
            <polygon id="Rectangle-15-Copy-2" fill="#1FC1B0" points="78 58.248874 87.4 56.8 87.4 74.8 78 69.9001487"></polygon>
            <path d="M81.9000001,33 L81.9000001,33 C84.4957385,33 86.6,35.0885754 86.6,37.6649638 L86.6,42.7350361 C86.6,45.3114245 84.4957385,47.4 81.9000001,47.4 L81.9000001,47.4 C79.3042617,47.4 77.2,45.3114245 77.2,42.7350361 L77.2,37.6649638 C77.2,35.0885754 79.3042617,33 81.9000001,33 Z" id="Rectangle-18" fill="#1FC1B0"></path>
            <path d="M82.7,53 L82.7,53 C85.2957386,53 87.4,55.1096721 87.4,57.7120847 L87.4,64.2879153 C87.4,66.8903279 85.2957386,69 82.7,69 L82.7,69 C80.1042616,69 78,66.8903279 78,64.2879153 L78,57.7120847 C78,55.1096721 80.1042616,53 82.7,53 Z" id="Rectangle-18-Copy" fill="#1FC1B0"></path>
        </g>
    </g>
</svg>