<?xml version="1.0" encoding="UTF-8"?>
<svg width="500px" height="500px" viewBox="0 0 500 500" version="1.1" xmlns="http://www.w3.org/2000/svg" xmlns:xlink="http://www.w3.org/1999/xlink">
    <!-- Generator: Sketch 57.1 (83088) - https://sketch.com -->
    <title>离线指标</title>
    <desc>Created with Sketch.</desc>
    <g id="离线指标" stroke="none" stroke-width="1" fill="none" fill-rule="evenodd">
        <g id="logo13-color" transform="translate(32.000000, 2.000000)" fill-rule="nonzero">
            <path d="M0.926958713,126.549772 L0.926958713,125.204972 L2.40467585,125.677659 L213.39533,1.15590492 C216.040381,-0.405141938 219.330189,-0.383636649 221.954597,1.21185633 L259,23.7333912 L59.8418293,148.438304 L59.8418293,408 L0.926958713,375.430703 L0.926958713,127.429093 L0,127.096842 L0.926958713,126.549772 Z" id="Combined-Shape-Copy-6" fill="#2E81F7"></path>
            <path d="M108.932228,171.771241 L295.393371,52.321939 C298.038009,50.6277514 301.412857,50.556951 304.126658,52.1387239 L350,78.8765783 L167.370744,195.320315 L167.370744,472 L108,440.459193 L108,171.869516 L108.932228,171.771241 Z" id="Combined-Shape-Copy-8" fill="#1FC1B0"></path>
            <polygon id="Rectangle-2-Copy-2" fill="#1FC1B0" points="386 124 433 125.1945 433 211 386 204.81391"></polygon>
            <polygon id="Rectangle-14-Copy-2" fill="#35DFCD" points="220 224.078488 388.223125 103 432.663091 125.67029 280.262212 239.155307 306.153809 314.544278 287.044516 405.946847 388.223125 348.996975 433 373.407004 220 497 258.09499 314.544278"></polygon>
            <polygon id="Rectangle-15-Copy-2" fill="#1FC1B0" points="390 291.24437 437 284 437 374 390 349.500743"></polygon>
            <path d="M409.5,165 L409.5,165 C422.478693,165 433,175.442877 433,188.324819 L433,213.67518 C433,226.557123 422.478693,237 409.5,237 L409.5,237 C396.521309,237 386,226.557123 386,213.67518 L386,188.324819 C386,175.442877 396.521309,165 409.5,165 Z" id="Rectangle-18" fill="#1FC1B0"></path>
            <path d="M413.5,265 L413.5,265 C426.478693,265 437,275.548361 437,288.560423 L437,321.439577 C437,334.451639 426.478693,345 413.5,345 L413.5,345 C400.521308,345 390,334.451639 390,321.439577 L390,288.560423 C390,275.548361 400.521308,265 413.5,265 Z" id="Rectangle-18-Copy" fill="#1FC1B0"></path>
        </g>
    </g>
</svg>