<?xml version="1.0" encoding="UTF-8"?>
<svg width="100px" height="100px" viewBox="0 0 100 100" version="1.1" xmlns="http://www.w3.org/2000/svg" xmlns:xlink="http://www.w3.org/1999/xlink">
    <!-- Generator: Sketch 63.1 (92452) - https://sketch.com -->
    <title>model</title>
    <desc>Created with Sketch.</desc>
    <g id="model" stroke="none" stroke-width="1" fill="none" fill-rule="evenodd">
        <g id="模型" transform="translate(4.000000, 0.000000)" fill-rule="nonzero">
            <path d="M57.5227972,65.5528855 C57.5227972,66.180158 57.3397975,66.788616 56.9859977,67.2778802 L50.5565953,75.3168741 C50.0939953,75.9810434 49.3502323,76.3774463 48.5557971,76.3832366 L31.8417997,76.3832366 C31.3782001,76.3832366 31,76.8035091 31,77.3241443 L31,99.0653649 C31,99.5797275 31.3782001,100 31.8478995,100 L51.8009904,100 C52.2706898,100 52.6549907,99.5797275 52.6549907,99.0653649 L52.6549907,79.5885272 C52.6549907,79.0051645 52.819691,78.4343511 53.1246901,77.9576154 L58.9318864,70.050352 C59.3857586,69.3300703 60.1591325,68.8900835 60.9936829,68.8773572 L91.1521005,68.8773572 C91.6217999,68.8773572 92,68.4633572 92,67.9489946 L92,32.9346351 C92,32.4202725 91.6217999,32 91.1521005,32 L58.3707495,32 C57.9071499,32 57.52285,32.4202725 57.52285,32.9346351 L57.5227972,65.5528855 Z" id="路径" fill="#1DD6C3"></path>
            <path d="M36.1728019,67.0589999 L36.1728019,34.4408673 C36.1728019,33.8135958 36.3648016,33.2051368 36.7360014,32.7158726 L43.4816042,24.6768783 C43.9936041,23.9994244 44.7616093,23.6105157 45.5808024,23.6105157 L63.1168003,23.6105157 C63.6031999,23.6105157 64,23.1902431 64,22.6696079 L64,0.934635176 C64,0.420272515 63.6031999,0 63.1104005,0 L42.1760094,0 C41.6832089,0 41.28001,0.420272515 41.28001,0.934635176 L41.28001,20.4114736 C41.2839364,20.9909129 41.1124397,21.5584823 40.7872116,22.0423831 L34.6944153,29.9496468 C34.2182217,30.6699284 33.4068129,31.1099152 32.531219,31.1226414 L0.889599522,31.1226414 C0.3968001,31.1226414 0,31.5366414 0,32.0510041 L0,67.0653648 C0,67.5797275 0.3968001,68 0.889599522,68 L35.2831493,68 C35.7695489,68 36.1727488,67.5797275 36.1727488,67.0653648 L36.1728019,67.0589999 Z" id="路径" fill="#257EF6"></path>
        </g>
    </g>
</svg>