<?xml version="1.0" encoding="UTF-8"?>
<svg width="100px" height="100px" viewBox="0 0 100 100" version="1.1" xmlns="http://www.w3.org/2000/svg" xmlns:xlink="http://www.w3.org/1999/xlink">
    <!-- Generator: Sketch 63.1 (92452) - https://sketch.com -->
    <title>network</title>
    <desc>Created with Sketch.</desc>
    <defs>
        <linearGradient x1="45.943132%" y1="50%" x2="78.2824726%" y2="1.72852372%" id="linearGradient-1">
            <stop stop-color="#278CEF" offset="0%"></stop>
            <stop stop-color="#0459D2" offset="100%"></stop>
        </linearGradient>
        <linearGradient x1="90.8288499%" y1="0%" x2="29.2755624%" y2="71.6872136%" id="linearGradient-2">
            <stop stop-color="#0BC0D0" offset="0%"></stop>
            <stop stop-color="#13B1D9" offset="38.5939514%"></stop>
            <stop stop-color="#2E81F7" offset="100%"></stop>
        </linearGradient>
    </defs>
    <g id="network" stroke="none" stroke-width="1" fill="none" fill-rule="evenodd">
        <g id="logo10-color" transform="translate(-12.400000, -7.000000)" fill-rule="nonzero">
            <g id="分组-2-copy-10" transform="translate(68.240105, 73.632634) rotate(25.000000) translate(-68.240105, -73.632634) translate(20.340105, 14.932634)">
                <path d="M52.9216478,37.5562967 C51.389639,36.5314665 50.2750814,34.9120401 49.9622239,32.9721771 C49.3604343,29.2408018 51.9527794,25.7368231 55.7523887,25.1458217 C59.0462089,24.633492 62.1660067,26.4784123 63.3302684,29.4094822 C63.8055034,30.4130285 64.0314973,31.5320345 63.9522971,32.6724931 C63.9623652,33.0292988 63.9715454,33.2643199 63.9798377,33.3775562 C63.9897513,33.5129322 64.010353,33.7026524 64.0416427,33.9467168 C64.1700552,34.8286829 64.4020644,35.5794508 64.7376701,36.1990206 C65.3209776,37.2758783 66.5258191,38.6860884 68.6083984,39.3728907 C69.4298168,39.6437818 70.427954,39.7220549 71.6028099,39.60771 C72.5852512,39.4281811 73.6264472,39.458777 74.6611333,39.736031 C78.3076242,40.713143 80.492409,44.3838163 79.5409868,47.9347093 C79.2468102,49.0326335 78.6872483,49.9905543 77.9467474,50.761201 L75.1819094,48.3245919 L78.0412874,50.9152048 C77.3399936,51.7334669 76.4324543,52.3932815 75.3578147,52.8058187 C71.882288,54.1400186 67.9750681,52.3825589 66.6307946,48.8804226 C66.2493591,47.8866969 66.1152598,46.8592774 66.1982447,45.8668126 C66.1965985,44.6910556 66.0188396,43.7115319 65.6649681,42.9282414 C64.7677818,40.9423298 63.2304199,39.9053087 62.0898876,39.4467892 C61.4336828,39.1829801 60.6558574,39.0362271 59.7564115,39.0065302 C59.5079313,39.0025154 59.3151479,39.0030784 59.1780612,39.0082192 C59.0633939,39.0125192 58.8262,39.0293942 58.4664795,39.058844 C56.463718,39.4183377 54.4339742,38.8358653 52.9216478,37.5562967 Z" id="合并形状" fill="#085FD5" transform="translate(64.819570, 39.156418) rotate(-3.000000) translate(-64.819570, -39.156418) "></path>
                <path d="M32.1748824,106.380091 L32.1126865,106.500813 C26.4259678,103.854625 22.4891634,98.1369125 22.4891634,91.5100056 C22.4891634,83.4268412 28.345599,76.6966101 36.0912859,75.2431901 C36.9516314,74.9959603 37.5166651,74.8271516 37.7863869,74.7367641 C38.1088438,74.6287043 38.5563774,74.4615694 39.1289876,74.2353594 C41.1882179,73.382015 42.8612362,72.3685179 44.1480425,71.1948684 C46.3846065,69.154979 49.0264132,65.4518413 49.3391301,60.1484406 C49.462473,58.056654 49.0027683,55.6721247 47.9600161,52.9948524 C46.884171,50.8086581 46.280594,48.3532666 46.2805398,45.7584833 C46.2803485,36.6138221 53.7761793,29.2009597 63.0229466,29.2009597 C65.4909072,29.2009597 67.834161,29.7291444 69.9434736,30.6773307 L69.9635912,30.6373142 C72.3570985,31.8097351 74.5121906,33.5723751 76.1933591,35.886325 C81.6303763,43.3698019 80.0516384,53.7857058 72.6671494,59.1508975 C70.5718122,60.6732623 68.234179,61.6254005 65.8362429,62.0373798 C63.0612158,62.7642663 60.8653974,63.7912671 59.2487879,65.1183818 C55.150125,68.4830758 53.7131302,72.7938432 53.3809477,75.8007803 C53.1898265,77.5308203 53.3551124,79.4794648 53.8768054,81.6467138 C54.0308193,82.2428602 54.1589949,82.7031192 54.2613322,83.0274906 C54.3469332,83.2988135 54.5428442,83.85515 54.8490654,84.6964992 C58.2296833,91.8179843 56.2385086,100.506604 49.7111985,105.249013 C44.4335447,109.083487 37.6187271,109.300353 32.1748902,106.380076 L32.1748824,106.380091 Z" id="合并形状-copy-2" fill="url(#linearGradient-1)" transform="translate(50.958429, 68.786906) rotate(31.000000) translate(-50.958429, -68.786906) "></path>
                <path d="M25.3829109,89.9738464 C25.3852422,89.9744668 25.3875733,89.9750888 25.3899042,89.9757126 L25.3540805,89.5130943 L25.3829109,89.9738464 Z M25.8423058,103.218556 C18.3277922,103.898464 10.7860447,100.423178 6.69763732,93.6261156 C1.62959775,85.2003942 3.56448343,74.4905873 10.7929171,68.0896801 C11.5420202,67.2892754 12.0299576,66.756895 12.2567292,66.492539 C12.5278384,66.1764968 12.8933484,65.7199787 13.353259,65.1229844 C14.9822165,62.9345304 16.1049069,60.8227519 16.7213303,58.7876488 C17.7927195,55.2504898 18.2471656,49.7239521 15.250742,43.9984704 C14.0688818,41.7402052 12.0907772,39.5445655 9.3164282,37.4115514 C6.81519206,35.8113076 4.64146891,33.6325545 3.01457333,30.9278067 C-2.71901098,21.3956029 0.510373862,8.94002299 10.2276063,3.10749026 C12.8267555,1.54741404 15.6268115,0.619199479 18.444064,0.278857517 L18.4359655,0.174275351 C21.6875132,-0.0977913773 25.0624057,0.396894625 28.2890687,1.76508457 C38.724324,6.18990714 43.657596,18.0753016 39.3078402,28.3118562 C38.0736038,31.2164624 36.2245797,33.6762162 33.9706319,35.6086235 C31.5204549,38.1065861 29.8674984,40.5558659 29.0117621,42.9564632 C26.8421753,49.0428057 28.0621579,54.4523798 29.6159185,57.8061644 C30.5098741,59.7357631 31.9158522,61.6709067 33.8338529,63.6115953 C34.3724612,64.1388401 34.7980162,64.5401001 35.1105181,64.8153753 C35.3719129,65.0456315 35.9292732,65.5049947 36.7825986,66.193465 C44.8324621,71.5271386 48.2406113,81.8637189 44.3957678,90.9120317 C41.3622746,98.0509423 34.6150161,102.502619 27.2698072,103.042289 C26.8105568,103.144706 26.3308792,103.203285 25.8423058,103.218556 Z" id="合并形状" fill="url(#linearGradient-2)"></path>
            </g>
        </g>
    </g>
</svg>