<?xml version="1.0" encoding="UTF-8"?>
<svg width="100px" height="100px" viewBox="0 0 100 100" version="1.1" xmlns="http://www.w3.org/2000/svg" xmlns:xlink="http://www.w3.org/1999/xlink">
    <!-- Generator: Sketch 63.1 (92452) - https://sketch.com -->
    <title>road</title>
    <desc>Created with Sketch.</desc>
    <defs>
        <linearGradient x1="50%" y1="100%" x2="50%" y2="3.061617e-15%" id="linearGradient-1">
            <stop stop-color="#60ADF1" offset="0%"></stop>
            <stop stop-color="#3175DE" offset="100%"></stop>
        </linearGradient>
        <linearGradient x1="50%" y1="100%" x2="50%" y2="3.061617e-15%" id="linearGradient-2">
            <stop stop-color="#1DA4FF" offset="0%"></stop>
            <stop stop-color="#0075EA" offset="100%"></stop>
        </linearGradient>
    </defs>
    <g id="road" stroke="none" stroke-width="1" fill="none" fill-rule="evenodd">
        <path d="M15.8791477,19.6713287 C16.6123852,17.4735573 17.3093014,15.7334707 17.9698985,14.4510576 C18.6304933,13.169784 19.3467031,12.2170321 20.1174015,11.5939526 L20.1174012,11.5939529 C20.8654675,10.9818204 21.7551215,10.5662722 22.7052985,10.3851764 C23.6587343,10.2027841 24.8335035,10.0736367 26.2273337,10 L39,10 L26.2273337,90 L9.38325603,90 C4.83173489,90 1.95099879,88.4071867 0.739906034,85.2192809 C-0.47118672,82.0336432 -0.195369133,77.5100883 1.5662171,71.6486051 L1.5662265,71.6485742 C2.29468891,69.2591219 2.99192435,66.860299 3.65776432,64.452703 C4.46364462,61.559344 5.32627706,58.445086 6.24453102,55.1121749 L6.24452571,55.1121943 C7.18935784,51.676329 8.10688245,48.2330514 8.9970042,44.7826713 C9.91411868,41.2299897 10.8130725,37.8415635 11.6938612,34.6185432 L11.6938119,34.6187234 C12.4899479,31.7083602 13.2791805,28.7961163 14.0615065,25.8820137 C14.7584227,23.2809445 15.3645332,21.2123139 15.8775748,19.6738762 L15.8791477,19.6713287 Z" id="路径" fill="url(#linearGradient-1)" fill-rule="nonzero"></path>
        <polygon id="路径" fill="#128ECA" fill-rule="nonzero" points="52.9988702 23 45 23 45.6564045 10 52.2317469 10 53 23"></polygon>
        <polygon id="路径" fill="#2AA5E1" fill-rule="nonzero" points="54.9999671 57 44 57 45.1980218 30 53.8019782 30 55 57"></polygon>
        <polygon id="路径" fill="#4BC4FF" fill-rule="nonzero" points="54.8828119 63 56 90 43 90 44.1171881 63.0011186 54.8828323 63.0011186"></polygon>
        <path d="M98.5671786,72.9668012 C99.0818007,74.5789201 99.4850917,76.3734432 99.779326,78.3514876 C100.073558,80.3295321 100.073558,82.1807003 99.779326,83.9015846 C99.4850939,85.6235974 98.8057473,87.0703169 97.7412818,88.2417321 C96.6756847,89.4142869 95.0772889,90 92.9472307,90 L72.8917338,90 L60,10 L70.358329,10 C74.0311153,10 77.1177139,10.8054941 79.614708,12.4176197 C82.1128447,14.0286102 84.0225085,16.9231778 85.3448531,21.0990543 C85.7856332,22.417758 86.3366082,24.4683127 86.9977783,27.2529865 L89.422073,36.7036667 C90.3036331,40.2202025 91.2033675,43.8828762 92.1224211,47.6928273 C93.0403342,51.5016498 93.9037156,55.0906848 94.7114403,58.4610717 L97.0255378,67.4721877 C97.6867079,70.109584 98.20133,71.9414906 98.5682658,72.966768 L98.5671786,72.9668012 Z" id="路径" fill="url(#linearGradient-2)" fill-rule="nonzero"></path>
    </g>
</svg>