<?xml version="1.0" encoding="UTF-8"?>
<svg width="500px" height="500px" viewBox="0 0 500 500" version="1.1" xmlns="http://www.w3.org/2000/svg" xmlns:xlink="http://www.w3.org/1999/xlink">
    <!-- Generator: Sketch 57.1 (83088) - https://sketch.com -->
    <title>天机</title>
    <desc>Created with Sketch.</desc>
    <defs>
        <linearGradient x1="100%" y1="22.4081633%" x2="59.1679374%" y2="77.5918367%" id="linearGradient-1">
            <stop stop-color="#2401F9" offset="0%"></stop>
            <stop stop-color="#25A9FD" offset="100%"></stop>
        </linearGradient>
        <linearGradient x1="100%" y1="-0.286122449%" x2="59.1679374%" y2="100.286122%" id="linearGradient-2">
            <stop stop-color="#2401F9" offset="0%"></stop>
            <stop stop-color="#25A9FD" offset="100%"></stop>
        </linearGradient>
        <linearGradient x1="91.369809%" y1="21.8210257%" x2="59.1679374%" y2="77.308643%" id="linearGradient-3">
            <stop stop-color="#2401F9" offset="0%"></stop>
            <stop stop-color="#0BC0D0" offset="100%"></stop>
        </linearGradient>
        <linearGradient x1="91.369809%" y1="-1.96057227%" x2="59.1679374%" y2="100.355726%" id="linearGradient-4">
            <stop stop-color="#2401F9" offset="0%"></stop>
            <stop stop-color="#0BC0D0" offset="100%"></stop>
        </linearGradient>
    </defs>
    <g id="天机" stroke="none" stroke-width="1" fill="none" fill-rule="evenodd">
        <g id="logo16-color" transform="translate(-7.000000, -29.000000)" fill-rule="nonzero">
            <path d="M257.5,528 C120.25724,528 9,416.74276 9,279.5 C9,142.25724 120.25724,31 257.5,31 C394.74276,31 506,142.25724 506,279.5 C506,416.74276 394.74276,528 257.5,528 Z M257.5,441.025 C346.707794,441.025 419.025,368.707794 419.025,279.5 C419.025,190.292206 346.707794,117.975 257.5,117.975 C168.292206,117.975 95.975,190.292206 95.975,279.5 C95.975,368.707794 168.292206,441.025 257.5,441.025 Z" id="合并形状-copy-2" fill="#2713FF"></path>
            <g id="分组-copy-2" transform="translate(50.000000, 191.000000)" fill="url(#linearGradient-2)">
                <path d="M450.063149,45.9012344 L450.815171,45.9012344 C453.068188,59.4716623 454.240908,73.412256 454.240908,87.6296295 C454.240908,225.905367 343.311499,338 206.47314,338 C120.319207,338 44.4356021,293.5656 0.0413391086,226.138702 C38.6010188,269.186381 94.5991444,296.271605 156.919586,296.271605 C273.232192,296.271605 367.522189,201.925289 367.522189,85.54321 C367.522189,76.2473595 366.920639,67.0920925 365.754365,58.1142565 C364.223876,53.6327381 363.392726,48.8218586 363.392726,43.8148149 C363.392726,19.6165608 382.805372,0 406.752085,0 C430.6988,0 450.111446,19.6165608 450.111446,43.8148149 C450.111446,44.5142367 450.095226,45.2098309 450.063149,45.9012344 Z" id="合并形状"></path>
            </g>
            <g id="分组-copy-3" transform="translate(247.610616, 195.734435) rotate(-173.000000) translate(-247.610616, -195.734435) translate(19.610616, 27.234435)" fill="url(#linearGradient-4)">
                <path d="M450.912255,45.7495626 L451.665691,45.7495626 C453.922964,59.2751492 455.097894,73.1696787 455.097894,87.3400737 C455.097894,225.158905 343.959201,336.883142 206.862679,336.883142 C120.546205,336.883142 44.5194357,292.595567 0.0414171002,225.391469 C38.6738447,268.296905 94.7776178,295.292631 157.215635,295.292631 C273.74768,295.292631 368.215567,201.258064 368.215567,85.2605484 C368.215567,75.9954142 367.612883,66.8703989 366.444409,57.9222286 C364.911032,53.4555185 364.078314,48.6605361 364.078314,43.6700369 C364.078314,19.5517415 383.527585,-9.09494702e-13 407.519476,-9.09494702e-13 C431.511369,-9.09494702e-13 450.960637,19.5517415 450.960637,43.6700369 C450.960637,44.3671478 450.944389,45.0604437 450.912255,45.7495626 Z" id="合并形状"></path>
            </g>
        </g>
    </g>
</svg>