<?xml version="1.0" encoding="UTF-8"?>
<svg width="100px" height="100px" viewBox="0 0 100 100" version="1.1" xmlns="http://www.w3.org/2000/svg" xmlns:xlink="http://www.w3.org/1999/xlink">
    <!-- Generator: Sketch 63.1 (92452) - https://sketch.com -->
    <title>unite</title>
    <desc>Created with Sketch.</desc>
    <g id="unite" stroke="none" stroke-width="1" fill="none" fill-rule="evenodd">
        <g id="统一服务" transform="translate(0.000000, -0.000000)" fill-rule="nonzero">
            <path d="M11.1500975,53.1189084 C8.32358674,53.1189084 5.49707602,52.037037 3.33333333,49.8830409 C-0.984405458,45.5653021 -0.984405458,38.5672515 3.33333333,34.2495127 L34.2495127,3.33333333 C38.5672515,-0.984405458 45.5653021,-0.984405458 49.8830409,3.33333333 C54.2007797,7.65107212 54.2007797,14.6491228 49.8830409,18.9668616 L18.9668616,49.8830409 C16.8031189,52.0467836 13.9766082,53.1189084 11.1500975,53.1189084 Z" id="路径" fill="#FFA300"></path>
            <path d="M19.7270955,91.374269 C16.9005848,91.374269 14.0740741,90.2923977 11.9103314,88.1384016 C7.59259259,83.8206628 7.59259259,76.8226121 11.9103314,72.5048733 L72.5048733,11.9103314 C76.8226121,7.59259259 83.8206628,7.59259259 88.1384016,11.9103314 C92.4561404,16.2280702 92.4561404,23.2261209 88.1384016,27.5438596 L27.5438596,88.1384016 C25.380117,90.2923977 22.5536062,91.374269 19.7270955,91.374269 Z" id="路径" fill="#3C81FF"></path>
            <path d="M57.9337232,99.9025341 C55.1072125,99.9025341 52.2807018,98.8206628 50.1169591,96.6666667 C45.7992203,92.3489279 45.7992203,85.3508772 50.1169591,81.0331384 L81.0331384,50.1169591 C85.3508772,45.7992203 92.3489279,45.7992203 96.6666667,50.1169591 C100.984405,54.4346979 100.984405,61.4327485 96.6666667,65.7504873 L65.7504873,96.6666667 C63.5867446,98.8206628 60.7602339,99.9025341 57.9337232,99.9025341 Z" id="路径" fill="#0ACC86"></path>
            <path d="M80.6432749,30.6432749 C74.5419103,30.6432749 69.5906433,25.6920078 69.5906433,19.5906433 L69.5906433,19.3957115 C69.5906433,13.294347 74.5419103,8.34307992 80.6432749,8.34307992 C86.7446394,8.34307992 91.6959064,13.294347 91.6959064,19.3957115 L91.6959064,19.5808967 C91.6959064,25.6920078 86.754386,30.6432749 80.6432749,30.6432749 Z" id="路径" fill="#3DDAFF"></path>
        </g>
    </g>
</svg>