<?xml version="1.0" standalone="no"?><!DOCTYPE svg PUBLIC "-//W3C//DTD SVG 1.1//EN" "http://www.w3.org/Graphics/SVG/1.1/DTD/svg11.dtd"><svg t="1668493687116" class="icon" viewBox="0 0 1024 1024" version="1.1" xmlns="http://www.w3.org/2000/svg" p-id="4101" xmlns:xlink="http://www.w3.org/1999/xlink" width="18" height="18"><path d="M896 665.6a38.4 38.4 0 0 1 37.888 32.192L934.4 704v230.4H704a38.4 38.4 0 0 1-6.208-76.288L704 857.6h153.6V704a38.4 38.4 0 0 1 32.192-37.888L896 665.6z m-768 0a38.4 38.4 0 0 1 37.888 32.192L166.4 704v153.6H320a38.4 38.4 0 0 1 37.888 32.192L358.4 896a38.4 38.4 0 0 1-32.192 37.888L320 934.4H89.6V704a38.4 38.4 0 0 1 38.4-38.4z m548.48-330.88c7.04 0 12.8 5.76 12.8 12.8v328.96a12.8 12.8 0 0 1-12.8 12.8H347.52a12.8 12.8 0 0 1-12.8-12.8V347.52c0-7.04 5.76-12.8 12.8-12.8h328.96z m-64.064 76.8H411.52v200.896h200.896V411.52zM934.4 89.6V320a38.4 38.4 0 0 1-76.288 6.208L857.6 320V166.4H704a38.4 38.4 0 0 1-37.888-32.192L665.6 128a38.4 38.4 0 0 1 32.192-37.888L704 89.6h230.4zM320 89.6a38.4 38.4 0 0 1 6.208 76.288L320 166.4H166.4V320a38.4 38.4 0 0 1-32.192 37.888L128 358.4a38.4 38.4 0 0 1-37.888-32.192L89.6 320V89.6H320z" p-id="4102"></path></svg>