<?xml version="1.0" standalone="no"?><!DOCTYPE svg PUBLIC "-//W3C//DTD SVG 1.1//EN" "http://www.w3.org/Graphics/SVG/1.1/DTD/svg11.dtd"><svg t="1585021874935" class="icon" viewBox="0 0 1024 1024" version="1.1" xmlns="http://www.w3.org/2000/svg" p-id="1980" xmlns:xlink="http://www.w3.org/1999/xlink" width="200" height="200"><defs><style type="text/css"></style></defs><path d="M913.7792 790.4384L559.68 177.0752a55.4688 55.4688 0 0 0-96.0768 0L109.4656 790.4384a55.42528 55.42528 0 0 0 0 55.4752 55.4688 55.4688 0 0 0 48.0384 27.7376h708.2496c19.8272 0 38.1184-10.5728 48.0384-27.7376a55.42528 55.42528 0 0 0-0.0128-55.4752zM518.7968 348.416c25.2032-0.2048 50.1888 22.1696 50.1888 42.9184l-12.4544 214.6176c0 20.7488-16.9856 37.7344-37.7344 37.7344s-37.7344-16.9856-37.7344-37.7344l-12.4544-214.6176c0-20.7488 19.8016-42.112 50.1888-42.9184z m0 451.3024c-28.6336 0-51.8528-23.2192-51.8528-51.8528 0-28.6336 23.2192-51.8528 51.8528-51.8528 28.6336 0 51.8528 23.2192 51.8528 51.8528 0 28.6464-23.2192 51.8528-51.8528 51.8528z m0 0" fill="#FB5F5A" p-id="1981"></path></svg>