<?xml version="1.0" encoding="UTF-8"?>
<svg width="500px" height="500px" viewBox="0 0 500 500" version="1.1" xmlns="http://www.w3.org/2000/svg" xmlns:xlink="http://www.w3.org/1999/xlink">
    <!-- Generator: Sketch 57.1 (83088) - https://sketch.com -->
    <title>知识图谱</title>
    <desc>Created with Sketch.</desc>
    <defs>
        <linearGradient x1="45.943132%" y1="50%" x2="78.2824726%" y2="1.72852372%" id="linearGradient-1">
            <stop stop-color="#278CEF" offset="0%"></stop>
            <stop stop-color="#0459D2" offset="100%"></stop>
        </linearGradient>
        <linearGradient x1="90.8288499%" y1="0%" x2="29.2755624%" y2="71.6872136%" id="linearGradient-2">
            <stop stop-color="#0BC0D0" offset="0%"></stop>
            <stop stop-color="#13B1D9" offset="38.5939514%"></stop>
            <stop stop-color="#2E81F7" offset="100%"></stop>
        </linearGradient>
    </defs>
    <g id="知识图谱" stroke="none" stroke-width="1" fill="none" fill-rule="evenodd">
        <g id="logo10-color" transform="translate(-62.000000, -35.000000)" fill-rule="nonzero">
            <g id="分组-2-copy-10" transform="translate(341.200525, 368.163171) rotate(25.000000) translate(-341.200525, -368.163171) translate(101.700525, 74.663171)">
                <path d="M264.608239,187.781484 C256.948195,182.657332 251.375407,174.560201 249.811119,164.860886 C246.802171,146.204009 259.763897,128.684116 278.761943,125.729108 C295.231045,123.16746 310.830034,132.392061 316.651342,147.047411 C319.027517,152.065143 320.157486,157.660172 319.761486,163.362466 C319.811826,165.146494 319.857727,166.321599 319.899188,166.887781 C319.948756,167.564661 320.051765,168.513262 320.208213,169.733584 C320.850276,174.143415 322.010322,177.897254 323.68835,180.995103 C326.604888,186.379391 332.629096,193.430442 343.041992,196.864454 C347.149084,198.218909 352.13977,198.610275 358.01405,198.03855 C362.926256,197.140905 368.132236,197.293885 373.305666,198.680155 C391.538121,203.565715 402.462045,221.919082 397.704934,239.673546 C396.234051,245.163167 393.436242,249.952771 389.733737,253.806005 L375.909547,241.622959 L390.206437,254.576024 C386.699968,258.667334 382.162271,261.966407 376.789073,264.029093 C359.41144,270.700093 339.87534,261.912795 333.153973,244.402113 C331.246796,239.433484 330.576299,234.296387 330.991224,229.334063 C330.982992,223.455278 330.094198,218.557659 328.32484,214.641207 C323.838909,204.711649 316.1521,199.526543 310.449438,197.233946 C307.168414,195.914901 303.279287,195.181136 298.782057,195.032651 C297.539656,195.012577 296.57574,195.015392 295.890306,195.041096 C295.31697,195.062596 294.131,195.146971 292.332398,195.29422 C282.31859,197.091688 272.169871,194.179326 264.608239,187.781484 Z" id="合并形状" fill="#085FD5" transform="translate(324.097851, 195.782088) rotate(-3.000000) translate(-324.097851, -195.782088) "></path>
                <path d="M160.874412,531.900455 L160.563433,532.504065 C132.129839,519.273127 112.445817,490.684562 112.445817,457.550028 C112.445817,417.134206 141.727995,383.48305 180.45643,376.215951 C184.758157,374.979801 187.583326,374.135758 188.931935,373.68382 C190.544219,373.143522 192.781887,372.307847 195.644938,371.176797 C205.94109,366.910075 214.306181,361.84259 220.740212,355.974342 C231.923032,345.774895 245.132066,327.259207 246.695651,300.742203 C247.312365,290.28327 245.013842,278.360623 239.80008,264.974262 C234.420855,254.043291 231.40297,241.766333 231.402699,228.792416 C231.401742,183.06911 268.880897,146.004799 315.114733,146.004799 C327.454536,146.004799 339.170805,148.645722 349.717368,153.386653 L349.817956,153.186571 C361.785493,159.048675 372.560953,167.861875 380.966796,179.431625 C408.151881,216.849009 400.258192,268.928529 363.335747,295.754488 C352.859061,303.366312 341.170895,308.127002 329.181215,310.186899 C315.306079,313.821332 304.326987,318.956335 296.24394,325.591909 C275.750625,342.415379 268.565651,363.969216 266.904738,379.003901 C265.949133,387.654102 266.775562,397.397324 269.384027,408.233569 C270.154096,411.214301 270.794975,413.515596 271.306661,415.137453 C271.734666,416.494068 272.714221,419.27575 274.245327,423.482496 C291.148417,459.089922 281.192543,502.533019 248.555993,526.245066 C222.167723,545.417434 188.093636,546.501763 160.874451,531.900379 L160.874412,531.900455 Z" id="合并形状-copy-2" fill="url(#linearGradient-1)" transform="translate(254.792145, 343.934532) rotate(31.000000) translate(-254.792145, -343.934532) "></path>
                <path d="M126.914554,449.869232 C126.926211,449.872334 126.937866,449.875444 126.949521,449.878563 L126.770403,447.565472 L126.914554,449.869232 Z M129.211529,516.092782 C91.638961,519.492321 53.9302234,502.115891 33.4881866,468.130578 C8.14798873,426.001971 17.8224171,372.452937 53.9645854,340.4484 C57.7101011,336.446377 60.1497878,333.784475 61.283646,332.462695 C62.6391918,330.882484 64.4667418,328.599893 66.7662951,325.614922 C74.9110824,314.672652 80.5245347,304.113759 83.6066513,293.938244 C88.9635973,276.252449 91.2358282,248.61976 76.2537099,219.992352 C70.3444088,208.701026 60.4538858,197.722828 46.582141,187.057757 C34.0759603,179.056538 23.2073445,168.162773 15.0728666,154.639033 C-13.5950549,106.978015 2.55186931,44.7001149 51.1380315,15.5374513 C64.1337776,7.73707021 78.1340574,3.0959974 92.22032,1.39428758 L92.1798273,0.871376756 C108.437566,-0.488956886 125.312029,1.98447313 141.445344,8.82542284 C193.62162,30.9495357 218.28798,90.376508 196.539201,141.559281 C190.368019,156.082312 181.122899,168.381081 169.85316,178.043118 C157.602275,190.53293 149.337492,202.77933 145.058811,214.782316 C134.210877,245.214029 140.31079,272.261899 148.079593,289.030822 C152.54937,298.678815 159.579261,308.354534 169.169264,318.057976 C171.862306,320.694201 173.990081,322.7005 175.55259,324.076876 C176.859565,325.228157 179.646366,327.524974 183.912993,330.967325 C224.162311,357.635693 241.203057,409.318594 221.978839,454.560158 C206.811373,490.254711 173.07508,512.513094 136.349036,515.211447 C134.052784,515.723529 131.654396,516.016426 129.211529,516.092782 Z" id="合并形状" fill="url(#linearGradient-2)"></path>
            </g>
        </g>
    </g>
</svg>