<?xml version="1.0" encoding="UTF-8"?>
<svg width="120px" height="120px" viewBox="0 0 120 120" version="1.1" xmlns="http://www.w3.org/2000/svg" xmlns:xlink="http://www.w3.org/1999/xlink">
    <!-- Generator: Sketch 52.4 (67378) - http://www.bohemiancoding.com/sketch -->
    <title>Logo8-Colour </title>
    <desc>Created with Sketch.</desc>
    <g id="Logo8-Colour-" stroke="none" stroke-width="1" fill="none" fill-rule="evenodd">
        <g id="Group-6" transform="translate(3.000000, 5.000000)">
            <g id="Group-5" transform="translate(3.402367, 0.000000)">
                <path d="M53.7217024,102.741722 L108.306776,78.2710261" id="Stroke-884" stroke="#3FA9F5" stroke-width="5"></path>
                <path d="M61.5966499,102.049965 C61.5966499,106.038661 58.3498826,109.271704 54.3442556,109.271704 C50.3386286,109.271704 47.0909007,106.038661 47.0909007,102.049965 C47.0909007,98.0612696 50.3386286,94.8282261 54.3442556,94.8282261 C58.3498826,94.8282261 61.5966499,98.0612696 61.5966499,102.049965" id="Fill-886" fill="#565656"></path>
                <path d="M111.182086,78.8625391 C111.476024,82.840713 108.307064,86.8743652 103.929692,86.7366261 C99.9259859,86.6113217 96.7080361,84.1578435 96.7080361,80.1691478 C96.7080361,76.0704522 99.9240648,72.7245391 103.929692,72.6604522 C107.994875,72.5944522 110.871818,74.6624522 111.182086,78.8625391" id="Fill-888" fill="#2E81F7"></path>
                <path d="M86.4014713,90.7384261 C86.4014713,94.7271217 83.1547041,97.9601652 79.149077,97.9601652 C75.14345,97.9601652 71.8957222,94.7271217 71.8957222,90.7384261 C71.8957222,86.7497304 75.14345,83.516687 79.149077,83.516687 C83.1547041,83.516687 86.4014713,86.7497304 86.4014713,90.7384261" id="Fill-890" fill="#2E81F7"></path>
                <path d="M55.0617143,102.026052 L0.394030746,77.7380522" id="Stroke-892" stroke="#3FA9F5" stroke-width="5"></path>
                <path d="M49.3027369,96.633087 C52.2930288,93.9787391 56.8769262,94.2408261 59.5425413,97.2175217 C62.2081564,100.195174 61.9459175,104.760652 58.9556257,107.415 C55.9653338,110.069348 51.3814364,109.807261 48.7158213,106.829609 C46.0502062,103.852913 46.3124451,99.2874348 49.3027369,96.633087" id="Fill-894" fill="#2E81F7"></path>
                <path d="M24.3170379,85.7235739 C27.3073297,83.0692261 31.8912271,83.331313 34.5568423,86.3080087 C37.2224574,89.2856609 36.9602185,93.8511391 33.9699266,96.505487 C30.9796348,99.1598348 26.3947768,98.8977478 23.7301223,95.9200957 C21.0645071,92.9434 21.326746,88.3779217 24.3170379,85.7235739" id="Fill-898" fill="#2E81F7"></path>
                <path d="M24.1400987,20.8872783 L56.3993248,6.42466957" id="Stroke-900" stroke="#35DFCD" stroke-width="5"></path>
                <path d="M34.4944044,18.8926435 C34.4944044,22.8813391 31.2476372,26.1143826 27.2420101,26.1143826 C23.2363831,26.1143826 19.9886553,22.8813391 19.9886553,18.8926435 C19.9886553,14.9039478 23.2363831,11.6709043 27.2420101,11.6709043 C31.2476372,11.6709043 34.4944044,14.9039478 34.4944044,18.8926435" id="Fill-902" fill="#35DFCD"></path>
                <path d="M3.8910296,55.7060087 L34.4942123,40.7507913" id="Stroke-904" stroke="#3FA9F5" stroke-width="5"></path>
                <path d="M53.7142099,55.0739391 L105.191801,30.0465478" id="Stroke-906" stroke="#35DFCD" stroke-width="5"></path>
                <path d="M22.6988414,40.7509826 L53.7141138,55.0739391" id="Stroke-908" stroke="#35DFCD" stroke-width="5"></path>
                <path d="M24.7751394,18.0084348 L55.7904118,32.3313913" id="Stroke-910" stroke="#35DFCD" stroke-width="5"></path>
                <path d="M36.5707025,43.702713 C36.5707025,47.6914087 33.3239352,50.9244522 29.3183082,50.9244522 C25.3126811,50.9244522 22.0649533,47.6914087 22.0649533,43.702713 C22.0649533,39.7140174 25.3126811,36.4809739 29.3183082,36.4809739 C33.3239352,36.4809739 36.5707025,39.7140174 36.5707025,43.702713" id="Fill-912" fill="#35DFCD"></path>
                <path d="M60.9669884,55.0739391 C60.9669884,59.0626348 57.7202211,62.2956783 53.7145941,62.2956783 C49.708967,62.2956783 46.4612392,59.0626348 46.4612392,55.0739391 C46.4612392,51.0852435 49.708967,47.8522 53.7145941,47.8522 C57.7202211,47.8522 60.9669884,51.0852435 60.9669884,55.0739391" id="Fill-914" fill="#35DFCD"></path>
                <path d="M60.9669884,30.7807739 C60.9669884,34.7694696 57.7202211,38.002513 53.7145941,38.002513 C49.708967,38.002513 46.4612392,34.7694696 46.4612392,30.7807739 C46.4612392,26.7920783 49.708967,23.5590348 53.7145941,23.5590348 C57.7202211,23.5590348 60.9669884,26.7920783 60.9669884,30.7807739" id="Fill-916" fill="#35DFCD"></path>
                <path d="M60.9669884,8.03822609 C60.9669884,12.0269217 57.7202211,15.2599652 53.7145941,15.2599652 C49.708967,15.2599652 46.4612392,12.0269217 46.4612392,8.03822609 C46.4612392,4.04953043 49.708967,0.816486957 53.7145941,0.816486957 C57.7202211,0.816486957 60.9669884,4.04953043 60.9669884,8.03822609" id="Fill-918" fill="#35DFCD"></path>
                <path d="M85.8823728,43.702713 C85.8823728,47.6914087 82.6356056,50.9244522 78.6299785,50.9244522 C74.6243515,50.9244522 71.3766236,47.6914087 71.3766236,43.702713 C71.3766236,39.7140174 74.6243515,36.4809739 78.6299785,36.4809739 C82.6356056,36.4809739 85.8823728,39.7140174 85.8823728,43.702713" id="Fill-920" fill="#35DFCD"></path>
                <path d="M81.2106782,16.3082174 C81.2106782,20.296913 77.9639109,23.5299565 73.9582839,23.5299565 C69.9526569,23.5299565 66.704929,20.296913 66.704929,16.3082174 C66.704929,12.3195217 69.9526569,9.08647826 73.9582839,9.08647826 C77.9639109,9.08647826 81.2106782,12.3195217 81.2106782,16.3082174" id="Fill-922" fill="#35DFCD"></path>
                <path d="M110.278659,30.7807739 C110.278659,34.7694696 107.031891,38.002513 103.026264,38.002513 C99.0206374,38.002513 95.7729095,34.7694696 95.7729095,30.7807739 C95.7729095,26.7920783 99.0206374,23.5590348 103.026264,23.5590348 C107.031891,23.5590348 110.278659,26.7920783 110.278659,30.7807739" id="Fill-924" fill="#35DFCD"></path>
                <path d="M55.0617143,77.732887 L0.394030746,53.444887" id="Stroke-926" stroke="#3FA9F5" stroke-width="5"></path>
                <path d="M24.3170379,61.4304087 C27.3073297,58.7760609 31.8912271,59.0381478 34.5568423,62.0148435 C37.2224574,64.9924957 36.9602185,69.5579739 33.9699266,72.2123217 C30.9796348,74.8666696 26.3947768,74.6045826 23.7301223,71.6269304 C21.0645071,68.6502348 21.326746,64.0847565 24.3170379,61.4304087" id="Fill-928" fill="#00C7FD"></path>
                <path d="M103.954283,30.2041826 L47.1108808,5.89226957" id="Stroke-930" stroke="#35DFCD" stroke-width="5"></path>
                <path d="M53.7217024,78.4485565 L108.306776,53.9778609" id="Stroke-934" stroke="#3FA9F5" stroke-width="5"></path>
                <path d="M61.5966499,77.7568 C61.5966499,81.7454957 58.3498826,84.9785391 54.3442556,84.9785391 C50.3386286,84.9785391 47.0909007,81.7454957 47.0909007,77.7568 C47.0909007,73.7681043 50.3386286,70.5350609 54.3442556,70.5350609 C58.3498826,70.5350609 61.5966499,73.7681043 61.5966499,77.7568" id="Fill-936" fill="#00C7FD"></path>
                <path d="M111.182086,54.5693739 C111.476024,58.5475478 108.307064,62.5812 103.929692,62.4434609 C99.9259859,62.3181565 96.7080361,59.8646783 96.7080361,55.8759826 C96.7080361,51.777287 99.9240648,48.4313739 103.929692,48.367287 C107.994875,48.301287 110.871818,50.369287 111.182086,54.5693739" id="Fill-938" fill="#00C7FD"></path>
                <path d="M86.4014713,66.4452609 C86.4014713,70.4339565 83.1547041,73.667 79.149077,73.667 C75.14345,73.667 71.8957222,70.4339565 71.8957222,66.4452609 C71.8957222,62.4565652 75.14345,59.2235217 79.149077,59.2235217 C83.1547041,59.2235217 86.4014713,62.4565652 86.4014713,66.4452609" id="Fill-940" fill="#00C7FD"></path>
            </g>
            <path d="M14.4600592,54.5769231 C14.4600592,58.5493632 11.2235185,61.7692308 7.23050836,61.7692308 C3.23749818,61.7692308 0,58.5493632 0,54.5769231 C0,50.6044829 3.23749818,47.3846154 7.23050836,47.3846154 C11.2235185,47.3846154 14.4600592,50.6044829 14.4600592,54.5769231" id="Fill-932" fill="#00C7FD"></path>
            <path d="M2.00457187,75.071038 C4.7256432,72.1444101 9.73725439,71.8093522 12.4808372,75.2253795 C14.9908637,78.3493301 15.2853884,82.4598943 12.366404,85.1706394 C9.36675347,87.9556248 4.82694471,87.7876074 2.17715964,84.7916235 C-0.512958437,81.7497279 -0.868451726,78.160799 2.00457187,75.071038" id="Fill-896" fill="#2E81F7"></path>
        </g>
    </g>
</svg>