<?xml version="1.0" encoding="UTF-8"?>
<svg width="120px" height="120px" viewBox="0 0 120 120" version="1.1" xmlns="http://www.w3.org/2000/svg" xmlns:xlink="http://www.w3.org/1999/xlink">
    <!-- Generator: Sketch 52.4 (67378) - http://www.bohemiancoding.com/sketch -->
    <title>Logo1-Colour</title>
    <desc>Created with Sketch.</desc>
    <g id="Logo1-Colour" stroke="none" stroke-width="1" fill="none" fill-rule="evenodd">
        <g id="Group-4-Copy-5" transform="translate(60.139610, 60.139610) rotate(45.000000) translate(-60.139610, -60.139610) translate(15.639610, 15.639610)">
            <path d="M44.4763927,64.6929349 C33.3111048,64.6929349 24.2598506,55.6416806 24.2598506,44.4763927 C24.2598506,33.3111048 33.3111048,24.2598506 44.4763927,24.2598506 C55.6416806,24.2598506 64.6929349,33.3111048 64.6929349,44.4763927 C64.6929349,55.6416806 55.6416806,64.6929349 44.4763927,64.6929349 Z M38.4114301,38.4114301 L38.4114301,50.5413554 L50.5413554,50.5413554 L50.5413554,38.4114301 L38.4114301,38.4114301 Z" id="Combined-Shape-Copy-19" fill="#FAC36B" transform="translate(44.476393, 44.476393) rotate(45.000000) translate(-44.476393, -44.476393) "></path>
            <path d="M72.78855,56.6961652 L72.9729616,56.6961652 L72.9729616,44.143633 C72.9729616,39.9083338 76.4063499,36.4749455 80.6416491,36.4749455 C84.8769483,36.4749455 88.3103367,39.9083338 88.3103367,44.143633 L88.3103367,80.0019572 L88.2440363,80.0019572 C87.9721896,84.8910802 83.9316548,88.7745608 78.9794611,88.7953697 L78.9794611,88.8860566 L8.11381952,88.8860566 C3.79978068,88.8860566 0.302561211,85.3888371 0.302561211,81.0747983 C0.302561211,76.7607594 3.79978068,73.26354 8.11381952,73.26354 L53.492578,73.26354 L53.492578,73.2540861 C53.9330267,73.2938994 54.3787018,73.3157119 54.8288651,73.3187803 L54.8288653,73.3187554 C55.5510971,73.3236782 55.9238334,73.3261396 55.947074,73.3261396 C55.9703147,73.3261396 56.3430512,73.3236782 57.0652836,73.3187796 C65.7766063,73.2594026 72.8072002,66.180725 72.8072009,57.4691987 C72.8072009,57.21001 72.8009362,56.9522844 72.78855,56.6961652 Z" id="Combined-Shape-Copy-10" fill="#257EF6"></path>
            <path d="M72.796371,20.3518101 L72.9902387,20.3518101 L72.9902387,7.77398853 C72.9902387,3.5434603 76.4197595,0.11393956 80.6502877,0.11393956 C84.8808159,0.11393956 88.3103367,3.5434603 88.3103367,7.77398853 L88.3103367,43.6727001 L88.2519559,43.6727001 C87.966877,48.54859 83.9311383,52.4170441 78.9879242,52.4348783 L78.9879242,52.5254974 L8.11004635,52.5254974 C3.79817914,52.5254974 0.302720122,49.0300384 0.302720122,44.7181712 C0.302720122,40.406304 3.79817914,36.910845 8.11004635,36.910845 L53.4983511,36.910845 L53.4983511,36.9021038 C53.9357117,36.9413919 54.3782219,36.9629225 54.8251583,36.9659671 C55.5537774,36.9709311 55.92976,36.9734131 55.9531061,36.9734131 C55.9764522,36.9734131 56.3524351,36.9709311 57.0810547,36.9659711 C65.7879647,36.9066519 72.8150118,29.8315678 72.8150125,21.1244544 C72.8150125,20.8653961 72.808751,20.6078003 72.796371,20.3518101 Z" id="Combined-Shape-Copy-12" fill="#43DDFE" transform="translate(44.306528, 26.319720) scale(-1, -1) translate(-44.306528, -26.319720) "></path>
        </g>
    </g>
</svg>