<?xml version="1.0" encoding="UTF-8"?>
<svg width="426px" height="426px" viewBox="0 0 426 426" version="1.1" xmlns="http://www.w3.org/2000/svg" xmlns:xlink="http://www.w3.org/1999/xlink">
    <!-- Generator: Sketch 57.1 (83088) - https://sketch.com -->
    <title>logo-custom</title>
    <desc>Created with Sketch.</desc>
    <g id="页面-1" stroke="none" stroke-width="1" fill="none" fill-rule="evenodd">
        <g id="logo-custom" transform="translate(0.597656, 0.597656)" fill="#009882" fill-rule="nonzero">
            <path d="M258.689844,5.30234375 L258.689844,133.902344 C258.23917,138.356916 254.780029,141.914447 250.339844,142.489844 L225.764844,142.489844 C220.576498,142.474935 216.330573,146.615267 216.214844,151.802344 L216.214844,217.652344 C216.214844,212.652344 220.039844,208.589844 225.052344,208.352344 L273.964844,208.352344 C277.154091,208.144724 279.980962,206.226662 281.352344,203.339844 L281.352344,203.089844 C281.602344,202.614844 281.839844,202.377344 281.839844,201.902344 C281.839844,201.664844 282.077344,201.427344 282.077344,201.189844 C282.077344,200.939844 282.077344,200.714844 282.314844,200.477344 C282.314844,199.989844 282.552344,199.514844 282.552344,199.039844 L282.552344,64.2398437 C338.139844,90.7148437 376.802344,147.502344 376.802344,213.114844 C376.802344,296.152344 315.477344,364.864844 235.552344,376.314844 L235.552344,283.739844 L273.964844,283.739844 C278.771168,283.265333 282.461623,279.268683 282.552344,274.439844 L282.552344,208.352344 C282.552344,213.602344 278.252344,217.889844 273.002344,217.889844 L225.752344,217.889844 C220.573604,217.881603 216.33717,222.012543 216.214844,227.189844 L216.214844,283.739844 L206.677344,283.739844 L206.677344,227.189844 C206.670447,222.051574 202.503118,217.889839 197.364844,217.889844 L150.364844,217.889844 C145.105966,217.869288 140.8479,213.611221 140.827344,208.352344 L140.827344,274.439844 C140.827344,279.439844 144.639844,283.264844 149.414844,283.739844 L188.064844,283.739844 L188.064844,376.314844 C108.139844,364.864844 46.8148437,296.152344 46.8148437,213.114844 C46.8148437,147.264844 85.2273437,90.7148437 141.064844,64.2398437 L141.064844,199.027344 C141.064844,199.502344 141.064844,199.977344 141.302344,200.464844 C141.302344,200.702344 141.302344,200.939844 141.539844,201.177344 C141.539844,201.414844 141.777344,201.652344 141.777344,201.889844 C142.027344,202.364844 142.027344,202.839844 142.252344,203.089844 L142.252344,203.327344 C143.689844,205.952344 146.552344,207.852344 149.652344,208.327344 L198.089844,208.327344 C202.852344,208.577344 206.914844,212.627344 206.914844,217.639844 L206.914844,151.789844 C206.914848,146.65157 202.753113,142.484241 197.614844,142.477344 L173.027344,142.477344 C168.504123,142.067537 164.954441,138.422349 164.664844,133.889844 L164.664844,5.77734375 C70.4273437,27.4898437 0.28984375,111.714844 0.28984375,212.402344 C0.28984375,329.552344 95.2523438,424.514844 212.402344,424.514844 C329.552344,424.514844 424.514844,329.552344 424.514844,212.402344 C424.514844,111.239844 353.639844,26.5273437 258.689844,5.30234375 Z M230.302344,1.00234375 C218.388069,0.0485502144 206.416619,0.0485502144 194.502344,1.00234375 L188.064844,1.72734375 L188.064844,122.452344 C188.064844,128.414844 192.839844,133.190028 198.802344,133.190028 L224.327344,133.190028 C227.183524,133.206596 229.927572,132.07939 231.947231,130.059731 C233.96689,128.040072 235.094096,125.296024 235.077528,122.439844 L235.077528,1.48984375 C233.639844,1.25234375 231.964844,1.25234375 230.302344,1.01484375 L230.302344,1.00234375 Z" id="形状"></path>
        </g>
    </g>
</svg>