<?xml version="1.0" encoding="UTF-8"?>
<svg width="120px" height="120px" viewBox="0 0 120 120" version="1.1" xmlns="http://www.w3.org/2000/svg" xmlns:xlink="http://www.w3.org/1999/xlink">
    <!-- Generator: Sketch 52.4 (67378) - http://www.bohemiancoding.com/sketch -->
    <title>Logo9-Colour </title>
    <desc>Created with Sketch.</desc>
    <g id="Logo9-Colour-" stroke="none" stroke-width="1" fill="none" fill-rule="evenodd">
        <g id="Group-4-Copy-19" transform="translate(9.000000, 0.000000)">
            <g id="盾牌-上-copy-3" fill="#43AEFE" fill-rule="nonzero">
                <path d="M1.82026663,7.81793329 C4.59009562,7.15820592 7.27458038,6.54123036 9.87372091,5.96700661 C11.5029922,5.69572868 13.1827636,5.33002847 14.8894828,4.88987062 C29.9560738,1.75159908 41.8902443,0.182463254 50.6919931,0.182463254 C61.9066116,0.182463254 78.4348999,3.0232063 100.276858,8.7046924 C100.924905,9.61456903 101.310434,10.7322824 101.310434,11.9192149 L101.310434,61.0909091 L77.3284114,61.0909091 C78.1194443,58.3331893 78.5454545,55.4021428 78.5454545,52.3636364 C78.5454545,36.0963401 66.3350386,22.9090909 51.2727273,22.9090909 C36.2104159,22.9090909 24,36.0963401 24,52.3636364 C24,55.4021428 24.4260102,58.3331893 25.2170431,61.0909091 L1.49213975e-13,61.0909091 L1.49213975e-13,11.9192149 C1.49213975e-13,10.3095822 0.70902027,8.82724953 1.82026663,7.81793329 Z M59.6643357,61.0909091 L43.9300699,61.0909091 L43.9300699,44.4335664 L59.6643357,44.4335664 L59.6643357,61.0909091 Z" id="合并形状"></path>
            </g>
            <g id="盾牌下-copy-3" transform="translate(0.000000, 64.363636)" fill="#257EF6" fill-rule="nonzero">
                <path d="M1.49213975e-13,-3.90798505e-14 L101.310434,-3.90798505e-14 L101.310434,7.76482526 C101.310434,7.76482526 101.134395,27.1327256 81.1665447,41.8833838 C81.1665447,41.8833838 74.2255792,47.7128221 55.0121817,54.8497981 C52.195558,55.8985522 49.1274501,55.8985522 46.3108264,54.8497981 C27.0974289,47.7128221 20.1564634,41.8833838 20.1438892,41.8833838 C0.176038982,27.1327256 1.49213975e-13,7.76482526 1.49213975e-13,7.76482526 L1.49213975e-13,-3.90798505e-14 Z M74.4199434,3.92450946 C73.9756842,3.51961052 73.3848947,3.27272727 72.7364426,3.27272727 L31.1705889,3.27272727 C30.3325843,3.27272727 29.5908808,3.68504181 29.1372787,4.31787081 C30.2305125,5.91728459 31.4801236,7.39496028 32.8631926,8.72727273 L70.4299338,8.72727273 C71.925692,7.28640654 73.2653587,5.67552437 74.4199434,3.92450946 Z M65.1639612,12.7109442 C64.6410138,12.2674758 63.9641107,12 63.2247352,12 L39.5919193,12 C38.9461345,12 38.3480075,12.204047 37.8584962,12.5511879 C41.9125273,14.9755776 46.6222892,16.3636364 51.6465632,16.3636364 C56.5594194,16.3636364 61.1715581,15.0364579 65.1639612,12.7109442 Z" id="合并形状"></path>
            </g>
            <g id="Group-3-Copy-3" transform="translate(28.363636, 67.636364)">
                <g id="Group-2"></g>
            </g>
        </g>
    </g>
</svg>