<?xml version="1.0" encoding="UTF-8"?>
<svg width="12px" height="13px" viewBox="0 0 12 13" version="1.1" xmlns="http://www.w3.org/2000/svg" xmlns:xlink="http://www.w3.org/1999/xlink">
    <title>icon-收起</title>
    <g id="贷中预警" stroke="none" stroke-width="1" fill="none" fill-rule="evenodd">
        <g id="icon-收起" transform="translate(0.000000, 0.500000)" fill="#7B8CB0" fill-rule="nonzero">
            <path d="M6,0 C9.3137085,0 12,2.6862915 12,6 C12,9.3137085 9.3137085,12 6,12 C2.6862915,12 0,9.3137085 0,6 C0,2.6862915 2.6862915,0 6,0 Z M6,1.07142857 C3.27802516,1.07142857 1.07142857,3.27802516 1.07142857,6 C1.07142857,8.72197484 3.27802516,10.9285714 6,10.9285714 C8.72197484,10.9285714 10.9285714,8.72197484 10.9285714,6 C10.9285714,3.27802516 8.72197484,1.07142857 6,1.07142857 Z" id="矩形"></path>
            <polygon id="路径-38" points="8.5 5.5 8.5 6.5 3.5 6.5 3.5 5.5"></polygon>
        </g>
    </g>
</svg>